<?xml version="1.0" encoding="utf-8"?>
<!-- Generator: Adobe Illustrator 15.0.2, SVG Export Plug-In . SVG Version: 6.00 Build 0)  -->
<!DOCTYPE svg PUBLIC "-//W3C//DTD SVG 1.1//EN" "http://www.w3.org/Graphics/SVG/1.1/DTD/svg11.dtd">
<svg version="1.1" id="レイヤー_1" xmlns="http://www.w3.org/2000/svg" xmlns:xlink="http://www.w3.org/1999/xlink" x="0px"
	 y="0px" width="160px" height="160px" viewBox="0 0 160 160" enable-background="new 0 0 160 160" xml:space="preserve">
<g>
	<g>
		<path fill="#2AA1B6" d="M93.301,46.582c-0.197,0.135-0.395,0.273-0.572,0.4c-0.223,0.175-0.455,0.377-0.809,0.688L78.457,60.087
			c-0.61,0.604-0.715,0.741-1.299,1.506l-0.425,0.658c-0.238,0.411-0.329,0.583-0.492,0.957c-0.028,0.063-0.059,0.136-0.092,0.214
			c-0.048,0.112-0.1,0.236-0.165,0.39l-0.016,0.048l-0.223,0.666c-0.105,0.408-0.224,0.958-0.299,1.372l-0.078,0.712
			c-0.017,0.324-0.021,0.754-0.02,1.082c0,0.005,0,0.012,0,0.017l0.021,0.303l0.023,0.322l0.003,0.043
			c0.03,0.257,0.085,0.598,0.126,0.852l0.136,0.604c0.082,0.292,0.205,0.677,0.301,0.964l0.209,0.521
			c0.067,0.155,0.167,0.358,0.239,0.512l0.155,0.289l0.082,0.154c0.01,0.018,0.024,0.04,0.035,0.06
			c0.068,0.117,0.15,0.25,0.214,0.356l0.254,0.382c0.077,0.108,0.183,0.249,0.261,0.356l0.27,0.336
			c0.057,0.113,0.195,0.223,0.278,0.317l0.289,0.304c0.09,0.09,0.213,0.205,0.304,0.293l0.317,0.281
			c0.101,0.086,0.239,0.194,0.342,0.277l0.354,0.263c0.118,0.084,0.28,0.188,0.4,0.27l0.404,0.245
			c0.145,0.083,0.344,0.186,0.491,0.264l0.472,0.223c0.002,0.001,0.006,0.002,0.008,0.003c0.188,0.081,0.44,0.176,0.63,0.25
			l0.558,0.182c0.259,0.072,0.607,0.152,0.869,0.213l0.654,0.107l0.39,0.044l0.7,0.039c0.382-0.002,0.891-0.026,1.273-0.053
			l0.729-0.105c0.301-0.061,0.678-0.155,0.996-0.239c0.045-0.012,0.098-0.024,0.141-0.036l0.07-0.024l0.314-0.11l0.338-0.117
			c0.312-0.13,0.721-0.326,1.027-0.474l0.678-0.396c0.285-0.188,0.648-0.459,0.922-0.662c0.182-0.16,0.424-0.373,0.605-0.532
			l13.465-12.417c0.191-0.19,0.447-0.449,0.729-0.775c0.012-0.014,0.021-0.025,0.035-0.04c0.133-0.165,0.291-0.371,0.533-0.688
			l0.102-0.157c0.131-0.195,0.264-0.4,0.396-0.631l0.076-0.135c0.043-0.078,0.082-0.155,0.123-0.232l0.146-0.306l0.062-0.128
			l0.051-0.107l0.006-0.011c0.004-0.008,0.008-0.017,0.012-0.025L93.301,46.582z"/>
		<path fill="#31A4B8" d="M108.443,57.588c-0.004,0.012-0.008,0.023-0.012,0.035L94.635,45.838c0-0.001,0.002-0.001,0.002-0.002
			c0.01-0.005,0.016-0.009,0.025-0.014c-0.127,0.059-0.256,0.119-0.367,0.17c-0.133,0.07-0.238,0.126-0.334,0.179
			c-0.006,0.003-0.01,0.006-0.016,0.009c-0.197,0.118-0.361,0.218-0.504,0.308c-0.047,0.031-0.092,0.061-0.141,0.093
			c-0.045,0.035-0.08,0.063-0.117,0.091c-0.252,0.197-0.303,0.247-0.533,0.484c-0.008,0.004-0.014,0.012-0.023,0.017
			c-0.006,0.003-0.01,0.008-0.016,0.011c0.004-0.001,0.008-0.002,0.012-0.004L79.178,59.579c0.003-0.001,0.006-0.002,0.009-0.004
			c0.003-0.002,0.008-0.002,0.011-0.004l0,0.017c-0.011,0.006-0.024,0.01-0.036,0.016c-0.001,0.001-0.002,0.002-0.002,0.003
			c-0.106,0.115-0.236,0.256-0.338,0.365c-3.964,5.515,3.885,12.538,4.977,12.788c0,0,0.002,0.001,0.003,0.001s0.002,0,0.003,0.001
			h0.001c0.001,0,0.003,0.001,0.004,0.001s0.002,0.001,0.003,0.001h0.001l0.001,0.001c0,0,0,0,0.001,0s0.002,0.001,0.002,0.001
			c0.001,0,0.003,0.001,0.003,0.001c0.002,0,0.003,0,0.004,0.001c0,0,0,0,0.001,0c0.761,0.114,1.294,0.69,1.974,0.968
			c1.305,0.533,2.377,0.622,3.322,0.701c0.793,0.065,2.051-0.043,3.549-0.935c0.117-0.092,0.271-0.211,0.393-0.306l0,0
			c0.002-0.001,0.002-0.001,0.002-0.001c0.002-0.001,0.004-0.003,0.004-0.004c0,0,0.002,0,0.002-0.001
			c0.002-0.001,0.002-0.002,0.004-0.003l0,0c0.002-0.001,0.004-0.003,0.004-0.004c0.002,0,0.002,0,0.002,0c0-0.001,0-0.001,0-0.001
			c0.002-0.001,0.004-0.002,0.004-0.003s0-0.001,0.002-0.002c-0.002,0.001-0.002,0.001-0.002,0.002c0.002,0,0.002-0.001,0.002-0.001
			l13.439-12.393l0.029-0.042c-0.002,0.006-0.004,0.012-0.006,0.019c0,0,0-0.001,0-0.001c0.107-0.084,0.256-0.188,0.355-0.28
			c0.516-0.476,0.814-1.046,1.021-1.461c0.061-0.143,0.135-0.317,0.232-0.545c0.01-0.03,0.02-0.057,0.029-0.086
			c0.078-0.229,0.168-0.499,0.238-0.738c0.004-0.012,0.01-0.026,0.012-0.038c0.008-0.026,0.02-0.057,0.025-0.081
			C108.455,57.552,108.449,57.568,108.443,57.588z"/>
		<path fill="#37A8BB" d="M108.654,56.61L95.57,45.465c0.002-0.001,0.004-0.002,0.006-0.003c-0.166,0.058-0.322,0.115-0.471,0.169
			c-0.031,0.011-0.068,0.024-0.098,0.035c0,0,0,0,0,0c-0.008,0.003-0.014,0.006-0.021,0.009l-0.242,0.111l-0.109,0.051
			c-0.58,0.31-0.877,0.479-1.465,1.11c-0.002,0-0.002,0.001-0.004,0.002c-0.004,0.001-0.008,0.004-0.012,0.005l-0.014,0.022
			L79.708,59.365l0.034-0.006c-0.013,0.004-0.026,0.006-0.039,0.01c-0.003,0.004-0.007,0.009-0.011,0.013l-0.001,0.001
			c-0.001,0.002-0.003,0.004-0.004,0.006c-0.001,0.001-0.002,0.003-0.003,0.004c-0.101,0.115-0.225,0.259-0.321,0.369
			c-3.78,5.71,4.427,12.483,5.578,12.687c0.003,0,0.006,0.001,0.009,0.002c0.002,0,0.005,0.001,0.007,0.002c0.001,0,0.003,0,0.003,0
			l0.002,0.001c0,0,0.001,0,0.002,0l0,0c0,0,0.001,0.001,0.002,0.001l0,0h0.001c0.001,0,0.004,0.001,0.005,0.001
			c0.002,0,0.003,0.001,0.004,0.001c0.173,0.014,0.365,0.173,0.52,0.253c1.166,0.604,2.588,0.941,4.225,1.001
			c0.074,0.002,1.848,0.054,3.279-0.965c0.059-0.044,0.135-0.1,0.197-0.146c0.004-0.003,0.008-0.006,0.012-0.009c0,0,0,0,0-0.001
			l0.02-0.045c-0.002,0.012-0.002,0.023-0.004,0.034c0,0.001,0,0.001,0,0.002c0,0.002-0.002,0.003-0.002,0.005l13.451-12.403
			c0,0.002-0.002,0.004-0.002,0.007l0.018-0.027c0.111-0.084,0.27-0.189,0.375-0.282c0.674-0.685,1.021-1.165,1.369-2.255
			c0.004-0.012,0.008-0.023,0.012-0.035l0.123-0.482l0.037-0.199c0.025-0.128,0.047-0.256,0.068-0.384
			C108.666,56.553,108.66,56.581,108.654,56.61z"/>
		<path fill="#3EABBE" d="M108.789,55.434c-0.002,0.004-0.002,0.007-0.002,0.011L96.898,45.105
			c-0.025,0.005-0.049,0.006-0.074,0.011l-0.012,0.002l-0.127,0.031c-0.273,0.06-0.543,0.132-0.812,0.215
			c-0.102,0.033-0.197,0.064-0.303,0.101c-0.965,0.42-1.332,0.678-1.949,1.372l-0.025,0.025L80.158,59.254l-0.011,0.013
			c-0.002,0.003-0.006,0.007-0.008,0.011l-0.001,0.001c0,0,0,0,0,0.001c-0.051,0.062-0.111,0.134-0.158,0.19
			c-1.91,2.446-0.611,5.734-0.167,6.684c2.002,4.284,5.816,5.896,6.066,5.986c0.002,0.001,0.004,0.002,0.006,0.002l0.002,0.001
			c0,0,0.004,0.001,0.004,0.002h0.002l0.002,0.001l0.002,0.001h0.002l0.004,0.002c0.621,0.024,1.1,0.437,1.666,0.612
			c0.939,0.29,1.982,0.33,2.098,0.334c1.646,0.053,2.568-0.415,3.18-0.725c0.123-0.082,0.283-0.189,0.41-0.274l0.02-0.032
			c0,0.006,0,0.012,0,0.017l13.461-12.414c-0.002,0.007-0.002,0.013-0.004,0.02l0.008-0.021c0.115-0.086,0.277-0.193,0.389-0.287
			c0.434-0.425,1.219-1.209,1.525-2.768c0.008-0.04,0.016-0.083,0.023-0.122c0.031-0.199,0.057-0.403,0.076-0.608
			c0.014-0.129,0.021-0.248,0.031-0.369c0-0.004,0-0.008,0.002-0.012c0-0.01,0-0.02,0.002-0.03c0-0.017,0-0.035,0.002-0.052
			C108.789,55.423,108.789,55.428,108.789,55.434z"/>
		<path fill="#44AEC0" d="M108.803,54.818l-0.002-0.106c0,0,0-0.001,0-0.002c0,0,0-0.001,0-0.002l-0.002-0.047l-0.014-0.114
			l-11.074-9.559c-0.059,0.007-0.111,0.014-0.172,0.021c-0.213,0.027-0.426,0.054-0.637,0.094c-0.002,0-0.004,0.001-0.004,0.001
			c-1.354,0.333-2.055,0.744-2.867,1.675l-0.01,0.017L94.016,46.8L80.573,59.197l-0.016,0.017h0c0,0.001-0.001,0.002-0.002,0.003
			c-0.091,0.12-0.205,0.271-0.292,0.387c-3.375,6.124,5.292,12.147,6.436,12.227h0.002c0.004,0,0.008,0.002,0.012,0.002l0,0l0,0
			c0.002,0,0.002,0,0.002,0c0.002,0,0.004,0.001,0.004,0.001l0,0c0.004,0,0.008,0.001,0.01,0.001
			c0.195-0.004,0.428,0.152,0.609,0.222c1.055,0.402,3.174,0.918,5.51-0.153c0.125-0.08,0.287-0.184,0.416-0.266l0.021-0.018
			l13.449-12.404l0.014,0.007c0-0.005,0.002-0.011,0.002-0.016c0,0,0,0,0,0c0.119-0.087,0.285-0.196,0.398-0.29
			c0.561-0.532,1.484-1.424,1.641-3.473c0-0.004,0-0.007,0.002-0.011c0-0.006,0-0.011,0.002-0.016c0-0.025,0-0.052,0.002-0.078
			c0.006-0.154,0.014-0.307,0.012-0.47L108.803,54.818z"/>
		<path fill="#4AB1C3" d="M108.754,53.882c-0.014-0.147-0.041-0.273-0.061-0.412l-10.086-8.536c-0.215,0.003-0.43,0.005-0.641,0.022
			c-0.08,0.008-0.17,0.021-0.256,0.032c-1.527,0.25-2.367,0.704-3.273,1.771l-0.014,0.013l-13.45,12.404l-0.014,0.019
			c-0.088,0.123-0.199,0.278-0.285,0.396c-3.167,6.003,5.206,11.921,6.77,11.919c0.004,0,0.008,0.001,0.01,0
			c0.002,0,0.002,0.001,0.002,0.001c0.002,0,0.004,0,0.004,0h0.002c0,0,0.002,0,0.004,0h0.002c0.002,0,0.006,0.001,0.008,0.001
			c0,0,0.002,0,0.004,0c0.158-0.009,0.354,0.113,0.504,0.162c1.664,0.532,3.287,0.458,4.828-0.221
			c0.129-0.08,0.303-0.186,0.436-0.266c0-0.001,0-0.001,0-0.001c0.002-0.001,0.002-0.001,0.002-0.001
			c0.002-0.001,0.002-0.001,0.002-0.002v-0.001c0-0.001,0.004-0.01,0.004-0.014c0.002,0.004,0.002,0.008,0.002,0.012v0.001
			l13.465-12.416c0,0,0-0.001,0-0.001c0.092-0.065,0.215-0.15,0.307-0.215c0.674-0.485,1.768-1.651,1.756-4.003
			c0-0.027,0.002-0.052,0.002-0.079C108.779,54.278,108.775,54.093,108.754,53.882z"/>
		<path fill="#51B4C6" d="M108.727,53.832c-0.01-0.119-0.02-0.238-0.033-0.361c-0.02-0.131-0.035-0.267-0.059-0.391
			c-0.002-0.006-0.002-0.012-0.002-0.018c-0.004-0.016-0.008-0.036-0.01-0.051c-0.014-0.072-0.027-0.133-0.043-0.197
			c-0.008-0.039-0.018-0.073-0.027-0.112c0-0.002,0-0.004-0.002-0.006c-0.02-0.082-0.039-0.161-0.059-0.239l-8.953-7.493
			c-0.051-0.004-0.102-0.009-0.154-0.012c-0.189-0.011-0.371-0.019-0.543-0.025c-0.078,0-0.156,0.007-0.234,0.008
			c-1.756,0.132-2.824,0.65-3.775,1.835l-0.016,0.02c-0.002,0-0.004,0.001-0.006,0.001L81.369,59.188l-0.015,0.02
			c-0.001,0-0.001,0.001-0.001,0.001c-0.069,0.104-0.156,0.234-0.223,0.335c-3.03,5.937,5.447,11.689,7.025,11.631
			c0.002,0,0.006,0,0.008,0s0.004,0.001,0.006,0c0.002,0,0.002,0,0.002,0c0.004,0,0.008,0.001,0.01,0.001s0.002,0,0.004,0h0.002
			c0.002,0,0.004,0,0.006,0c0.098-0.009,0.221,0.06,0.314,0.085c1.475,0.402,2.902,0.319,4.244-0.244
			c0.133-0.073,0.309-0.17,0.443-0.245c0,0,0.002-0.001,0.004-0.002l0,0l0.002-0.001l0.006-0.01l13.451-12.405
			c0-0.002,0.006-0.009,0.006-0.012l0.008,0.006c0.125-0.083,0.291-0.195,0.416-0.279C108.367,56.944,108.867,55.652,108.727,53.832
			z"/>
		<path fill="#57B8C8" d="M108.627,53.156c-0.033-0.224-0.076-0.457-0.135-0.7c-0.018-0.064-0.033-0.136-0.051-0.198
			c-0.002-0.011-0.006-0.024-0.008-0.035c-0.012-0.04-0.021-0.077-0.033-0.117c-0.006-0.018-0.012-0.031-0.016-0.049
			c-0.092-0.297-0.186-0.553-0.275-0.785l-6.93-6.06l0,0c-0.025-0.006-0.049-0.015-0.076-0.021l-0.131-0.03
			c-0.012-0.002-0.025-0.004-0.035-0.006c-0.004,0-0.008-0.001-0.01-0.002c-0.258-0.056-0.521-0.106-0.801-0.144
			c-0.027-0.003-0.059-0.006-0.09-0.009c-0.166-0.021-0.332-0.025-0.498-0.038c-2.34-0.04-3.424,0.706-4.316,1.842l-0.002,0.006
			L81.762,59.223c0.022,0.003,0.045,0.006,0.068,0.009c-0.026-0.004-0.049,0-0.074-0.004c-0.08,0.13-0.185,0.301-0.264,0.428
			c-2.729,6.158,5.816,11.291,7.352,11.165c0.002,0,0.006,0,0.01,0c0.002-0.001,0.006,0,0.008-0.001c0.002,0,0.006,0.001,0.01,0
			h0.002c0.002,0,0.004,0,0.004,0c0.002,0,0.002,0,0.002,0c0.045-0.006,0.102,0.023,0.146,0.033
			c1.848,0.407,3.016-0.024,3.645-0.256c0.137-0.072,0.312-0.297,0.453-0.244c0.002,0,0.002,0,0.004,0l-0.006-0.059
			c0.004,0.017,0.008,0.034,0.012,0.051c0,0.001,0.002,0.003,0.002,0.005v0.001l13.461-12.413l0.004-0.002
			c0.127-0.084,0.295-0.195,0.422-0.279C107.543,57.211,109.025,55.932,108.627,53.156z"/>
		<path fill="#5EBBCB" d="M108.162,51.44c-0.02-0.057-0.031-0.111-0.053-0.168c-0.043-0.114-0.09-0.234-0.129-0.333
			c-0.004-0.012-0.01-0.021-0.016-0.033c-0.006-0.011-0.012-0.021-0.016-0.033c-0.043-0.095-0.088-0.181-0.133-0.272l-5.768-5.134
			c-0.029-0.01-0.055-0.021-0.084-0.031l-0.15-0.049c-0.031-0.01-0.068-0.018-0.102-0.028c-0.17-0.052-0.348-0.102-0.529-0.146
			c-0.002,0-0.002,0-0.002,0h-0.002v0c-2.592-0.524-4.311-0.016-5.562,1.652c-0.004-0.001,0.01,0.02,0.01,0.025l-0.018-0.017
			L82.152,59.281c0.001,0,0.002,0,0.002,0l-0.005,0.009c-0.001,0-0.001,0-0.001,0v0.001l0,0c-0.001,0.001-0.002,0.002-0.002,0.003
			s-0.001,0.002-0.002,0.003l0,0c0,0.001,0,0.001,0,0.001c-0.017,0.026-0.035,0.057-0.05,0.081
			c-3.263,5.823,5.866,11.27,7.413,11.062c0.004,0,0.008,0,0.012,0c0.004-0.001,0.012-0.001,0.016-0.002s0.01,0,0.014-0.001h0.002
			c1.051-0.227,2.162,0.118,3.188-0.348c0.086-0.042,0.201-0.175,0.291-0.148h0.002l0,0h0.01l13.455-12.407l0.018,0.028
			c-0.002-0.013-0.004-0.025-0.008-0.038c0.129-0.081,0.301-0.189,0.43-0.27C108.604,55.894,109.008,53.935,108.162,51.44z"/>
		<path fill="#64BECE" d="M108.092,51.292c-0.154-0.628-0.52-1.231-0.863-1.764l-0.031-0.048c-0.031-0.047-0.062-0.088-0.092-0.134
			c0,0-2.686-2.688-2.68-2.685c0.023,0.015,0.047,0.025,0.07,0.041c-0.141-0.098-0.303-0.203-0.488-0.316
			c-0.041-0.024-0.074-0.046-0.115-0.071c-0.254-0.15-0.557-0.305-0.895-0.462c-0.111-0.051-0.213-0.103-0.33-0.153
			c-0.023-0.009-0.043-0.018-0.066-0.027c-0.115-0.047-0.242-0.089-0.363-0.134c-0.02-0.007-0.037-0.013-0.055-0.02
			c-0.045-0.017-0.088-0.034-0.135-0.05c-0.057-0.019-0.115-0.036-0.174-0.054c-1.875-0.57-4.256-0.668-5.867,1.532
			c0,0-13.463,12.416-13.44,12.421c0,0-0.032,0.011-0.033,0.014c-0.071,0.134-0.161,0.306-0.229,0.436
			c-2.257,6.017,6.229,10.55,7.92,10.204c0.725-0.199,1.492-0.059,2.215-0.273c0.143-0.062,0.334-0.267,0.488-0.215
			c0,0,13.457-12.41,13.465-12.416c0.131-0.08,0.307-0.187,0.438-0.268c0.295-0.182,0.58-0.528,0.799-0.795
			c0.229-0.279,0.414-0.589,0.551-0.922c0.295-0.71,0.365-1.48,0.268-2.239c-0.068-0.529-0.18-1.086-0.346-1.593
			c0.01,0.07,0.027,0.139,0.033,0.209C108.123,51.436,108.109,51.364,108.092,51.292z"/>
		<path fill="#6AC1D0" d="M108.16,51.66c-0.004-0.03-0.012-0.059-0.016-0.089c0.002,0.019,0,0.04,0.002,0.059
			c0,0.015-0.002,0.031,0,0.045c-0.002-0.025-0.002-0.051-0.006-0.077c-0.004-0.013-0.008-0.026-0.012-0.039
			c-0.025-0.089-0.053-0.183-0.076-0.261c-0.129-0.348-0.303-0.804-0.582-1.329c-0.105-0.199-0.223-0.405-0.365-0.624
			c-0.029-0.042-0.059-0.083-0.088-0.125c-0.08-0.121-0.166-0.242-0.26-0.368c-0.035-0.045-0.068-0.084-0.104-0.128
			c-0.08-0.103-0.166-0.207-0.256-0.312c-0.113-0.12-0.225-0.241-0.332-0.363c-0.082-0.084-0.156-0.168-0.242-0.254l-0.141-0.107
			c0.377,0.37-3.139-1.984-3.139-1.984c-2.561-0.989-4.891-0.547-6.145,1.34c-0.002-0.001-0.006-0.001-0.008-0.002l0.029,0.017
			c0.004,0.001,0.008,0.003,0.014,0.004l0.002,0.001c-0.004-0.001-0.01-0.003-0.014-0.004c-0.01-0.003-0.02-0.006-0.031-0.009
			l-13.455,12.41c0.014,0.004,0.027,0.009,0.041,0.013c0.002,0.001,0.005,0.002,0.008,0.002c-0.004,0.001-0.014,0.005-0.016,0.004
			c-0.002,0-0.004-0.001-0.007-0.002c-0.01-0.003-0.021-0.006-0.03-0.009v0.001l0,0c-0.066,0.14-0.153,0.322-0.219,0.46
			c-2.038,6.116,6.506,10.061,8.146,9.628c0.006-0.001,0.01-0.002,0.016-0.003c0.008-0.002,0.018-0.003,0.025-0.006
			c0.004-0.001,0.008-0.001,0.01-0.002c0.57-0.195,1.191-0.16,1.758-0.377c0.033-0.015,0.076-0.055,0.113-0.05
			c-0.002-0.002,0.004-0.014,0.006-0.018c0,0.005,0.004,0.01,0.004,0.015l13.459-12.412l0.006-0.006
			c0.135-0.078,0.312-0.182,0.445-0.26C107.648,55.726,108.83,54.454,108.16,51.66z"/>
		<path fill="#71C4D3" d="M108.152,52.172c0.004-0.027-0.002-0.051,0-0.078c-0.002,0.011-0.004,0.021-0.004,0.032l-0.002,0.003
			c-0.002-0.011-0.002-0.022-0.004-0.032c0-0.001,0-0.003,0-0.004c-0.217-1.034-0.643-1.967-1.182-2.806l-0.043-0.063
			c-0.365-0.558-0.771-1.081-1.234-1.534c-0.229-0.22-0.461-0.419-0.695-0.606c-0.062-0.051-0.121-0.113-0.186-0.162
			c-0.039-0.03-0.07-0.053-0.117-0.087c-0.082-0.06-0.168-0.11-0.252-0.167c-0.004-0.002-0.01-0.005-0.014-0.008
			c-0.361-0.234-0.725-0.448-1.082-0.626c-0.014-0.006-0.025-0.013-0.037-0.018c-0.256-0.125-0.506-0.213-0.756-0.31
			c-2.182-0.768-4.447-0.442-5.742,1.463l-0.002,0l0.002,0L83.339,59.585c0,0,0,0,0.001,0c0,0.001,0.002,0.001,0.003,0.002
			l-0.009,0.011c0,0.001-0.001,0.002-0.001,0.003h-0.001c-0.061,0.143-0.141,0.327-0.201,0.468
			c-1.792,5.621,6.275,9.882,8.461,8.939l0.039-0.015c0.004-0.002,0.01-0.003,0.014-0.005c0.275-0.134,0.695-0.413,0.979-0.299
			c-0.004-0.007,0.004-0.017,0.002-0.024c0.004,0.009,0.008,0.019,0.012,0.027l13.455-12.408l0.01-0.01
			c0.137-0.075,0.318-0.174,0.455-0.249C107.646,55.235,108.334,54.277,108.152,52.172z"/>
		<path fill="#77C8D5" d="M108.004,52.83c0-0.005-0.002-0.011-0.002-0.017c0.23-5.005-7.062-9.537-10.199-6.304
			c-0.25,0.258-0.371,0.452-0.59,0.805c-0.006-0.002-0.012-0.003-0.018-0.005c0-0.001-0.002-0.001-0.004-0.001l-0.016,0.001
			c0.002,0.001,0.006,0.002,0.008,0.003c0.008,0.002,0.016,0.005,0.021,0.008L83.748,59.73h0.001
			c0.003,0.001,0.002,0.017,0.004,0.021c-0.003-0.002-0.007-0.003-0.011-0.004c-0.054,0.149-0.123,0.341-0.177,0.487
			c-1.085,4.501,4.315,9.373,8.89,8.021l0,0h0.002l13.463-12.417c0.012-0.005,0.025-0.011,0.039-0.017
			c-0.012,0.011-0.021,0.021-0.031,0.032c0.012-0.011,0.023-0.022,0.035-0.034c1.527-1.076,1.846-1.3,2.041-2.95
			c0.02-0.061,0.027-0.119,0.043-0.18C108.035,52.736,108.018,52.783,108.004,52.83z"/>
		<path fill="#7ECBD8" d="M102.256,45.817c-3.125-0.752-4.168,0.945-4.613,1.67c-0.01-0.004-0.02-0.007-0.029-0.011
			c0.008,0.003,0.016,0.008,0.023,0.011L84.174,59.902c0.002,0.001,0.003,0.001,0.004,0.002h0.001l-0.002,0.006
			c0,0.001-0.001,0.001-0.001,0.001c0,0.002,0,0.004-0.001,0.005c-0.048,0.146-0.11,0.336-0.157,0.479
			c-0.689,4.215,3.984,8.424,8.207,7.402c0,0,0.002,0,0.002-0.001c0.002,0,0.002,0,0.002,0c0.002-0.001,0.004-0.001,0.006-0.001l0,0
			c-0.002-0.006-0.006-0.012-0.008-0.018c0.006,0.006,0.016,0.008,0.02,0.016l0,0c0,0.001,0,0.003,0.002,0.004l13.457-12.412
			l0.004-0.009c0.145-0.068,0.336-0.159,0.48-0.227C110.115,52.671,106.289,46.788,102.256,45.817z"/>
		<path fill="#84CEDB" d="M102.826,46.137c-3.301-1.038-4.379,0.914-4.732,1.556c-0.033-0.017-0.035-0.009-0.006,0.004
			L84.627,60.108c0.002,0,0.002,0.001,0.003,0.001l-0.002,0.009c-0.001,0.002-0.001,0.005-0.002,0.007
			c-0.039,0.164-0.089,0.376-0.128,0.537c-0.429,3.041,2.893,7.404,7.488,6.665l0.021-0.003l13.463-12.414
			c0.002,0.004,0.004,0.008,0.006,0.012l-0.004-0.015c0.115-0.051,0.27-0.12,0.387-0.171
			C109.383,52.998,106.805,47.388,102.826,46.137z"/>
		<path fill="#8AD1DD" d="M102.678,46.273c-2.814-0.765-3.756,0.996-4.109,1.659c-0.004-0.002-0.008-0.004-0.014-0.006
			c-0.029-0.016-0.004,0.003,0.016,0.014L85.11,60.353c0.007,0.004,0.013,0.008,0.021,0.012c0.015,0.008,0.027,0.026-0.028-0.004
			c-0.007,0.029-0.015,0.063-0.021,0.09c-0.458,3.869,3.35,6.867,6.639,6.376c-0.004-0.008-0.01-0.016-0.014-0.023
			c-0.016-0.028-0.002-0.023,0.025,0.022l0,0c0,0.001,0.002,0.002,0.002,0.003l13.459-12.413c0.018,0.029,0.014,0.011,0.004-0.007
			c0.15-0.066,0.35-0.153,0.5-0.219C109.172,52.236,106.111,47.207,102.678,46.273z"/>
		<path fill="#91D4E0" d="M103.242,46.691c-2.977-1.046-3.816,0.835-4.133,1.544c-0.01-0.005-0.02-0.009-0.027-0.015
			c0.006,0.004,0.014,0.007,0.02,0.011L85.638,60.648c0.001,0.001,0.002,0.001,0.003,0.002s0.002,0.001,0.004,0.002
			c0.012,0.007,0.023,0.016,0.035,0.022c0.003,0.002,0.049,0.044-0.037-0.007c-0.014,0.134-0.031,0.307-0.045,0.438
			c0.104,2.594,2.449,5.284,5.781,5.17c-0.031-0.05-0.012-0.051,0.021,0l0,0c0.002,0.002,0.002,0.005,0.004,0.008
			s0.006,0.007,0.008,0.011l13.459-12.413c0.025,0.041,0.02,0.017-0.006-0.022c0.158-0.057,0.369-0.133,0.527-0.19
			C108.535,52.167,106.191,47.729,103.242,46.691z"/>
		<path fill="#97D8E3" d="M103.316,47.02c-1.828-0.669-3.037-0.132-3.6,1.596c-0.023-0.016,0.016,0.015-0.014-0.004L86.242,61.024
			c0.002,0.002,0.006,0.004,0.008,0.006c0.002,0.001,0.002,0.001,0.004,0.002c0.02,0.014,0.02,0.018,0,0.004
			c0,0.001,0,0.002,0,0.002c0,0.001,0,0.002,0,0.004c0.008,0.184,0.018,0.423,0.023,0.604c0.309,1.35,1.33,3.663,4.703,4.019
			c0.004,0.001,0.004,0.001,0.008,0.002c0,0,0.002,0,0.004,0c-0.061-0.086,0.002,0.001,0.002,0.001l0,0
			c0.002,0.002,0.004,0.005,0.004,0.007c0.004,0.004,0.006,0.007,0.008,0.011l13.463-12.414c-0.064-0.092-0.062-0.093,0.002-0.001
			c-0.004-0.006-0.008-0.013-0.012-0.019c0.152-0.037,0.355-0.087,0.508-0.125C108.178,51.678,105.814,47.935,103.316,47.02z"/>
		<path fill="#9EDBE5" d="M104.143,47.809c-0.033-0.02-3.186-1.918-3.672,1.333c-0.053-0.04-0.031-0.019-0.014-0.005L86.996,61.552
			C86.998,61.553,87,61.555,87,61.556c0.002,0.002,0.004,0.003,0.006,0.004v0.001c0.016,0.011,0.016,0.016,0.002,0.005
			c0,0.001,0,0.003,0,0.004c0.033,0.151,0.076,0.35,0.107,0.499c0.764,1.661,1.568,2.354,3.314,2.846c0,0,0.002,0,0.004,0.001
			c-0.01-0.013-0.01-0.016,0.004,0.001l0.002,0.001c0.004,0.005,0.008,0.011,0.012,0.016l13.463-12.415
			c0.012,0.015,0.006,0.003-0.01-0.018c0.127-0.009,0.297-0.022,0.426-0.032C107.133,51.798,105.908,48.896,104.143,47.809z"/>
		<path fill="#A4DEE8" d="M102.801,51.222c-0.309-0.328-0.631-0.641-0.961-0.942c-0.037-0.033-0.074-0.065-0.109-0.098L88.27,62.595
			c0.006,0.004,0.008,0.008,0.014,0.012c0.006,0.006,0.012,0.01,0.018,0.016c0.002,0.003,0.004,0.006,0.006,0.009
			c0.023,0.021,0.045,0.046,0.068,0.067c0.326,0.298,0.646,0.606,0.953,0.93c0.01,0.013,0.023,0.023,0.035,0.035l13.461-12.415
			C102.816,51.24,102.811,51.23,102.801,51.222z"/>
	</g>
	<g>
		<path fill="#2AA1B6" d="M70.269,68.113c-0.197,0.135-0.395,0.273-0.572,0.4c-0.223,0.175-0.455,0.377-0.809,0.688L55.425,81.618
			c-0.61,0.604-0.715,0.741-1.299,1.506l-0.425,0.658c-0.238,0.411-0.329,0.583-0.492,0.957c-0.028,0.063-0.059,0.136-0.092,0.214
			c-0.048,0.112-0.1,0.236-0.165,0.39l-0.016,0.048l-0.223,0.666c-0.105,0.408-0.224,0.958-0.299,1.372l-0.078,0.712
			c-0.017,0.324-0.021,0.754-0.02,1.082c0,0.005,0,0.012,0,0.017l0.021,0.303l0.023,0.322l0.003,0.043
			c0.03,0.257,0.085,0.598,0.126,0.852l0.136,0.604c0.082,0.292,0.205,0.677,0.301,0.964l0.209,0.521
			c0.067,0.155,0.167,0.358,0.239,0.512l0.155,0.289l0.082,0.154c0.01,0.018,0.024,0.04,0.035,0.06
			c0.068,0.117,0.15,0.25,0.214,0.356l0.254,0.382c0.077,0.108,0.183,0.249,0.261,0.356l0.27,0.336
			c0.057,0.113,0.195,0.223,0.278,0.317l0.289,0.304c0.09,0.09,0.213,0.205,0.304,0.293l0.317,0.281
			c0.101,0.086,0.239,0.194,0.342,0.277l0.354,0.263c0.118,0.084,0.28,0.188,0.4,0.27l0.404,0.245
			c0.145,0.083,0.344,0.186,0.491,0.264l0.472,0.223c0.002,0.001,0.005,0.002,0.007,0.003c0.188,0.081,0.441,0.176,0.63,0.25
			l0.558,0.182c0.259,0.072,0.608,0.152,0.869,0.213l0.654,0.107l0.39,0.044l0.7,0.039c0.382-0.002,0.892-0.026,1.274-0.053
			l0.729-0.105c0.301-0.061,0.677-0.155,0.996-0.239c0.045-0.012,0.098-0.024,0.141-0.036l0.069-0.024l0.315-0.11l0.337-0.117
			c0.313-0.13,0.722-0.326,1.028-0.474l0.678-0.396c0.285-0.188,0.648-0.459,0.921-0.662c0.183-0.16,0.425-0.373,0.606-0.532
			l13.464-12.417c0.191-0.19,0.447-0.449,0.729-0.775c0.012-0.015,0.021-0.024,0.035-0.04c0.133-0.164,0.291-0.371,0.533-0.688
			l0.102-0.157c0.131-0.195,0.264-0.399,0.396-0.631l0.076-0.136c0.043-0.078,0.082-0.154,0.123-0.232l0.146-0.305l0.062-0.128
			l0.051-0.107l0.006-0.011c0.004-0.008,0.008-0.017,0.012-0.025L70.269,68.113z"/>
		<path fill="#31A4B8" d="M85.412,79.12c-0.004,0.012-0.008,0.023-0.012,0.035L71.603,67.369c0-0.001,0.002-0.001,0.002-0.002
			c0.01-0.005,0.016-0.009,0.025-0.014c-0.127,0.059-0.256,0.119-0.367,0.17c-0.133,0.07-0.238,0.126-0.334,0.179
			c-0.006,0.003-0.01,0.006-0.016,0.009c-0.197,0.118-0.361,0.218-0.504,0.308c-0.047,0.031-0.092,0.061-0.141,0.093
			c-0.045,0.035-0.08,0.063-0.117,0.091c-0.252,0.197-0.303,0.247-0.533,0.484c-0.008,0.004-0.014,0.012-0.023,0.017
			c-0.006,0.003-0.01,0.008-0.016,0.011c0.004-0.001,0.008-0.002,0.012-0.004L56.146,81.11c0.003-0.001,0.006-0.002,0.009-0.004
			c0.003-0.002,0.008-0.002,0.011-0.004l0,0.017c-0.011,0.006-0.024,0.01-0.036,0.016c-0.001,0.001-0.002,0.002-0.002,0.003
			c-0.106,0.115-0.236,0.256-0.338,0.365c-3.964,5.515,3.884,12.538,4.976,12.788c0.001,0,0.002,0.001,0.003,0.001
			s0.002,0,0.003,0.001h0.001c0.001,0,0.003,0.001,0.004,0.001s0.002,0.001,0.003,0.001h0.001l0,0.001c0,0,0.001,0,0.001,0
			c0.001,0,0.002,0.001,0.002,0.001c0.001,0,0.003,0.001,0.003,0.001c0.001,0,0.003,0,0.003,0.001c0,0,0.001,0,0.001,0
			c0.76,0.114,1.294,0.69,1.974,0.968c1.305,0.533,2.377,0.622,3.322,0.701c0.792,0.065,2.051-0.043,3.548-0.935
			c0.118-0.092,0.271-0.211,0.394-0.306l0,0c0.001-0.001,0.002-0.001,0.002-0.001c0.002-0.001,0.004-0.003,0.004-0.004
			c0,0,0.002,0,0.002-0.001c0.001-0.001,0.002-0.002,0.004-0.003l0,0c0.002-0.001,0.004-0.003,0.004-0.004c0.001,0,0.001,0,0.001,0
			c0.001-0.001,0.001-0.001,0.001-0.001c0.001-0.001,0.003-0.002,0.004-0.003c0-0.001,0-0.001,0.001-0.002
			c-0.001,0.001-0.001,0.001-0.001,0.002c0.001,0,0.002-0.001,0.002-0.001l13.439-12.394l0.029-0.041
			c-0.002,0.006-0.004,0.012-0.006,0.019c0-0.001,0-0.001,0-0.001c0.107-0.084,0.256-0.188,0.355-0.28
			c0.516-0.476,0.814-1.046,1.021-1.461c0.061-0.143,0.135-0.317,0.232-0.545c0.01-0.03,0.02-0.057,0.029-0.086
			c0.078-0.229,0.168-0.499,0.238-0.738c0.004-0.012,0.01-0.026,0.012-0.038c0.008-0.026,0.02-0.057,0.025-0.081
			C85.424,79.083,85.418,79.1,85.412,79.12z"/>
		<path fill="#37A8BB" d="M85.623,78.142L72.539,66.997c0.002-0.001,0.004-0.002,0.006-0.003c-0.166,0.058-0.322,0.115-0.471,0.169
			c-0.031,0.011-0.068,0.024-0.098,0.035c0,0,0,0,0,0c-0.008,0.003-0.014,0.006-0.021,0.009l-0.242,0.111l-0.109,0.051
			c-0.58,0.31-0.877,0.479-1.465,1.11c-0.002,0-0.002,0.001-0.004,0.002c-0.004,0.001-0.008,0.004-0.012,0.005l-0.014,0.022
			L56.677,80.896l0.034-0.006c-0.013,0.004-0.026,0.006-0.039,0.01c-0.003,0.004-0.007,0.009-0.011,0.013l-0.001,0.001
			c-0.001,0.002-0.003,0.004-0.004,0.006c-0.001,0.001-0.002,0.003-0.003,0.004c-0.101,0.115-0.225,0.259-0.321,0.369
			c-3.78,5.71,4.426,12.483,5.578,12.687c0.002,0,0.006,0.001,0.009,0.002c0.002,0,0.005,0.001,0.007,0.002c0.001,0,0.002,0,0.003,0
			l0.001,0.001c0,0,0.001,0,0.001,0h0c0,0,0.001,0.001,0.001,0.001c0,0,0,0,0.001,0h0c0.001,0,0.004,0.001,0.005,0.001
			c0.001,0,0.002,0.001,0.003,0.001c0.173,0.014,0.365,0.173,0.519,0.253c1.167,0.604,2.589,0.941,4.226,1.001
			c0.074,0.002,1.847,0.054,3.278-0.965c0.06-0.044,0.135-0.1,0.198-0.146c0.004-0.003,0.008-0.006,0.011-0.009
			c0,0,0.001,0,0.001-0.001l0.019-0.045c-0.001,0.012-0.002,0.023-0.003,0.034c0,0.001-0.001,0.001-0.001,0.002
			c0,0.002-0.001,0.003-0.001,0.005l13.451-12.403c0,0.002-0.002,0.004-0.002,0.007l0.018-0.027c0.111-0.085,0.27-0.189,0.375-0.282
			c0.674-0.685,1.021-1.165,1.369-2.255c0.004-0.012,0.008-0.023,0.012-0.035l0.123-0.482l0.037-0.199
			c0.025-0.128,0.047-0.256,0.068-0.384C85.635,78.084,85.629,78.112,85.623,78.142z"/>
		<path fill="#3EABBE" d="M85.758,76.965c-0.002,0.004-0.002,0.007-0.002,0.011L73.867,66.637c-0.025,0.005-0.049,0.006-0.074,0.011
			l-0.012,0.002l-0.127,0.031c-0.273,0.06-0.543,0.132-0.812,0.215c-0.102,0.033-0.197,0.064-0.303,0.101
			c-0.965,0.42-1.332,0.678-1.949,1.372l-0.025,0.025L57.127,80.785l-0.011,0.013c-0.002,0.003-0.006,0.007-0.008,0.011
			l-0.001,0.001c0,0,0,0,0,0.001c-0.051,0.062-0.111,0.134-0.158,0.19c-1.91,2.446-0.611,5.734-0.167,6.684
			c2.002,4.284,5.816,5.896,6.067,5.986c0.002,0.001,0.004,0.002,0.006,0.002l0.002,0.001c0,0,0.004,0.001,0.004,0.002h0.002
			l0.002,0.001l0.002,0.001h0.002l0.004,0.002c0.621,0.024,1.1,0.437,1.666,0.612c0.939,0.29,1.982,0.33,2.098,0.334
			c1.646,0.053,2.568-0.415,3.18-0.725c0.123-0.082,0.283-0.189,0.41-0.274l0.02-0.032c0,0.006,0,0.012,0,0.017l13.46-12.414
			c-0.002,0.008-0.002,0.014-0.004,0.02l0.008-0.021c0.115-0.087,0.277-0.193,0.389-0.287c0.434-0.425,1.219-1.209,1.525-2.768
			c0.008-0.04,0.016-0.083,0.023-0.122c0.031-0.199,0.057-0.403,0.076-0.608c0.014-0.129,0.021-0.248,0.031-0.369
			c0-0.004,0-0.008,0.002-0.012c0-0.01,0-0.02,0.002-0.03c0-0.017,0-0.035,0.002-0.052C85.758,76.954,85.758,76.959,85.758,76.965z"
			/>
		<path fill="#44AEC0" d="M85.771,76.35l-0.002-0.106c0,0,0-0.001,0-0.002c0,0,0-0.001,0-0.002l-0.002-0.047l-0.014-0.114
			L74.679,66.52c-0.059,0.007-0.111,0.014-0.172,0.021c-0.213,0.027-0.426,0.054-0.637,0.094c-0.002,0-0.004,0.001-0.004,0.001
			c-1.354,0.333-2.055,0.744-2.867,1.675l-0.01,0.017l-0.006,0.003L57.542,80.729l-0.016,0.017h0c0,0.001-0.001,0.002-0.002,0.003
			c-0.091,0.12-0.205,0.271-0.292,0.387c-3.375,6.124,5.291,12.147,6.436,12.227c0.001,0,0.002,0,0.003,0
			c0.004,0,0.008,0.002,0.011,0.002h0.001l0,0c0.002,0,0.002,0,0.002,0c0.002,0,0.003,0.001,0.004,0.001l0,0
			c0.003,0,0.008,0.001,0.01,0.001c0.194-0.004,0.428,0.152,0.609,0.222c1.055,0.402,3.174,0.918,5.51-0.153
			c0.125-0.08,0.287-0.184,0.415-0.266l0.022-0.018l13.449-12.404l0.014,0.007c0-0.005,0.002-0.011,0.002-0.016c0,0,0,0,0,0
			c0.119-0.087,0.285-0.196,0.398-0.29c0.561-0.532,1.484-1.424,1.641-3.473c0-0.004,0-0.007,0.002-0.011
			c0-0.006,0-0.011,0.002-0.016c0-0.025,0-0.052,0.002-0.078c0.006-0.154,0.014-0.307,0.012-0.47L85.771,76.35z"/>
		<path fill="#4AB1C3" d="M85.723,75.413c-0.014-0.147-0.041-0.273-0.061-0.412l-10.086-8.536c-0.215,0.003-0.43,0.005-0.641,0.022
			c-0.08,0.008-0.17,0.021-0.256,0.032c-1.527,0.25-2.367,0.704-3.273,1.771l-0.014,0.013l-13.45,12.404l-0.014,0.019
			c-0.088,0.123-0.199,0.278-0.285,0.396c-3.167,6.003,5.206,11.921,6.771,11.919c0.004,0,0.008,0.001,0.01,0
			c0.001,0,0.002,0.001,0.002,0.001c0.002,0,0.003,0,0.004,0h0.002c0,0,0.002,0,0.004,0h0.002c0.002,0,0.005,0.001,0.007,0.001
			c0.001,0,0.003,0,0.005,0c0.158-0.009,0.354,0.113,0.504,0.162c1.664,0.532,3.287,0.458,4.827-0.221
			c0.13-0.08,0.303-0.186,0.436-0.266c0.001-0.001,0.001-0.001,0.001-0.001c0.001-0.001,0.002-0.001,0.002-0.001
			c0.001-0.001,0.002-0.001,0.002-0.002v-0.001c0-0.001,0.004-0.01,0.004-0.014c0.001,0.004,0.002,0.008,0.002,0.012v0.001
			l13.464-12.416c0,0,0-0.001,0-0.001c0.092-0.065,0.215-0.15,0.307-0.215c0.674-0.485,1.768-1.651,1.756-4.003
			c0-0.027,0.002-0.052,0.002-0.079C85.748,75.809,85.744,75.625,85.723,75.413z"/>
		<path fill="#51B4C6" d="M85.695,75.363c-0.01-0.119-0.02-0.238-0.033-0.361c-0.02-0.131-0.035-0.267-0.059-0.391
			c-0.002-0.006-0.002-0.012-0.002-0.018c-0.004-0.016-0.008-0.036-0.01-0.051c-0.014-0.072-0.027-0.133-0.043-0.197
			c-0.008-0.039-0.018-0.073-0.027-0.112c0-0.002,0-0.004-0.002-0.006c-0.02-0.082-0.039-0.161-0.059-0.239l-8.954-7.493
			c-0.051-0.004-0.102-0.009-0.154-0.012c-0.189-0.011-0.371-0.019-0.543-0.025c-0.078,0-0.156,0.007-0.234,0.008
			c-1.756,0.132-2.824,0.65-3.775,1.835l-0.016,0.02c-0.002,0-0.004,0.001-0.006,0.001l-13.44,12.396l-0.015,0.02
			c0,0,0,0.001-0.001,0.001c-0.069,0.104-0.156,0.234-0.222,0.335c-3.031,5.937,5.446,11.689,7.025,11.631c0.002,0,0.005,0,0.008,0
			c0.002,0,0.004,0.001,0.006,0c0.001,0,0.002,0,0.002,0c0.004,0,0.008,0.001,0.01,0.001s0.002,0,0.004,0h0.001
			c0.002,0,0.005,0,0.007,0c0.098-0.009,0.22,0.06,0.313,0.085c1.476,0.402,2.903,0.319,4.245-0.244
			c0.133-0.073,0.308-0.17,0.443-0.245c0,0,0.002-0.001,0.003-0.002h0.001L70.17,92.3l0.006-0.01l13.451-12.405
			c0-0.002,0.006-0.009,0.006-0.012l0.008,0.006c0.125-0.083,0.291-0.195,0.416-0.279C85.336,78.475,85.836,77.183,85.695,75.363z"
			/>
		<path fill="#57B8C8" d="M85.596,74.688c-0.033-0.224-0.076-0.457-0.135-0.7c-0.018-0.064-0.033-0.136-0.051-0.198
			c-0.002-0.011-0.006-0.024-0.008-0.035c-0.012-0.04-0.021-0.077-0.033-0.117c-0.006-0.018-0.012-0.031-0.016-0.049
			c-0.092-0.297-0.186-0.553-0.275-0.785l-6.93-6.06l0,0c-0.025-0.006-0.049-0.015-0.076-0.021l-0.131-0.03
			c-0.012-0.002-0.025-0.004-0.035-0.006c-0.004,0-0.008-0.001-0.01-0.002c-0.258-0.056-0.521-0.106-0.801-0.144
			c-0.027-0.003-0.059-0.006-0.09-0.009c-0.166-0.021-0.332-0.025-0.498-0.038c-2.34-0.04-3.424,0.706-4.316,1.842l-0.002,0.006
			L58.73,80.754c0.022,0.003,0.045,0.006,0.068,0.009c-0.026-0.004-0.048,0-0.074-0.004c-0.079,0.13-0.184,0.301-0.263,0.428
			c-2.73,6.158,5.816,11.291,7.352,11.165c0.002,0,0.006,0,0.009,0c0.003-0.001,0.006,0,0.009-0.001c0.002,0,0.006,0.001,0.01,0
			h0.002c0.002,0,0.003,0,0.004,0s0.002,0,0.002,0c0.045-0.006,0.102,0.023,0.146,0.033c1.849,0.407,3.017-0.024,3.646-0.256
			c0.136-0.072,0.312-0.297,0.453-0.244c0.002,0,0.002,0,0.003,0l-0.005-0.059c0.004,0.017,0.008,0.034,0.012,0.051
			c0,0.001,0.001,0.003,0.001,0.005l0.001,0.001l13.46-12.413l0.004-0.002c0.127-0.084,0.295-0.195,0.422-0.279
			C84.512,78.742,85.994,77.463,85.596,74.688z"/>
		<path fill="#5EBBCB" d="M85.131,72.971c-0.02-0.057-0.031-0.111-0.053-0.168c-0.043-0.114-0.09-0.234-0.129-0.333
			c-0.004-0.012-0.01-0.021-0.016-0.033c-0.006-0.011-0.012-0.021-0.016-0.033c-0.043-0.095-0.088-0.181-0.133-0.272l-5.768-5.134
			c-0.029-0.01-0.055-0.021-0.084-0.031l-0.15-0.049c-0.031-0.01-0.068-0.018-0.102-0.028c-0.17-0.052-0.348-0.102-0.529-0.146
			c-0.002,0-0.002,0-0.002,0h-0.002v0c-2.592-0.524-4.311-0.016-5.562,1.652c-0.004-0.001,0.01,0.02,0.01,0.025l-0.018-0.017
			L59.122,80.812c0,0,0.001,0,0.001,0l-0.005,0.009c0,0,0,0,0,0l0,0.001h0c0,0.001-0.001,0.002-0.001,0.003
			s-0.001,0.002-0.001,0.003h0c0,0.001,0,0.001,0,0.001c-0.016,0.026-0.035,0.057-0.049,0.081
			c-3.263,5.823,5.867,11.27,7.414,11.062c0.004,0,0.008,0,0.011,0c0.005-0.001,0.013-0.001,0.017-0.002s0.01,0,0.014-0.001h0.002
			c1.051-0.227,2.162,0.118,3.188-0.348c0.086-0.042,0.2-0.175,0.291-0.148H70H70h0.01l13.455-12.407l0.018,0.028
			c-0.002-0.013-0.004-0.025-0.008-0.038c0.129-0.081,0.301-0.189,0.43-0.27C85.572,77.425,85.977,75.466,85.131,72.971z"/>
		<path fill="#64BECE" d="M85.061,72.823c-0.154-0.628-0.52-1.231-0.863-1.764l-0.031-0.048c-0.031-0.047-0.062-0.088-0.092-0.134
			c0,0-2.686-2.688-2.68-2.685c0.023,0.015,0.047,0.025,0.07,0.041c-0.141-0.098-0.303-0.203-0.489-0.316
			c-0.041-0.024-0.074-0.046-0.115-0.071c-0.254-0.15-0.557-0.305-0.895-0.462c-0.111-0.051-0.213-0.103-0.33-0.153
			c-0.023-0.009-0.043-0.018-0.066-0.027c-0.115-0.047-0.242-0.089-0.363-0.134c-0.02-0.007-0.037-0.013-0.055-0.02
			c-0.045-0.017-0.088-0.034-0.135-0.05c-0.057-0.019-0.115-0.036-0.174-0.054c-1.875-0.57-4.256-0.668-5.867,1.532
			c0,0-13.462,12.416-13.44,12.421c0,0-0.032,0.011-0.033,0.014c-0.071,0.134-0.161,0.306-0.229,0.436
			c-2.257,6.017,6.229,10.55,7.919,10.204c0.726-0.199,1.492-0.059,2.216-0.273c0.143-0.062,0.333-0.267,0.488-0.215
			c0,0,13.457-12.41,13.464-12.416c0.131-0.08,0.307-0.187,0.438-0.268c0.295-0.182,0.58-0.528,0.799-0.795
			c0.229-0.279,0.414-0.589,0.551-0.922c0.295-0.71,0.365-1.48,0.268-2.239c-0.068-0.529-0.18-1.086-0.346-1.593
			c0.01,0.07,0.027,0.139,0.033,0.209C85.092,72.967,85.078,72.895,85.061,72.823z"/>
		<path fill="#6AC1D0" d="M85.129,73.191c-0.004-0.03-0.012-0.059-0.016-0.089c0.002,0.019,0,0.04,0.002,0.059
			c0,0.015-0.002,0.031,0,0.045c-0.002-0.025-0.002-0.051-0.006-0.077c-0.004-0.013-0.008-0.026-0.012-0.039
			c-0.025-0.089-0.053-0.183-0.076-0.261c-0.129-0.348-0.303-0.804-0.582-1.329c-0.105-0.199-0.223-0.405-0.365-0.624
			c-0.029-0.042-0.059-0.083-0.088-0.125c-0.08-0.121-0.166-0.242-0.26-0.368c-0.035-0.045-0.068-0.084-0.104-0.128
			c-0.08-0.103-0.166-0.207-0.256-0.312c-0.113-0.12-0.225-0.241-0.332-0.363c-0.082-0.084-0.156-0.168-0.242-0.254l-0.141-0.107
			c0.377,0.37-3.139-1.984-3.139-1.984c-2.561-0.989-4.891-0.547-6.145,1.34c-0.002-0.001-0.006-0.001-0.008-0.002l0.029,0.017
			c0.004,0.001,0.008,0.003,0.014,0.004l0.002,0.001c-0.004-0.001-0.01-0.003-0.014-0.004c-0.01-0.003-0.02-0.006-0.031-0.009
			l-13.455,12.41c0.014,0.004,0.027,0.009,0.041,0.013c0.002,0.001,0.005,0.002,0.008,0.002c-0.003,0.001-0.013,0.005-0.015,0.004
			c-0.002,0-0.005-0.001-0.007-0.002c-0.01-0.003-0.02-0.006-0.03-0.009v0.001h0c-0.066,0.14-0.153,0.322-0.218,0.46
			c-2.038,6.116,6.506,10.061,8.147,9.628c0.005-0.001,0.01-0.002,0.015-0.003c0.009-0.002,0.019-0.003,0.026-0.006
			c0.003-0.001,0.007-0.001,0.01-0.002c0.57-0.195,1.191-0.16,1.758-0.377c0.033-0.015,0.076-0.055,0.112-0.05
			c-0.001-0.002,0.005-0.014,0.006-0.018c0.001,0.005,0.004,0.01,0.005,0.015l13.458-12.412l0.006-0.006
			c0.135-0.078,0.312-0.182,0.445-0.26C84.617,77.257,85.799,75.985,85.129,73.191z"/>
		<path fill="#71C4D3" d="M85.121,73.703c0.004-0.027-0.002-0.051,0-0.078c-0.002,0.011-0.004,0.021-0.004,0.032l-0.002,0.003
			c-0.002-0.011-0.002-0.022-0.004-0.032c0-0.001,0-0.003,0-0.004c-0.217-1.034-0.643-1.967-1.182-2.806l-0.043-0.063
			c-0.365-0.558-0.771-1.081-1.234-1.534c-0.229-0.22-0.461-0.419-0.695-0.606c-0.062-0.051-0.121-0.113-0.186-0.162
			c-0.039-0.03-0.07-0.053-0.117-0.087c-0.082-0.06-0.168-0.11-0.252-0.167c-0.004-0.002-0.01-0.005-0.014-0.008
			c-0.361-0.234-0.725-0.448-1.083-0.626c-0.014-0.006-0.025-0.013-0.037-0.018c-0.256-0.125-0.506-0.213-0.756-0.31
			c-2.182-0.768-4.447-0.442-5.742,1.463l-0.002,0l0.002,0L60.308,81.116c0,0,0,0,0,0c0.001,0.001,0.002,0.001,0.003,0.002
			l-0.009,0.011c0,0.001-0.001,0.002-0.001,0.003h0C60.24,81.274,60.16,81.459,60.1,81.6c-1.792,5.621,6.276,9.882,8.461,8.939
			l0.039-0.015c0.004-0.002,0.01-0.003,0.014-0.005c0.275-0.134,0.695-0.413,0.979-0.299c-0.004-0.007,0.004-0.017,0.002-0.024
			c0.004,0.009,0.008,0.019,0.012,0.027l13.455-12.408l0.01-0.01c0.137-0.075,0.318-0.174,0.455-0.249
			C84.615,76.767,85.303,75.809,85.121,73.703z"/>
		<path fill="#77C8D5" d="M84.973,74.361c0-0.005-0.002-0.011-0.002-0.017c0.23-5.005-7.063-9.537-10.2-6.304
			c-0.25,0.258-0.371,0.452-0.59,0.805c-0.006-0.002-0.012-0.003-0.018-0.005c0-0.001-0.002-0.001-0.004-0.001l-0.016,0.001
			c0.002,0.001,0.006,0.002,0.008,0.003c0.008,0.002,0.016,0.005,0.021,0.008L60.717,81.262h0c0.002,0.001,0.002,0.017,0.004,0.021
			c-0.003-0.002-0.007-0.003-0.01-0.004c-0.054,0.149-0.124,0.341-0.177,0.487c-1.084,4.501,4.316,9.373,8.89,8.021l0,0h0.002
			l13.462-12.417c0.012-0.005,0.025-0.011,0.039-0.017c-0.012,0.011-0.021,0.021-0.031,0.032c0.012-0.011,0.023-0.022,0.035-0.034
			c1.527-1.076,1.846-1.3,2.041-2.95c0.02-0.061,0.027-0.119,0.043-0.18C85.004,74.267,84.986,74.314,84.973,74.361z"/>
		<path fill="#7ECBD8" d="M79.224,67.349c-3.125-0.752-4.168,0.945-4.613,1.67c-0.01-0.004-0.02-0.007-0.029-0.011
			c0.008,0.003,0.016,0.008,0.023,0.011L61.143,81.434c0.001,0.001,0.002,0.001,0.004,0.002h0l-0.002,0.006c0,0.001,0,0.001,0,0.001
			c0,0.002-0.001,0.004-0.001,0.005c-0.048,0.146-0.11,0.336-0.158,0.479c-0.689,4.215,3.985,8.424,8.208,7.402
			c0,0,0.001,0,0.002-0.001c0.001,0,0.002,0,0.002,0c0.002-0.001,0.004-0.001,0.005-0.001s0.001,0,0.001,0
			c-0.002-0.006-0.006-0.012-0.008-0.018c0.006,0.006,0.015,0.008,0.019,0.016h0.001c0,0.001,0,0.003,0.002,0.004l13.457-12.412
			l0.004-0.009c0.145-0.068,0.336-0.159,0.48-0.227C87.084,74.203,83.258,68.319,79.224,67.349z"/>
		<path fill="#84CEDB" d="M79.794,67.668c-3.301-1.038-4.379,0.914-4.732,1.556c-0.033-0.017-0.035-0.009-0.006,0.004L61.596,81.64
			c0.001,0,0.001,0.001,0.002,0.001l-0.002,0.009c0,0.002-0.001,0.005-0.002,0.007c-0.039,0.164-0.089,0.376-0.128,0.537
			c-0.429,3.041,2.893,7.404,7.489,6.665l0.021-0.003l13.462-12.414c0.002,0.004,0.004,0.008,0.006,0.012l-0.004-0.015
			c0.115-0.051,0.27-0.12,0.387-0.171C86.352,74.529,83.773,68.919,79.794,67.668z"/>
		<path fill="#8AD1DD" d="M79.646,67.805c-2.814-0.765-3.756,0.996-4.109,1.659c-0.004-0.002-0.008-0.004-0.014-0.006
			c-0.029-0.016-0.004,0.003,0.016,0.014L62.079,81.884c0.007,0.004,0.013,0.008,0.02,0.012c0.015,0.008,0.027,0.026-0.028-0.004
			c-0.007,0.029-0.015,0.063-0.021,0.09c-0.458,3.869,3.35,6.867,6.64,6.376c-0.004-0.008-0.01-0.016-0.014-0.023
			c-0.017-0.028-0.002-0.023,0.025,0.022l0,0c0,0.001,0.001,0.002,0.002,0.003l13.458-12.413c0.018,0.029,0.014,0.011,0.004-0.007
			c0.15-0.066,0.35-0.153,0.5-0.219C86.141,73.768,83.08,68.738,79.646,67.805z"/>
		<path fill="#91D4E0" d="M80.21,68.223c-2.977-1.046-3.816,0.835-4.133,1.544c-0.01-0.005-0.02-0.009-0.027-0.015
			c0.006,0.004,0.014,0.007,0.02,0.011L62.606,82.18c0.001,0.001,0.002,0.001,0.003,0.002s0.002,0.001,0.004,0.002
			c0.012,0.007,0.024,0.016,0.036,0.022c0.002,0.002,0.049,0.044-0.037-0.007c-0.014,0.134-0.032,0.307-0.046,0.438
			c0.104,2.594,2.45,5.284,5.782,5.17c-0.032-0.05-0.012-0.051,0.021,0h0.001c0.001,0.002,0.002,0.005,0.004,0.008
			s0.005,0.007,0.008,0.011L81.84,75.414c0.025,0.041,0.02,0.017-0.006-0.022c0.158-0.057,0.369-0.133,0.527-0.19
			C85.504,73.699,83.16,69.26,80.21,68.223z"/>
		<path fill="#97D8E3" d="M80.285,68.551c-1.828-0.669-3.037-0.132-3.6,1.596c-0.023-0.016,0.016,0.015-0.014-0.004l-13.46,12.413
			c0.002,0.002,0.005,0.004,0.008,0.006c0.001,0.001,0.002,0.001,0.004,0.002c0.02,0.014,0.02,0.018,0,0.004
			c0,0.001,0,0.002,0,0.002c0,0.001,0,0.002,0,0.004c0.008,0.184,0.017,0.423,0.023,0.604c0.309,1.35,1.33,3.663,4.703,4.019
			c0.003,0.001,0.004,0.001,0.008,0.002c0,0,0.002,0,0.003,0c-0.06-0.086,0.002,0.001,0.002,0.001h0.001
			c0.002,0.002,0.003,0.005,0.004,0.007c0.003,0.004,0.006,0.007,0.008,0.011l13.462-12.414c-0.064-0.092-0.062-0.093,0.002-0.001
			c-0.004-0.006-0.008-0.013-0.012-0.019c0.152-0.037,0.355-0.087,0.508-0.125C85.146,73.209,82.783,69.466,80.285,68.551z"/>
		<path fill="#9EDBE5" d="M81.111,69.34c-0.033-0.02-3.186-1.918-3.672,1.333c-0.053-0.04-0.031-0.019-0.014-0.005l-13.46,12.414
			c0.002,0.001,0.003,0.003,0.004,0.004c0.002,0.002,0.004,0.003,0.006,0.004v0.001c0.016,0.011,0.016,0.016,0.002,0.005
			c0,0.001,0,0.003,0,0.004c0.033,0.151,0.075,0.35,0.107,0.499c0.763,1.661,1.568,2.354,3.314,2.846c0,0,0.002,0,0.003,0.001
			c-0.01-0.013-0.009-0.016,0.004,0.001c0.001,0,0.002,0.001,0.003,0.001c0.004,0.005,0.008,0.011,0.012,0.016l13.462-12.415
			c0.012,0.015,0.006,0.003-0.01-0.018C81,74.022,81.17,74.009,81.299,74C84.102,73.329,82.877,70.427,81.111,69.34z"/>
		<path fill="#A4DEE8" d="M79.769,72.753c-0.309-0.328-0.631-0.641-0.961-0.942c-0.037-0.033-0.074-0.065-0.109-0.098l-13.46,12.413
			c0.005,0.004,0.008,0.008,0.013,0.012c0.006,0.006,0.013,0.01,0.019,0.016c0.002,0.003,0.004,0.006,0.006,0.009
			c0.023,0.021,0.045,0.046,0.068,0.067c0.326,0.298,0.646,0.606,0.952,0.93c0.011,0.013,0.024,0.023,0.036,0.035l13.46-12.415
			C79.785,72.771,79.779,72.762,79.769,72.753z"/>
	</g>
</g>
<radialGradient id="SVGID_1_" cx="-38.3604" cy="601.416" r="20.999" gradientTransform="matrix(1.4286 0 0 0.1905 134.8018 5.4305)" gradientUnits="userSpaceOnUse">
	<stop  offset="0" style="stop-color:#000000;stop-opacity:0.25"/>
	<stop  offset="1" style="stop-color:#000000;stop-opacity:0"/>
</radialGradient>
<ellipse fill="url(#SVGID_1_)" cx="80" cy="120" rx="30" ry="4"/>
</svg>
