<?xml version="1.0" encoding="utf-8"?>
<!-- Generator: Adobe Illustrator 15.0.2, SVG Export Plug-In . SVG Version: 6.00 Build 0)  -->
<!DOCTYPE svg PUBLIC "-//W3C//DTD SVG 1.1//EN" "http://www.w3.org/Graphics/SVG/1.1/DTD/svg11.dtd">
<svg version="1.1" id="レイヤー_1" xmlns="http://www.w3.org/2000/svg" xmlns:xlink="http://www.w3.org/1999/xlink" x="0px"
	 y="0px" width="160px" height="160px" viewBox="-35 -35 160 160" enable-background="new -35 -35 160 160" xml:space="preserve">
<path fill="#249EB3" d="M8.512,70.525l-0.537,0.31C3.367,59.751,7.579,46.702,18.253,40.54c0.873-0.504,1.766-0.942,2.671-1.327
	c-0.12-0.976-0.185-1.969-0.185-2.979c0-12.325,9.194-22.497,21.097-24.049v0.62c-7.662,1.478-13.449,8.216-13.449,16.309
	c0,8.91,7.015,16.181,15.822,16.593v2.729c-2.244,0.377-3.956,2.324-3.956,4.676c0,0.582,0.11,1.139,0.302,1.652l-2.362,1.363
	c-4.762-7.42-14.565-9.859-22.282-5.404C8.903,54.77,5.961,63.15,8.512,70.525z M71.747,40.54c-0.873-0.504-1.767-0.944-2.671-1.329
	c0.119-0.976,0.186-1.968,0.186-2.977c0-12.325-9.193-22.497-21.096-24.049v0.62c7.66,1.478,13.447,8.216,13.447,16.309
	c0,8.91-7.014,16.181-15.822,16.593v2.729c2.244,0.377,3.956,2.324,3.956,4.676c0,0.582-0.11,1.139-0.302,1.652l2.363,1.364
	c4.76-7.421,14.562-9.86,22.279-5.405c7.01,4.045,9.951,12.428,7.4,19.803l0.535,0.311C86.633,59.751,82.421,46.702,71.747,40.54z
	 M57.477,79.499c-7.717-4.455-10.506-14.166-6.459-22l-2.358-1.36c-0.871,1.051-2.187,1.721-3.658,1.721
	c-1.472,0-2.787-0.67-3.658-1.721l-2.358,1.36c4.046,7.834,1.257,17.546-6.459,22c-7.009,4.046-15.738,2.403-20.849-3.493
	l-0.537,0.311c7.295,9.531,20.702,12.408,31.375,6.246c0.878-0.506,1.71-1.062,2.499-1.655c0.784,0.591,1.599,1.151,2.472,1.655
	c10.674,6.162,24.08,3.287,31.375-6.246l-0.536-0.311C73.214,81.902,64.484,83.545,57.477,79.499z M66.889,53.111
	c0-1.021-0.076-2.021-0.211-3.006c-0.291-0.018-0.585-0.028-0.878-0.028c-1.78,0-3.508,0.313-5.125,0.896
	c0.095,0.699,0.148,1.412,0.148,2.139c0,6.623-4.07,12.291-9.845,14.65c0.359,2.002,1.123,3.92,2.254,5.631
	C61.238,70.141,66.889,62.287,66.889,53.111z M29.178,53.111c0-0.727,0.053-1.438,0.148-2.139c-1.617-0.582-3.344-0.896-5.125-0.896
	c-0.293,0-0.585,0.012-0.878,0.028c-0.135,0.983-0.21,1.985-0.21,3.006c0,9.176,5.648,17.027,13.655,20.281
	c1.13-1.711,1.894-3.629,2.253-5.632C33.247,65.402,29.178,59.734,29.178,53.111z M35.307,40.611
	c2.679-2.08,6.041-3.321,9.694-3.321c3.653,0,7.015,1.241,9.692,3.321c1.556-1.311,2.834-2.931,3.752-4.764
	c-3.709-2.894-8.373-4.623-13.444-4.623c-5.07,0-9.734,1.729-13.445,4.623C32.473,37.681,33.753,39.3,35.307,40.611z"/>
</svg>
