<?xml version="1.0" encoding="utf-8"?>
<!-- Generator: Adobe Illustrator 15.0.2, SVG Export Plug-In . SVG Version: 6.00 Build 0)  -->
<!DOCTYPE svg PUBLIC "-//W3C//DTD SVG 1.1//EN" "http://www.w3.org/Graphics/SVG/1.1/DTD/svg11.dtd">
<svg version="1.1" id="レイヤー_1" xmlns="http://www.w3.org/2000/svg" xmlns:xlink="http://www.w3.org/1999/xlink" x="0px"
	 y="0px" width="90px" height="90px" viewBox="0 0 90 90" enable-background="new 0 0 90 90" xml:space="preserve">
<g>
	<g opacity="0.5">
		<line fill="none" stroke="#249EB3" stroke-width="0.5" stroke-miterlimit="10" x1="-46" y1="-19" x2="-196" y2="131"/>
		<line fill="none" stroke="#249EB3" stroke-width="0.5" stroke-miterlimit="10" x1="-38" y1="-19" x2="-188" y2="131"/>
		<line fill="none" stroke="#249EB3" stroke-width="0.5" stroke-miterlimit="10" x1="-30" y1="-19" x2="-180" y2="131"/>
		<line fill="none" stroke="#249EB3" stroke-width="0.5" stroke-miterlimit="10" x1="-22" y1="-19" x2="-172" y2="131"/>
		<line fill="none" stroke="#249EB3" stroke-width="0.5" stroke-miterlimit="10" x1="-14" y1="-19" x2="-164" y2="131"/>
		<line fill="none" stroke="#249EB3" stroke-width="0.5" stroke-miterlimit="10" x1="-6" y1="-19" x2="-156" y2="131"/>
		<line fill="none" stroke="#249EB3" stroke-width="0.5" stroke-miterlimit="10" x1="2" y1="-19" x2="-148" y2="131"/>
		<line fill="none" stroke="#249EB3" stroke-width="0.5" stroke-miterlimit="10" x1="10" y1="-19" x2="-140" y2="131"/>
		<line fill="none" stroke="#249EB3" stroke-width="0.5" stroke-miterlimit="10" x1="18" y1="-19" x2="-132" y2="131"/>
		<line fill="none" stroke="#249EB3" stroke-width="0.5" stroke-miterlimit="10" x1="26" y1="-19" x2="-124" y2="131"/>
		<line fill="none" stroke="#249EB3" stroke-width="0.5" stroke-miterlimit="10" x1="34" y1="-19" x2="-116" y2="131"/>
		<line fill="none" stroke="#249EB3" stroke-width="0.5" stroke-miterlimit="10" x1="42" y1="-19" x2="-108" y2="131"/>
		<line fill="none" stroke="#249EB3" stroke-width="0.5" stroke-miterlimit="10" x1="50" y1="-19" x2="-100" y2="131"/>
		<line fill="none" stroke="#249EB3" stroke-width="0.5" stroke-miterlimit="10" x1="58" y1="-19" x2="-92" y2="131"/>
		<line fill="none" stroke="#249EB3" stroke-width="0.5" stroke-miterlimit="10" x1="66" y1="-19" x2="-84" y2="131"/>
		<line fill="none" stroke="#249EB3" stroke-width="0.5" stroke-miterlimit="10" x1="74" y1="-19" x2="-76" y2="131"/>
		<line fill="none" stroke="#249EB3" stroke-width="0.5" stroke-miterlimit="10" x1="82" y1="-19" x2="-68" y2="131"/>
		<line fill="none" stroke="#249EB3" stroke-width="0.5" stroke-miterlimit="10" x1="90" y1="-19" x2="-60" y2="131"/>
		<line fill="none" stroke="#249EB3" stroke-width="0.5" stroke-miterlimit="10" x1="98" y1="-19" x2="-52" y2="131"/>
		<line fill="none" stroke="#249EB3" stroke-width="0.5" stroke-miterlimit="10" x1="106" y1="-19" x2="-44" y2="131"/>
		<line fill="none" stroke="#249EB3" stroke-width="0.5" stroke-miterlimit="10" x1="114" y1="-19" x2="-36" y2="131"/>
		<line fill="none" stroke="#249EB3" stroke-width="0.5" stroke-miterlimit="10" x1="122" y1="-19" x2="-28" y2="131"/>
		<line fill="none" stroke="#249EB3" stroke-width="0.5" stroke-miterlimit="10" x1="130" y1="-19" x2="-20" y2="131"/>
		<line fill="none" stroke="#249EB3" stroke-width="0.5" stroke-miterlimit="10" x1="138" y1="-19" x2="-12" y2="131"/>
		<line fill="none" stroke="#249EB3" stroke-width="0.5" stroke-miterlimit="10" x1="146" y1="-19" x2="-4" y2="131"/>
		<line fill="none" stroke="#249EB3" stroke-width="0.5" stroke-miterlimit="10" x1="154" y1="-19" x2="4" y2="131"/>
		<line fill="none" stroke="#249EB3" stroke-width="0.5" stroke-miterlimit="10" x1="162" y1="-19" x2="12" y2="131"/>
		<line fill="none" stroke="#249EB3" stroke-width="0.5" stroke-miterlimit="10" x1="170" y1="-19" x2="20" y2="131"/>
		<line fill="none" stroke="#249EB3" stroke-width="0.5" stroke-miterlimit="10" x1="178" y1="-19" x2="28" y2="131"/>
		<line fill="none" stroke="#249EB3" stroke-width="0.5" stroke-miterlimit="10" x1="186" y1="-19" x2="36" y2="131"/>
		<line fill="none" stroke="#249EB3" stroke-width="0.5" stroke-miterlimit="10" x1="194" y1="-19" x2="44" y2="131"/>
		<line fill="none" stroke="#249EB3" stroke-width="0.5" stroke-miterlimit="10" x1="202" y1="-19" x2="52" y2="131"/>
		<line fill="none" stroke="#249EB3" stroke-width="0.5" stroke-miterlimit="10" x1="210" y1="-19" x2="60" y2="131"/>
		<line fill="none" stroke="#249EB3" stroke-width="0.5" stroke-miterlimit="10" x1="218" y1="-19" x2="68" y2="131"/>
		<line fill="none" stroke="#249EB3" stroke-width="0.5" stroke-miterlimit="10" x1="226" y1="-19" x2="76" y2="131"/>
		<line fill="none" stroke="#249EB3" stroke-width="0.5" stroke-miterlimit="10" x1="234" y1="-19" x2="84" y2="131"/>
	</g>
</g>
<g>
	<defs>
		<rect id="SVGID_1_" width="90" height="90"/>
	</defs>
	<clipPath id="SVGID_2_">
		<use xlink:href="#SVGID_1_"  overflow="visible"/>
	</clipPath>
	<g clip-path="url(#SVGID_2_)">
		<g>
			<g>
				<g>
					<path fill="#FFFFFF" stroke="#249EB3" stroke-width="2" stroke-miterlimit="10" d="M14.999,68.096
						c-0.417,7.105,0,12.54,0.417,19.228c1.674-10.868,7.943-31.768,7.943-31.768c0-2.509-2.09-14.211-3.764-17.138
						C19.596,43.434,15.416,60.989,14.999,68.096z"/>
					<path fill="#FFFFFF" stroke="#249EB3" stroke-width="2" stroke-miterlimit="10" d="M6.221,86.486
						c-0.38-7.48-1.238-15.716-0.836-24.243c0.291-6.155,2.926-12.247,2.926-17.973c0-13.793,1.254-21.701,1.254-26.333
						c0-10.168,7.498-11.817,15.05-14.63c3.966-1.478,9.191-3.701,11.283-6.103c0-0.813,0-1.506,0-1.999
						c0-0.651,0.343-2.765-0.957-2.766c-1.081,0-5.812,0.929-7.35-0.973H-9.068V99.686h15.09
						C5.058,96.317,6.469,91.351,6.221,86.486z"/>
					<path fill="#FFFFFF" stroke="#249EB3" stroke-width="2" stroke-miterlimit="10" d="M70.486,38.418
						c-1.672,2.927-3.763,14.629-3.763,17.138c0,0,6.271,20.899,7.943,31.768c0.417-6.688,0.835-12.122,0.417-19.228
						C74.667,60.989,70.486,43.434,70.486,38.418z"/>
					<path fill="#FFFFFF" stroke="#249EB3" stroke-width="2" stroke-miterlimit="10" d="M98.067-8.533H53.453v4.611
						c1.172,2.821,7.434,5.521,12.018,7.229c7.55,2.812,15.048,4.461,15.048,14.63c0,4.632,1.253,12.54,1.253,26.333
						c0,5.726,2.636,11.818,2.927,17.973c0.402,8.527-0.456,16.763-0.836,24.243c-0.248,4.864,1.164,9.831,0.199,13.199h14.006
						V-8.533z"/>
					<path fill="#FFFFFF" stroke="#249EB3" stroke-width="2" stroke-miterlimit="10" d="M53.453-11.542
						c4.635-3.427,7.371-4.311,8.778-11.065c2.096-10.057-5.852-17.974-16.929-18.391c-11.087-0.418-15.256,4.597-18.6,14.629
						c-0.218,0.649,0.835,1.797,0.835,2.508c0,1.4-1.672,2.926-2.508,5.852c-0.263,0.923,1.455,0.273,1.673,1.254
						c0.431,1.94,0.22,5.524,0.418,7.105c0.057,0.455,0.227,0.819,0.469,1.118h25.863V-11.542z"/>
					<path fill="#FFFFFF" stroke="#249EB3" stroke-width="2" stroke-miterlimit="10" d="M6.221,100.28
						C12.072,114.91,19.769,117,26.703,117H63.38c6.935,0,14.631-2.09,20.482-16.72c0.076-0.191,0.141-0.392,0.199-0.595H6.021
						C6.08,99.889,6.144,100.089,6.221,100.28z"/>
				</g>
			</g>
		</g>
		<g>
			<g>
				<g>
					<path fill="none" stroke="#FFFFFF" stroke-width="2" d="M47.988,37.779c0.419,0.838,1.676,2.095,2.514,1.675
						c0.838-0.419,3.768-1.675,5.444-1.256c1.675,0.419,4.606,3.77,4.606,5.863c0,2.095-2.512,6.701-5.026,8.377
						c-2.512,1.675-7.538,3.351-10.05,2.094c-2.514-1.257-4.189-3.351-4.608-3.77c-0.418-0.419,1.676,5.026,1.676,5.026l-3.77-1.257
						c0,0-0.837-4.188-0.837-5.864c0-1.675,3.35-2.932,6.282-2.094c2.932,0.838,5.444-0.418,5.444-1.675
						c0-1.256-3.351-3.768-3.771-4.606C45.477,39.455,47.988,37.779,47.988,37.779z"/>
					<path fill="#249EB3" d="M47.988,37.779c0.419,0.838,1.676,2.095,2.514,1.675c0.838-0.419,3.768-1.675,5.444-1.256
						c1.675,0.419,4.606,3.77,4.606,5.863c0,2.095-2.512,6.701-5.026,8.377c-2.512,1.675-7.538,3.351-10.05,2.094
						c-2.514-1.257-4.189-3.351-4.608-3.77c-0.418-0.419,1.676,5.026,1.676,5.026l-3.77-1.257c0,0-0.837-4.188-0.837-5.864
						c0-1.675,3.35-2.932,6.282-2.094c2.932,0.838,5.444-0.418,5.444-1.675c0-1.256-3.351-3.768-3.771-4.606
						C45.477,39.455,47.988,37.779,47.988,37.779z"/>
				</g>
				<path fill="#249EB3" stroke="#FFFFFF" stroke-width="2" stroke-miterlimit="10" d="M31.051,53.897l10.838,3.335l12.506-0.834
					l3.752-3.752l3.335,3.752l-3.335,18.758c0,0-1.251,2.085-4.169,2.918c-2.917,0.834-6.669,0.418-8.754-1.667
					c-2.084,2.918-5.002,3.335-5.836,0c-1.251,0.834-3.752-1.667-5.002-2.501c-1.251-0.834-5.002-0.834-5.002-0.834L31.051,53.897z"
					/>
				<g>
					<path fill="none" stroke="#FFFFFF" stroke-width="2" d="M31.234,50.344c2.934,1.257,10.053,5.025,13.403,5.025
						s8.795-1.256,10.471-2.931c1.675-1.676,5.863-6.282,6.7-6.282c0.839,0,2.514,1.256,2.095,3.35c-0.419,2.095,0,17.172,0,19.267
						c0,2.093-1.256,4.188-2.512,6.7c-1.258,2.513-2.933,6.283-4.608,7.119c-1.675,0.838-3.351,2.514-8.795,1.676
						c0.838,2.514,1.257,6.703,0.419,8.795c-0.837,2.094-1.676,4.188-1.676,4.188H44.22c0,0-0.839-2.094-1.257-3.348
						c-0.419-1.258-0.419-5.027-0.419-6.702c0-1.677-1.257-6.283,1.257-7.958c2.513-1.675,5.025-0.838,6.701-0.838
						c1.675,0,4.188-1.675,5.444-5.025s2.513-5.863,2.095-9.214c-0.42-3.351-0.42-4.606-0.42-6.282
						c-2.932,1.676-3.769,2.514-6.701,2.932c-2.932,0.419-7.539,0-9.633-0.418c-2.093-0.419-7.119-2.932-9.632-4.189
						c0.42,3.771-0.839,6.282-0.421,8.796c0.421,2.513,0.421,5.862,0.841,7.119c1.256,0,2.931,0.838,2.931,2.095
						c0,1.256-0.838,2.932-1.675,4.188c-0.84,1.257-2.933,1.257-4.608,0.418c-1.674-0.837-3.349-2.512-3.769-4.605
						c-0.418-2.095,0-7.539,0-9.633c0-2.095,2.095-10.889,2.095-12.564S31.234,50.344,31.234,50.344z"/>
					<path fill="#249EB3" d="M31.234,50.344c2.934,1.257,10.053,5.025,13.403,5.025s8.795-1.256,10.471-2.931
						c1.675-1.676,5.863-6.282,6.7-6.282c0.839,0,2.514,1.256,2.095,3.35c-0.419,2.095,0,17.172,0,19.267
						c0,2.093-1.256,4.188-2.512,6.7c-1.258,2.513-2.933,6.283-4.608,7.119c-1.675,0.838-3.351,2.514-8.795,1.676
						c0.838,2.514,1.257,6.703,0.419,8.795c-0.837,2.094-1.676,4.188-1.676,4.188H44.22c0,0-0.839-2.094-1.257-3.348
						c-0.419-1.258-0.419-5.027-0.419-6.702c0-1.677-1.257-6.283,1.257-7.958c2.513-1.675,5.025-0.838,6.701-0.838
						c1.675,0,4.188-1.675,5.444-5.025s2.513-5.863,2.095-9.214c-0.42-3.351-0.42-4.606-0.42-6.282
						c-2.932,1.676-3.769,2.514-6.701,2.932c-2.932,0.419-7.539,0-9.633-0.418c-2.093-0.419-7.119-2.932-9.632-4.189
						c0.42,3.771-0.839,6.282-0.421,8.796c0.421,2.513,0.421,5.862,0.841,7.119c1.256,0,2.931,0.838,2.931,2.095
						c0,1.256-0.838,2.932-1.675,4.188c-0.84,1.257-2.933,1.257-4.608,0.418c-1.674-0.837-3.349-2.512-3.769-4.605
						c-0.418-2.095,0-7.539,0-9.633c0-2.095,2.095-10.889,2.095-12.564S31.234,50.344,31.234,50.344z"/>
				</g>
				<g>
					<path fill="none" stroke="#FFFFFF" stroke-width="2" d="M25.791,16.839C28.34,11.744,35.006,5.531,37.1,5.951
						c0.83,0.166,1.77,2.11,1.675,4.606C38.63,14.354,37.1,19.425,37.1,21.446c0,3.351,1.675,10.889,0,11.727
						c-1.674,0.837-6.283,0-7.959,1.675c-1.674,1.676-2.933,3.351-3.767,4.188c-0.838,0.838-2.934,0-3.351-2.094
						c-0.172-0.847-0.301-3.898,0-7.12C22.459,25.085,24.047,20.33,25.791,16.839z"/>
					<path fill="#249EB3" d="M25.791,16.839C28.34,11.744,35.006,5.531,37.1,5.951c0.83,0.166,1.77,2.11,1.675,4.606
						C38.63,14.354,37.1,19.425,37.1,21.446c0,3.351,1.675,10.889,0,11.727c-1.674,0.837-6.283,0-7.959,1.675
						c-1.674,1.676-2.933,3.351-3.767,4.188c-0.838,0.838-2.934,0-3.351-2.094c-0.172-0.847-0.301-3.898,0-7.12
						C22.459,25.085,24.047,20.33,25.791,16.839z"/>
				</g>
				<g>
					<path fill="none" stroke="#FFFFFF" stroke-width="2" d="M62.887,16.839c-2.548-5.096-9.213-11.309-11.308-10.889
						c-0.83,0.166-1.77,2.11-1.676,4.606c0.146,3.796-0.239,9.704-0.239,11.727c0,3.351,1.256,11.726,2.932,12.563
						c1.674,0.838,5.088,0.875,7.119,2.094c2.094,1.256,2.933,2.513,3.77,3.351c0.838,0.838,2.753-1.257,3.173-3.351
						c0.169-0.847,0.297-3.898,0-7.12C66.22,25.085,64.633,20.33,62.887,16.839z"/>
					<path fill="#249EB3" d="M62.887,16.839c-2.548-5.096-9.213-11.309-11.308-10.889c-0.83,0.166-1.77,2.11-1.676,4.606
						c0.146,3.796-0.239,9.704-0.239,11.727c0,3.351,1.256,11.726,2.932,12.563c1.674,0.838,5.088,0.875,7.119,2.094
						c2.094,1.256,2.933,2.513,3.77,3.351c0.838,0.838,2.753-1.257,3.173-3.351c0.169-0.847,0.297-3.898,0-7.12
						C66.22,25.085,64.633,20.33,62.887,16.839z"/>
				</g>
				<g>
					<path fill="none" stroke="#FFFFFF" stroke-width="2" d="M42.125,35.267c5.043,0,10.89,0.837,12.145,0.837
						c1.257,0,2.514,0.837,1.677,1.675c-0.838,0.838-3.351,2.932-5.026,4.607c-1.675,1.675-4.188,1.675-4.606,2.095
						c-0.42,0.418-2.513,2.512-4.607,3.351c-2.094,0.836-4.606,1.255-6.7,2.094c-2.095,0.837-4.607,2.094-6.283,2.513
						c-1.674,0.417-2.515-1.257-2.932-2.513c-0.417-1.258-0.417-6.702,0.417-9.215c0.841-2.513,2.933-4.606,5.026-5.444
						c2.097-0.838,3.353-0.838,5.027-0.838C36.262,34.429,40.45,35.267,42.125,35.267z"/>
					<path fill="#249EB3" d="M42.125,35.267c5.043,0,10.89,0.837,12.145,0.837c1.257,0,2.514,0.837,1.677,1.675
						c-0.838,0.838-3.351,2.932-5.026,4.607c-1.675,1.675-4.188,1.675-4.606,2.095c-0.42,0.418-2.513,2.512-4.607,3.351
						c-2.094,0.836-4.606,1.255-6.7,2.094c-2.095,0.837-4.607,2.094-6.283,2.513c-1.674,0.417-2.515-1.257-2.932-2.513
						c-0.417-1.258-0.417-6.702,0.417-9.215c0.841-2.513,2.933-4.606,5.026-5.444c2.097-0.838,3.353-0.838,5.027-0.838
						C36.262,34.429,40.45,35.267,42.125,35.267z"/>
				</g>
				<g>
					<path fill="#249EB3" stroke="#FFFFFF" stroke-width="2" stroke-miterlimit="10" d="M38.796,23.77
						c-0.516-0.608-1.45-1.964-1.215-3.599c0,0-0.142,1.027,0-0.047c0.14-1.075,0.841-2.899,1.354-3.552
						c0.514-0.655,0.7-0.609,0.98-0.702c0.049-0.467,0-1.777-0.045-2.664c-0.047-0.888-0.235-3.927-0.281-4.3
						c-0.048-0.374,0.234-0.421,0.702-0.515s1.027-0.047,1.215,0c0.187,0.047,2.197,8.181,2.197,8.181L38.796,23.77z"/>
					<g>
						<path fill="none" stroke="#FFFFFF" stroke-width="2" stroke-miterlimit="10" d="M44.779,33.632
							c1.395,0.581,2.804,1.215,3.74,1.215c0.935,0,1.695-0.222,2.196-1.121c0.233-0.421,1.356-2.478,1.729-3.833
							c0.374-1.356,0.842-3.227,0.748-3.973c-0.048-0.382-0.196-1.601-0.654-2.758c-0.445-1.122-1.19-2.185-1.496-2.525
							c-0.42-0.466-2.758-1.728-3.365-2.289c-0.609-0.561-0.702-0.608-0.516-1.075c0.187-0.469,1.776-1.076,2.666-1.076
							c0.888,0,1.355,0.047,1.729,0c0.376-0.046,0.422-0.42,0.327-1.074c-0.092-0.656-0.562-1.263-1.026-1.263
							c-0.469,0-2.994,0-3.555,0.046c-0.561,0.048-1.729,0.281-2.243,0.515c0.234-0.515,0.653-0.795,0.748-0.561
							c0.095,0.232,1.729,0.139,2.198-0.235c0.232-0.186,0.419-0.513,0.373-0.935c-0.046-0.419-0.094-1.542-0.516-1.917
							c-0.42-0.374-1.073-0.934-1.214-1.448c-0.141-0.515-0.047-1.497-0.281-1.543c-0.232-0.046-1.215-0.046-1.309,0.14
							c0.14,0.515,0.047-0.279-0.141-0.279c-0.187,0-1.309,0.186-1.355,0.467c-0.046,0.28,0.469,1.916,0.421,2.057
							c-0.047,0.14-0.188,0.14-0.28-0.047c-0.094-0.187-0.468-2.057-0.56-2.292c-0.097-0.233-0.515-0.28-0.935-0.186
							c-0.424,0.093-0.937,0.467-0.891,0.747c0.048,0.281,0.797,3.646,0.843,3.787c0.048,0.14-0.094,0.374-0.141,0.561
							c-0.046,0.186-0.188,1.636-0.188,2.243c0,0.608,0.188,1.543,0.188,1.963c-0.468,0.609-1.201,1.438-1.823,2.15
							c-0.327,0.374-1.075,1.683-1.309,2.711s-0.747,2.805-0.701,3.787c0.048,0.981,0.888,3.506,1.542,4.3
							c0.654,0.794,1.917,2.104,2.525,2.525C42.862,32.838,44.219,33.4,44.779,33.632z"/>
						<path fill="#249EB3" d="M44.779,33.632c1.395,0.581,2.804,1.215,3.74,1.215c0.935,0,1.695-0.222,2.196-1.121
							c0.233-0.421,1.356-2.478,1.729-3.833c0.374-1.356,0.842-3.227,0.748-3.973c-0.048-0.382-0.196-1.601-0.654-2.758
							c-0.445-1.122-1.19-2.185-1.496-2.525c-0.42-0.466-2.758-1.728-3.365-2.289c-0.609-0.561-0.702-0.608-0.516-1.075
							c0.187-0.469,1.776-1.076,2.666-1.076c0.888,0,1.355,0.047,1.729,0c0.376-0.046,0.422-0.42,0.327-1.074
							c-0.092-0.656-0.562-1.263-1.026-1.263c-0.469,0-2.994,0-3.555,0.046c-0.561,0.048-1.729,0.281-2.243,0.515
							c0.234-0.515,0.653-0.795,0.748-0.561c0.095,0.232,1.729,0.139,2.198-0.235c0.232-0.186,0.419-0.513,0.373-0.935
							c-0.046-0.419-0.094-1.542-0.516-1.917c-0.42-0.374-1.073-0.934-1.214-1.448c-0.141-0.515-0.047-1.497-0.281-1.543
							c-0.232-0.046-1.215-0.046-1.309,0.14c0.14,0.515,0.047-0.279-0.141-0.279c-0.187,0-1.309,0.186-1.355,0.467
							c-0.046,0.28,0.469,1.916,0.421,2.057c-0.047,0.14-0.188,0.14-0.28-0.047c-0.094-0.187-0.468-2.057-0.56-2.292
							c-0.097-0.233-0.515-0.28-0.935-0.186c-0.424,0.093-0.937,0.467-0.891,0.747c0.048,0.281,0.797,3.646,0.843,3.787
							c0.048,0.14-0.094,0.374-0.141,0.561c-0.046,0.186-0.188,1.636-0.188,2.243c0,0.608,0.188,1.543,0.188,1.963
							c-0.468,0.609-1.201,1.438-1.823,2.15c-0.327,0.374-1.075,1.683-1.309,2.711s-0.747,2.805-0.701,3.787
							c0.048,0.981,0.888,3.506,1.542,4.3c0.654,0.794,1.917,2.104,2.525,2.525C42.862,32.838,44.219,33.4,44.779,33.632z"/>
					</g>
					<g>
						<path fill="#249EB3" stroke="#FFFFFF" stroke-width="0.5" stroke-miterlimit="10" d="M50.985,13.866
							c-1.152-0.161-1.206,2.487,0.524,2.327"/>
						<path fill="#249EB3" stroke="#FFFFFF" stroke-width="0.5" stroke-miterlimit="10" d="M45.06,7.922
							c0.094,0.235,0.234,1.262,0.328,1.45c0.092,0.186,0.092,0.28,0.232,0.421"/>
					</g>
				</g>
			</g>
			<g>
				<path fill="none" stroke="#FFFFFF" stroke-width="0.5" stroke-miterlimit="10" d="M32.302,59.316
					c0.833,1.25,2.501,1.668,3.752,1.668c1.25,0,2.083-0.418,2.083-1.251"/>
				<path fill="none" stroke="#FFFFFF" stroke-width="0.5" stroke-miterlimit="10" d="M36.644,61.019
					c0.417,0.834,2.327,5.802,0.243,7.052"/>
				<path fill="none" stroke="#FFFFFF" stroke-width="0.5" stroke-miterlimit="10" d="M37.721,67.236c0,0,0.416,0.417,0.416,0.834"
					/>
				<path fill="none" stroke="#FFFFFF" stroke-width="0.5" stroke-miterlimit="10" d="M31.885,70.571
					c0.834,0,0.834-0.833,2.084-0.833c1.251,0,3.23,0.694,3.578,1.527c0.348,0.834,0.348,2.188,0.174,2.57"/>
				<path fill="none" stroke="#FFFFFF" stroke-width="0.5" stroke-miterlimit="10" d="M37.79,72.864
					c0.556-0.174,0.799,0.139,0.938,0.312"/>
				<path fill="none" stroke="#FFFFFF" stroke-width="0.5" stroke-miterlimit="10" d="M37.687,71.684
					c-0.07-0.8,0.277-2.119,1.389-2.745c1.112-0.625,2.502-0.382,3.092,0.069s1.598,1.425,1.633,2.71
					c0.034,1.285-0.348,4.065-1.286,4.551"/>
				<path fill="none" stroke="#FFFFFF" stroke-width="0.5" stroke-miterlimit="10" d="M39.388,76.407
					c0.591-0.694,1.807-3.126,1.459-4.897"/>
				<path fill="none" stroke="#FFFFFF" stroke-width="0.5" stroke-miterlimit="10" d="M34.455,69.634
					c0.243-1.181,0.66-4.689-1.354-6.079"/>
				<path fill="none" stroke="#FFFFFF" stroke-width="0.5" stroke-miterlimit="10" d="M34.038,64.979
					c0.556-0.59,0.974-1.076,1.147-1.633"/>
				<path fill="none" stroke="#FFFFFF" stroke-width="0.5" stroke-miterlimit="10" d="M43.175,60.914
					c0.486,1.459,1.425,5.906-0.486,8.72"/>
				<path fill="none" stroke="#FFFFFF" stroke-width="0.5" stroke-miterlimit="10" d="M40.743,68.592
					c0.277-0.869,0.034-5.142-1.009-6.461"/>
				<path fill="none" stroke="#FFFFFF" stroke-width="0.5" stroke-miterlimit="10" d="M41.159,61.713
					c-0.243,0.799-0.208,1.286-0.764,1.842"/>
				<path fill="none" stroke="#FFFFFF" stroke-width="0.5" stroke-miterlimit="10" d="M43.765,71.092
					c0.452-0.938,2.397-1.91,3.821-0.764s0.729,2.327,0.868,3.891"/>
				<path fill="none" stroke="#FFFFFF" stroke-width="0.5" stroke-miterlimit="10" d="M45.154,76.269
					c0.486-0.765,0.938-2.64,0.625-3.404c0.452-0.14,0.626-0.104,0.729-0.591"/>
				<path fill="none" stroke="#FFFFFF" stroke-width="0.5" stroke-miterlimit="10" d="M48.871,64.77
					c-1.216,0.834-1.632,3.162-1.389,5.559"/>
				<path fill="none" stroke="#FFFFFF" stroke-width="0.5" stroke-miterlimit="10" d="M47.1,61.192
					c-0.521,1.39-0.209,2.327,0.625,2.952s2.918,1.738,4.934,0.765c2.015-0.973,2.57-2.188,2.883-2.64
					c-0.139-0.591-0.104-1.251-0.243-1.494"/>
				<path fill="none" stroke="#FFFFFF" stroke-width="0.5" stroke-miterlimit="10" d="M56.688,61.644
					c-0.243,0.348-0.486,0.417-1.146,0.626"/>
				<path fill="none" stroke="#FFFFFF" stroke-width="0.5" stroke-miterlimit="10" d="M52.936,64.909
					c-0.486,1.528-1.702,2.952-1.771,4.655c-0.069,1.701,0.069,3.195,0.938,3.855c0.869,0.66,1.771,1.008,2.328,0.66"/>
				<path fill="none" stroke="#FFFFFF" stroke-width="0.5" stroke-miterlimit="10" d="M53.456,74.254
					c0.243,0.486,0.591,0.833,0.591,1.042"/>
				<path fill="none" stroke="#FFFFFF" stroke-width="0.5" stroke-miterlimit="10" d="M51.233,68.974
					c-0.312-0.765-1.146-1.563-1.771-1.945"/>
				<path fill="none" stroke="#FFFFFF" stroke-width="0.5" stroke-miterlimit="10" d="M51.686,73.143
					c0,1.424,0.139,2.952-0.487,3.682c-0.625,0.729-0.799,1.32-1.806,1.355"/>
				<path fill="none" stroke="#FFFFFF" stroke-width="0.5" stroke-miterlimit="10" d="M50.053,63.311
					c0.174-0.799,0.625-1.562,1.39-2.326"/>
				<path fill="none" stroke="#FFFFFF" stroke-width="0.5" stroke-miterlimit="10" d="M43.834,66.785
					c0.556,0.382,1.008,0.486,1.251,0.973"/>
				<path fill="none" stroke="#FFFFFF" stroke-width="0.5" stroke-miterlimit="10" d="M47.621,67.653
					c-0.487,0.938-1.425,1.876-1.98,2.258"/>
				<path fill="none" stroke="#FFFFFF" stroke-width="0.5" stroke-miterlimit="10" d="M57.695,62.895
					c-0.348,1.216-0.765,2.779-2.154,4.412c-1.39,1.632-1.25,3.021-0.66,4.133c0.591,1.112,0.557,1.008,1.146,1.146"/>
				<path fill="none" stroke="#FFFFFF" stroke-width="0.5" stroke-miterlimit="10" d="M57.312,58.309
					c1.182-0.938,2.883-2.467,2.952-3.126c0.938-0.66,1.494-1.528,1.668-2.466c0.695-0.729,1.529-1.494,1.702-2.328"/>
				<path fill="none" stroke="#FFFFFF" stroke-width="0.5" stroke-miterlimit="10" d="M48.246,84.676
					c-0.209-0.834-0.521-1.215-0.626-1.527"/>
				<path fill="none" stroke="#FFFFFF" stroke-width="0.5" stroke-miterlimit="10" d="M32.405,71.857
					c-0.765,0.592-1.251,1.182-1.355,1.807"/>
				<path fill="none" stroke="#FFFFFF" stroke-width="0.5" stroke-miterlimit="10" d="M31.988,56.469
					c-0.557-0.348-1.807-1.459-1.841-1.91"/>
				<path fill="none" stroke="#FFFFFF" stroke-width="0.5" stroke-miterlimit="10" d="M27.819,54.037
					c0.66,1.146,1.668,1.599,3.092,1.703"/>
				<path fill="none" stroke="#FFFFFF" stroke-width="0.5" stroke-miterlimit="10" d="M41.159,51.259
					c-0.452-0.626-1.112-0.556-1.737-1.077"/>
			</g>
		</g>
	</g>
</g>
</svg>
