<?xml version="1.0" encoding="utf-8"?>
<!-- Generator: Adobe Illustrator 15.0.2, SVG Export Plug-In . SVG Version: 6.00 Build 0)  -->
<!DOCTYPE svg PUBLIC "-//W3C//DTD SVG 1.1//EN" "http://www.w3.org/Graphics/SVG/1.1/DTD/svg11.dtd">
<svg version="1.1" id="レイヤー_1" xmlns="http://www.w3.org/2000/svg" xmlns:xlink="http://www.w3.org/1999/xlink" x="0px"
	 y="0px" width="90px" height="90px" viewBox="0 0 90 90" enable-background="new 0 0 90 90" xml:space="preserve">
<g>
	<g>
		<g opacity="0.5">
			<line fill="none" stroke="#249EB3" stroke-width="0.5" stroke-miterlimit="10" x1="-46" y1="21" x2="-196" y2="171"/>
			<line fill="none" stroke="#249EB3" stroke-width="0.5" stroke-miterlimit="10" x1="-38" y1="21" x2="-188" y2="171"/>
			<line fill="none" stroke="#249EB3" stroke-width="0.5" stroke-miterlimit="10" x1="-30" y1="21" x2="-180" y2="171"/>
			<line fill="none" stroke="#249EB3" stroke-width="0.5" stroke-miterlimit="10" x1="-22" y1="21" x2="-172" y2="171"/>
			<line fill="none" stroke="#249EB3" stroke-width="0.5" stroke-miterlimit="10" x1="-14" y1="21" x2="-164" y2="171"/>
			<line fill="none" stroke="#249EB3" stroke-width="0.5" stroke-miterlimit="10" x1="-6" y1="21" x2="-156" y2="171"/>
			<line fill="none" stroke="#249EB3" stroke-width="0.5" stroke-miterlimit="10" x1="2" y1="21" x2="-148" y2="171"/>
			<line fill="none" stroke="#249EB3" stroke-width="0.5" stroke-miterlimit="10" x1="10" y1="21" x2="-140" y2="171"/>
			<line fill="none" stroke="#249EB3" stroke-width="0.5" stroke-miterlimit="10" x1="18" y1="21" x2="-132" y2="171"/>
			<line fill="none" stroke="#249EB3" stroke-width="0.5" stroke-miterlimit="10" x1="26" y1="21" x2="-124" y2="171"/>
			<line fill="none" stroke="#249EB3" stroke-width="0.5" stroke-miterlimit="10" x1="34" y1="21" x2="-116" y2="171"/>
			<line fill="none" stroke="#249EB3" stroke-width="0.5" stroke-miterlimit="10" x1="42" y1="21" x2="-108" y2="171"/>
			<line fill="none" stroke="#249EB3" stroke-width="0.5" stroke-miterlimit="10" x1="50" y1="21" x2="-100" y2="171"/>
			<line fill="none" stroke="#249EB3" stroke-width="0.5" stroke-miterlimit="10" x1="58" y1="21" x2="-92" y2="171"/>
			<line fill="none" stroke="#249EB3" stroke-width="0.5" stroke-miterlimit="10" x1="66" y1="21" x2="-84" y2="171"/>
			<line fill="none" stroke="#249EB3" stroke-width="0.5" stroke-miterlimit="10" x1="74" y1="21" x2="-76" y2="171"/>
			<line fill="none" stroke="#249EB3" stroke-width="0.5" stroke-miterlimit="10" x1="82" y1="21" x2="-68" y2="171"/>
			<line fill="none" stroke="#249EB3" stroke-width="0.5" stroke-miterlimit="10" x1="90" y1="21" x2="-60" y2="171"/>
			<line fill="none" stroke="#249EB3" stroke-width="0.5" stroke-miterlimit="10" x1="98" y1="21" x2="-52" y2="171"/>
			<line fill="none" stroke="#249EB3" stroke-width="0.5" stroke-miterlimit="10" x1="106" y1="21" x2="-44" y2="171"/>
			<line fill="none" stroke="#249EB3" stroke-width="0.5" stroke-miterlimit="10" x1="114" y1="21" x2="-36" y2="171"/>
			<line fill="none" stroke="#249EB3" stroke-width="0.5" stroke-miterlimit="10" x1="122" y1="21" x2="-28" y2="171"/>
			<line fill="none" stroke="#249EB3" stroke-width="0.5" stroke-miterlimit="10" x1="130" y1="21" x2="-20" y2="171"/>
			<line fill="none" stroke="#249EB3" stroke-width="0.5" stroke-miterlimit="10" x1="138" y1="21" x2="-12" y2="171"/>
			<line fill="none" stroke="#249EB3" stroke-width="0.5" stroke-miterlimit="10" x1="146" y1="21" x2="-4" y2="171"/>
			<line fill="none" stroke="#249EB3" stroke-width="0.5" stroke-miterlimit="10" x1="154" y1="21" x2="4" y2="171"/>
			<line fill="none" stroke="#249EB3" stroke-width="0.5" stroke-miterlimit="10" x1="162" y1="21" x2="12" y2="171"/>
			<line fill="none" stroke="#249EB3" stroke-width="0.5" stroke-miterlimit="10" x1="170" y1="21" x2="20" y2="171"/>
			<line fill="none" stroke="#249EB3" stroke-width="0.5" stroke-miterlimit="10" x1="178" y1="21" x2="28" y2="171"/>
			<line fill="none" stroke="#249EB3" stroke-width="0.5" stroke-miterlimit="10" x1="186" y1="21" x2="36" y2="171"/>
			<line fill="none" stroke="#249EB3" stroke-width="0.5" stroke-miterlimit="10" x1="194" y1="21" x2="44" y2="171"/>
			<line fill="none" stroke="#249EB3" stroke-width="0.5" stroke-miterlimit="10" x1="202" y1="21" x2="52" y2="171"/>
			<line fill="none" stroke="#249EB3" stroke-width="0.5" stroke-miterlimit="10" x1="210" y1="21" x2="60" y2="171"/>
			<line fill="none" stroke="#249EB3" stroke-width="0.5" stroke-miterlimit="10" x1="218" y1="21" x2="68" y2="171"/>
			<line fill="none" stroke="#249EB3" stroke-width="0.5" stroke-miterlimit="10" x1="226" y1="21" x2="76" y2="171"/>
			<line fill="none" stroke="#249EB3" stroke-width="0.5" stroke-miterlimit="10" x1="234" y1="21" x2="84" y2="171"/>
		</g>
		<path fill="none" stroke="#249EB3" stroke-width="2" stroke-miterlimit="10" d="M-17,22c4.393,0,6.588-2,8.784-4
			c2.196,2,4.392,4,8.784,4s6.589-2,8.785-4c2.196,2,4.393,4,8.785,4c4.392,0,6.588-2,8.783-4c2.195,2,4.392,4,8.783,4
			c4.393,0,6.589-2,8.785-4c2.196,2,4.393,4,8.786,4s6.59-2,8.786-4c2.197,2,4.394,4,8.787,4s6.59-2,8.787-4
			c2.197,2,4.395,4,8.788,4s6.591-2,8.788-4c2.197,2,4.394,4,8.787,4"/>
	</g>
	<g>
		<circle fill="#FFFFFF" stroke="#249EB3" stroke-width="2" stroke-miterlimit="10" cx="42" cy="30.5" r="3.5"/>
		<circle fill="#FFFFFF" stroke="#249EB3" stroke-width="2" stroke-miterlimit="10" cx="47.5" cy="43.5" r="2.5"/>
		<circle fill="#FFFFFF" stroke="#249EB3" stroke-width="2" stroke-miterlimit="10" cx="44.25" cy="61.25" r="1.75"/>
	</g>
</g>
</svg>
