<?xml version="1.0" encoding="utf-8"?>
<!-- Generator: Adobe Illustrator 15.0.2, SVG Export Plug-In . SVG Version: 6.00 Build 0)  -->
<!DOCTYPE svg PUBLIC "-//W3C//DTD SVG 1.1//EN" "http://www.w3.org/Graphics/SVG/1.1/DTD/svg11.dtd">
<svg version="1.1" id="レイヤー_1" xmlns="http://www.w3.org/2000/svg" xmlns:xlink="http://www.w3.org/1999/xlink" x="0px" y="0px" width="90px" height="90px" viewBox="0 0 90 90" enable-background="new 0 0 90 90" xml:space="preserve">
<g>
	<g opacity="0.5">
		<line fill="none" stroke="#249EB3" stroke-width="0.5" stroke-miterlimit="10" x1="-46" y1="-19" x2="-196" y2="131"/>
		<line fill="none" stroke="#249EB3" stroke-width="0.5" stroke-miterlimit="10" x1="-38" y1="-19" x2="-188" y2="131"/>
		<line fill="none" stroke="#249EB3" stroke-width="0.5" stroke-miterlimit="10" x1="-30" y1="-19" x2="-180" y2="131"/>
		<line fill="none" stroke="#249EB3" stroke-width="0.5" stroke-miterlimit="10" x1="-22" y1="-19" x2="-172" y2="131"/>
		<line fill="none" stroke="#249EB3" stroke-width="0.5" stroke-miterlimit="10" x1="-14" y1="-19" x2="-164" y2="131"/>
		<line fill="none" stroke="#249EB3" stroke-width="0.5" stroke-miterlimit="10" x1="-6" y1="-19" x2="-156" y2="131"/>
		<line fill="none" stroke="#249EB3" stroke-width="0.5" stroke-miterlimit="10" x1="2" y1="-19" x2="-148" y2="131"/>
		<line fill="none" stroke="#249EB3" stroke-width="0.5" stroke-miterlimit="10" x1="10" y1="-19" x2="-140" y2="131"/>
		<line fill="none" stroke="#249EB3" stroke-width="0.5" stroke-miterlimit="10" x1="18" y1="-19" x2="-132" y2="131"/>
		<line fill="none" stroke="#249EB3" stroke-width="0.5" stroke-miterlimit="10" x1="26" y1="-19" x2="-124" y2="131"/>
		<line fill="none" stroke="#249EB3" stroke-width="0.5" stroke-miterlimit="10" x1="34" y1="-19" x2="-116" y2="131"/>
		<line fill="none" stroke="#249EB3" stroke-width="0.5" stroke-miterlimit="10" x1="42" y1="-19" x2="-108" y2="131"/>
		<line fill="none" stroke="#249EB3" stroke-width="0.5" stroke-miterlimit="10" x1="50" y1="-19" x2="-100" y2="131"/>
		<line fill="none" stroke="#249EB3" stroke-width="0.5" stroke-miterlimit="10" x1="58" y1="-19" x2="-92" y2="131"/>
		<line fill="none" stroke="#249EB3" stroke-width="0.5" stroke-miterlimit="10" x1="66" y1="-19" x2="-84" y2="131"/>
		<line fill="none" stroke="#249EB3" stroke-width="0.5" stroke-miterlimit="10" x1="74" y1="-19" x2="-76" y2="131"/>
		<line fill="none" stroke="#249EB3" stroke-width="0.5" stroke-miterlimit="10" x1="82" y1="-19" x2="-68" y2="131"/>
		<line fill="none" stroke="#249EB3" stroke-width="0.5" stroke-miterlimit="10" x1="90" y1="-19" x2="-60" y2="131"/>
		<line fill="none" stroke="#249EB3" stroke-width="0.5" stroke-miterlimit="10" x1="98" y1="-19" x2="-52" y2="131"/>
		<line fill="none" stroke="#249EB3" stroke-width="0.5" stroke-miterlimit="10" x1="106" y1="-19" x2="-44" y2="131"/>
		<line fill="none" stroke="#249EB3" stroke-width="0.5" stroke-miterlimit="10" x1="114" y1="-19" x2="-36" y2="131"/>
		<line fill="none" stroke="#249EB3" stroke-width="0.5" stroke-miterlimit="10" x1="122" y1="-19" x2="-28" y2="131"/>
		<line fill="none" stroke="#249EB3" stroke-width="0.5" stroke-miterlimit="10" x1="130" y1="-19" x2="-20" y2="131"/>
		<line fill="none" stroke="#249EB3" stroke-width="0.5" stroke-miterlimit="10" x1="138" y1="-19" x2="-12" y2="131"/>
		<line fill="none" stroke="#249EB3" stroke-width="0.5" stroke-miterlimit="10" x1="146" y1="-19" x2="-4" y2="131"/>
		<line fill="none" stroke="#249EB3" stroke-width="0.5" stroke-miterlimit="10" x1="154" y1="-19" x2="4" y2="131"/>
		<line fill="none" stroke="#249EB3" stroke-width="0.5" stroke-miterlimit="10" x1="162" y1="-19" x2="12" y2="131"/>
		<line fill="none" stroke="#249EB3" stroke-width="0.5" stroke-miterlimit="10" x1="170" y1="-19" x2="20" y2="131"/>
		<line fill="none" stroke="#249EB3" stroke-width="0.5" stroke-miterlimit="10" x1="178" y1="-19" x2="28" y2="131"/>
		<line fill="none" stroke="#249EB3" stroke-width="0.5" stroke-miterlimit="10" x1="186" y1="-19" x2="36" y2="131"/>
		<line fill="none" stroke="#249EB3" stroke-width="0.5" stroke-miterlimit="10" x1="194" y1="-19" x2="44" y2="131"/>
		<line fill="none" stroke="#249EB3" stroke-width="0.5" stroke-miterlimit="10" x1="202" y1="-19" x2="52" y2="131"/>
		<line fill="none" stroke="#249EB3" stroke-width="0.5" stroke-miterlimit="10" x1="210" y1="-19" x2="60" y2="131"/>
		<line fill="none" stroke="#249EB3" stroke-width="0.5" stroke-miterlimit="10" x1="218" y1="-19" x2="68" y2="131"/>
		<line fill="none" stroke="#249EB3" stroke-width="0.5" stroke-miterlimit="10" x1="226" y1="-19" x2="76" y2="131"/>
		<line fill="none" stroke="#249EB3" stroke-width="0.5" stroke-miterlimit="10" x1="234" y1="-19" x2="84" y2="131"/>
	</g>
</g>
<g>
	<path fill="#FFFFFF" stroke="#249EB3" stroke-width="2" stroke-miterlimit="10" d="M48.493,21.612c0,2.482-2.012,4.494-4.493,4.494
		s-4.493-2.012-4.493-4.494c0-2.481,2.012-4.494,4.493-4.494S48.493,19.13,48.493,21.612z M44,26.707
		c-7.142,0-10.262,4.213-10.331,6.793l-0.854,12.898c-0.069,1.102,0.773,2.06,1.875,2.13c1.101,0.07,2.059-0.773,2.13-1.874
		c0,0,0.748-11.215,0.791-11.888c0.044-0.674,0.933-0.772,0.933,0.036s0,10.923,0,10.923v2.287v20.343
		c0,1.39,1.139,2.527,2.528,2.527s2.527-1.138,2.527-2.527V48.013c0-0.222,0.18-0.401,0.401-0.401s0.401,0.18,0.401,0.401v20.343
		c0,1.39,1.138,2.527,2.527,2.527s2.528-1.138,2.528-2.527V48.013v-2.287c0,0,0-10.115,0-10.923s0.889-0.71,0.933-0.036
		c0.043,0.673,0.791,11.888,0.791,11.888c0.071,1.101,1.029,1.944,2.13,1.874c1.102-0.07,1.944-1.028,1.875-2.13L54.331,33.5
		C54.262,30.92,51.142,26.707,44,26.707z"/>
	<g>
		<polygon fill="#249EB3" points="79.95,66.849 79.95,57.393 77.06,57.393 77.06,68.896 74.34,70.822 74.34,65.043 66.18,70.822
			66.18,65.043 58.02,70.822 58.02,78.982 82.5,78.982 82.5,65.043 		"/>
		<path fill="#FFFFFF" stroke="#249EB3" stroke-width="2" stroke-miterlimit="10" d="M78.5,54.5c0-2,1-4,4-4c2,0,4-1,4-4
			s2-3.5,3.5-3.5"/>
	</g>
	<path fill="#249EB3" d="M24.737,13.67v4.402c0,0.652-0.533,1.186-1.186,1.186s-1.186-0.533-1.186-1.186v-4.836
		c-1.014-0.14-2.072-0.227-3.162-0.264v5.101c0,0.652-0.533,1.186-1.186,1.186s-1.186-0.533-1.186-1.186v-5.098
		c-1.09,0.042-2.15,0.134-3.162,0.278v4.82c0,0.652-0.533,1.186-1.186,1.186S11.3,18.725,11.3,18.072v-4.371
		C6.38,14.856,3,17.22,3,19.956C3,23.828,9.755,24,18.088,24s15.088-0.172,15.088-4.044C33.176,17.195,29.73,14.813,24.737,13.67z"
		/>
	<g>
		<path fill="none" stroke="#249EB3" stroke-linejoin="round" stroke-miterlimit="10" d="M75.299,37.111
			c0.463-0.197,0.115-0.592-0.348-0.888c-0.464-0.296-2.088-0.494-3.246-1.185c-1.161-0.691-1.044-1.185-1.393-3.061
			c-0.348-1.875,0.115-4.937,0.463-6.022c0.349-1.086,0.464-1.382,2.553-2.271c2.086-0.889,3.13-3.751,3.13-5.924
			c0-2.172-0.464-5.924-1.159-8.688c0,0-1.168-0.493-5.748-0.493s-5.392,0.493-5.392,0.493C63.463,11.837,63,15.589,63,17.761
			c0,2.172,1.043,5.035,3.13,5.924c2.088,0.889,2.204,1.185,2.553,2.271c0.348,1.085,0.811,4.146,0.463,6.022
			c-0.349,1.876-0.232,2.37-1.393,3.061c-1.159,0.691-2.782,0.889-3.246,1.185s-0.812,0.691-0.348,0.888
			C64.623,37.309,66.015,38,69.841,38C73.668,38,74.835,37.309,75.299,37.111z"/>
		<path fill="#249EB3" d="M75.299,37.111c0.463-0.197,0.115-0.592-0.348-0.888c-0.464-0.296-2.088-0.494-3.246-1.185
			c-1.161-0.691-1.044-1.185-1.393-3.061c-0.348-1.875,0.115-4.937,0.463-6.022c0.349-1.086,0.464-1.382,2.553-2.271
			c2.086-0.889,3.13-3.751,3.13-5.924c0-2.172-0.464-5.924-1.159-8.688c0,0-1.168-0.493-5.748-0.493s-5.392,0.493-5.392,0.493
			C63.463,11.837,63,15.589,63,17.761c0,2.172,1.043,5.035,3.13,5.924c2.088,0.889,2.204,1.185,2.553,2.271
			c0.348,1.085,0.811,4.146,0.463,6.022c-0.349,1.876-0.232,2.37-1.393,3.061c-1.159,0.691-2.782,0.889-3.246,1.185
			s-0.812,0.691-0.348,0.888C64.623,37.309,66.015,38,69.841,38C73.668,38,74.835,37.309,75.299,37.111z"/>
	</g>
	<g>
		<g>

				<line fill="none" stroke="#249EB3" stroke-width="2" stroke-linecap="round" stroke-miterlimit="10" x1="27.308" y1="59.635" x2="8.869" y2="59.636"/>

				<rect x="16.772" y="57" fill="#249EB3" stroke="#249EB3" stroke-width="2" stroke-linecap="round" stroke-linejoin="round" stroke-miterlimit="10" width="1.977" height="2.634"/>
		</g>
		<g>
			<polygon fill="none" stroke="#249EB3" stroke-width="2" stroke-linejoin="round" stroke-miterlimit="10" points="11.349,78.263
				24.829,78.263 25.505,63.554 10.673,63.554 			"/>

				<line fill="none" stroke="#249EB3" stroke-width="2" stroke-linecap="round" stroke-miterlimit="10" x1="21.449" y1="63.554" x2="21.449" y2="78.263"/>

				<line fill="none" stroke="#249EB3" stroke-width="2" stroke-linecap="round" stroke-miterlimit="10" x1="14.729" y1="63.554" x2="14.729" y2="78.263"/>

				<line fill="none" stroke="#249EB3" stroke-width="2" stroke-linecap="round" stroke-miterlimit="10" x1="18.089" y1="63.554" x2="18.089" y2="78.263"/>
		</g>
	</g>
</g>
</svg>
