<?xml version="1.0" encoding="utf-8"?>
<!-- Generator: Adobe Illustrator 15.0.2, SVG Export Plug-In . SVG Version: 6.00 Build 0)  -->
<!DOCTYPE svg PUBLIC "-//W3C//DTD SVG 1.1//EN" "http://www.w3.org/Graphics/SVG/1.1/DTD/svg11.dtd">
<svg version="1.1" id="レイヤー_1" xmlns="http://www.w3.org/2000/svg" xmlns:xlink="http://www.w3.org/1999/xlink" x="0px"
	 y="0px" width="90px" height="90px" viewBox="0 0 90 90" enable-background="new 0 0 90 90" xml:space="preserve">
<g opacity="0.5">
	<g>
		<line fill="none" stroke="#249EB3" stroke-width="0.5" stroke-miterlimit="10" x1="-46" y1="-26" x2="-196" y2="124"/>
		<line fill="none" stroke="#249EB3" stroke-width="0.5" stroke-miterlimit="10" x1="-38" y1="-26" x2="-188" y2="124"/>
		<line fill="none" stroke="#249EB3" stroke-width="0.5" stroke-miterlimit="10" x1="-30" y1="-26" x2="-180" y2="124"/>
		<line fill="none" stroke="#249EB3" stroke-width="0.5" stroke-miterlimit="10" x1="-22" y1="-26" x2="-172" y2="124"/>
		<line fill="none" stroke="#249EB3" stroke-width="0.5" stroke-miterlimit="10" x1="-14" y1="-26" x2="-164" y2="124"/>
		<line fill="none" stroke="#249EB3" stroke-width="0.5" stroke-miterlimit="10" x1="-6" y1="-26" x2="-156" y2="124"/>
		<line fill="none" stroke="#249EB3" stroke-width="0.5" stroke-miterlimit="10" x1="2" y1="-26" x2="-148" y2="124"/>
		<line fill="none" stroke="#249EB3" stroke-width="0.5" stroke-miterlimit="10" x1="10" y1="-26" x2="-140" y2="124"/>
		<line fill="none" stroke="#249EB3" stroke-width="0.5" stroke-miterlimit="10" x1="18" y1="-26" x2="-132" y2="124"/>
		<line fill="none" stroke="#249EB3" stroke-width="0.5" stroke-miterlimit="10" x1="26" y1="-26" x2="-124" y2="124"/>
		<line fill="none" stroke="#249EB3" stroke-width="0.5" stroke-miterlimit="10" x1="34" y1="-26" x2="-116" y2="124"/>
		<line fill="none" stroke="#249EB3" stroke-width="0.5" stroke-miterlimit="10" x1="42" y1="-26" x2="-108" y2="124"/>
		<line fill="none" stroke="#249EB3" stroke-width="0.5" stroke-miterlimit="10" x1="50" y1="-26" x2="-100" y2="124"/>
		<line fill="none" stroke="#249EB3" stroke-width="0.5" stroke-miterlimit="10" x1="58" y1="-26" x2="-92" y2="124"/>
		<line fill="none" stroke="#249EB3" stroke-width="0.5" stroke-miterlimit="10" x1="66" y1="-26" x2="-84" y2="124"/>
		<line fill="none" stroke="#249EB3" stroke-width="0.5" stroke-miterlimit="10" x1="74" y1="-26" x2="-76" y2="124"/>
		<line fill="none" stroke="#249EB3" stroke-width="0.5" stroke-miterlimit="10" x1="82" y1="-26" x2="-68" y2="124"/>
		<line fill="none" stroke="#249EB3" stroke-width="0.5" stroke-miterlimit="10" x1="90" y1="-26" x2="-60" y2="124"/>
		<line fill="none" stroke="#249EB3" stroke-width="0.5" stroke-miterlimit="10" x1="98" y1="-26" x2="-52" y2="124"/>
		<line fill="none" stroke="#249EB3" stroke-width="0.5" stroke-miterlimit="10" x1="106" y1="-26" x2="-44" y2="124"/>
		<line fill="none" stroke="#249EB3" stroke-width="0.5" stroke-miterlimit="10" x1="114" y1="-26" x2="-36" y2="124"/>
		<line fill="none" stroke="#249EB3" stroke-width="0.5" stroke-miterlimit="10" x1="122" y1="-26" x2="-28" y2="124"/>
		<line fill="none" stroke="#249EB3" stroke-width="0.5" stroke-miterlimit="10" x1="130" y1="-26" x2="-20" y2="124"/>
		<line fill="none" stroke="#249EB3" stroke-width="0.5" stroke-miterlimit="10" x1="138" y1="-26" x2="-12" y2="124"/>
		<line fill="none" stroke="#249EB3" stroke-width="0.5" stroke-miterlimit="10" x1="146" y1="-26" x2="-4" y2="124"/>
		<line fill="none" stroke="#249EB3" stroke-width="0.5" stroke-miterlimit="10" x1="154" y1="-26" x2="4" y2="124"/>
		<line fill="none" stroke="#249EB3" stroke-width="0.5" stroke-miterlimit="10" x1="162" y1="-26" x2="12" y2="124"/>
		<line fill="none" stroke="#249EB3" stroke-width="0.5" stroke-miterlimit="10" x1="170" y1="-26" x2="20" y2="124"/>
		<line fill="none" stroke="#249EB3" stroke-width="0.5" stroke-miterlimit="10" x1="178" y1="-26" x2="28" y2="124"/>
		<line fill="none" stroke="#249EB3" stroke-width="0.5" stroke-miterlimit="10" x1="186" y1="-26" x2="36" y2="124"/>
		<line fill="none" stroke="#249EB3" stroke-width="0.5" stroke-miterlimit="10" x1="194" y1="-26" x2="44" y2="124"/>
		<line fill="none" stroke="#249EB3" stroke-width="0.5" stroke-miterlimit="10" x1="202" y1="-26" x2="52" y2="124"/>
		<line fill="none" stroke="#249EB3" stroke-width="0.5" stroke-miterlimit="10" x1="210" y1="-26" x2="60" y2="124"/>
		<line fill="none" stroke="#249EB3" stroke-width="0.5" stroke-miterlimit="10" x1="218" y1="-26" x2="68" y2="124"/>
		<line fill="none" stroke="#249EB3" stroke-width="0.5" stroke-miterlimit="10" x1="226" y1="-26" x2="76" y2="124"/>
		<line fill="none" stroke="#249EB3" stroke-width="0.5" stroke-miterlimit="10" x1="234" y1="-26" x2="84" y2="124"/>
	</g>
</g>
<path fill="#FFFFFF" stroke="#249EB3" stroke-width="2" stroke-miterlimit="10" d="M72.78,38.799C72.918,38.053,73,37.287,73,36.5
	C73,29.597,67.403,24,60.5,24c-3.03,0-5.808,1.08-7.972,2.874C49.767,20.479,43.409,16,36,16c-9.941,0-18,8.059-18,18
	c0,1.526,0.21,3,0.568,4.415C11.96,39.979,7,45.932,7,53c0,8.25,6.75,15,15,15h46c8.25,0,15-6.75,15-15
	C83,46.421,78.702,40.808,72.78,38.799z"/>
</svg>
