<?xml version="1.0" encoding="utf-8"?>
<!-- Generator: Adobe Illustrator 15.0.2, SVG Export Plug-In . SVG Version: 6.00 Build 0)  -->
<!DOCTYPE svg PUBLIC "-//W3C//DTD SVG 1.1//EN" "http://www.w3.org/Graphics/SVG/1.1/DTD/svg11.dtd">
<svg version="1.1" id="レイヤー_1" xmlns="http://www.w3.org/2000/svg" xmlns:xlink="http://www.w3.org/1999/xlink" x="0px"
	 y="0px" width="160px" height="160px" viewBox="0 0 160 160" enable-background="new 0 0 160 160" xml:space="preserve">
<radialGradient id="SVGID_1_" cx="-38.3604" cy="601.416" r="20.999" gradientTransform="matrix(1.4286 0 0 0.1905 134.8018 5.4305)" gradientUnits="userSpaceOnUse">
	<stop  offset="0" style="stop-color:#000000;stop-opacity:0.25"/>
	<stop  offset="1" style="stop-color:#000000;stop-opacity:0"/>
</radialGradient>
<ellipse fill="url(#SVGID_1_)" cx="80" cy="120" rx="30" ry="4"/>
<g>
	<path fill="#2CA2B6" d="M100.715,75.028L79.074,48.026c-0.187,0.062-0.371,0.117-0.558,0.184l-0.63,0.247
		c-0.264,0.104-0.526,0.206-0.791,0.322c-0.109,0.049-0.221,0.1-0.338,0.154c-0.308,0.14-0.613,0.288-0.916,0.441
		c-0.07,0.035-0.142,0.066-0.211,0.102l-0.176,0.096l-0.113,0.063l-0.397,0.218c-0.225,0.125-0.45,0.244-0.673,0.376
		c-0.164,0.098-0.343,0.21-0.523,0.324c-0.316,0.196-0.631,0.391-0.945,0.603l-0.542,0.386c-0.268,0.189-0.536,0.376-0.804,0.578
		c-0.426,0.326-0.945,0.751-1.352,1.078c-0.004,0.003-0.008,0.007-0.012,0.01l-1.236,1.097c-0.003,0.003-0.006,0.005-0.008,0.008
		c-0.261,0.245-0.564,0.546-0.855,0.837c-0.573,0.585-1.174,1.236-1.658,1.767l-2.99,3.435c-0.018,0.021-0.047,0.054-0.096,0.11
		c-0.132,0.153-0.271,0.32-0.41,0.485l-0.688,0.852l-0.018,0.021l-0.18,0.223c-0.092,0.119-0.188,0.246-0.281,0.37
		c-0.303,0.41-0.637,0.883-0.906,1.257l-0.488,0.755l-0.169,0.26l-0.181,0.279c-0.107,0.173-0.213,0.352-0.32,0.532
		c-0.051,0.088-0.102,0.177-0.153,0.268c-0.089,0.156-0.177,0.312-0.263,0.465c-0.053,0.094-0.104,0.189-0.156,0.285
		c-0.066,0.123-0.133,0.24-0.199,0.366l-0.031,0.063l-0.305,0.606c-0.113,0.228-0.227,0.451-0.338,0.689
		c0,0.001-0.001,0.002-0.002,0.003c0,0.001,0,0.002-0.001,0.002c-0.216,0.479-0.461,1.066-0.654,1.521l-0.477,1.313
		c-0.017,0.051-0.036,0.103-0.052,0.153c-0.15,0.473-0.315,1.065-0.453,1.558c-0.023,0.095-0.049,0.189-0.07,0.281l-0.266,1.217
		c-0.004,0.018-0.006,0.032-0.01,0.05c-0.098,0.588-0.194,1.363-0.266,1.95l-0.062,1.189c-0.001,0.053-0.007,0.114-0.006,0.163
		c0.006,0.377,0.012,0.82,0.031,1.259c0.02,0.267,0.049,0.604,0.094,1.11l0.119,0.751c0.034,0.204,0.068,0.393,0.103,0.568
		c0.003,0.014,0.006,0.026,0.009,0.04c0.078,0.357,0.157,0.688,0.241,0.991c0.005,0.018,0.01,0.033,0.015,0.05
		c0.035,0.126,0.071,0.249,0.108,0.368c0.071,0.218,0.153,0.451,0.247,0.706c0.01,0.027,0.02,0.052,0.029,0.08
		c0.044,0.119,0.094,0.25,0.145,0.382c0.167,0.412,0.352,0.825,0.562,1.285l0.474,0.893c0.139,0.242,0.332,0.55,0.482,0.796
		c0.014,0.022,0.029,0.046,0.043,0.067l0.514,0.758c0.082,0.117,0.166,0.22,0.248,0.332c0.02,0.025,0.039,0.051,0.058,0.076
		c0.041,0.055,0.082,0.11,0.123,0.164c0.043,0.057,0.09,0.117,0.128,0.168l0.314,0.38l0.066,0.081
		c0.098,0.115,0.197,0.238,0.294,0.347c0.004,0.004,0.008,0.008,0.011,0.013c0.404,0.451,0.788,0.841,1.112,1.17
		c0.265,0,0.45,0.42,0.644,0.6c0.332,0.285,0.539,0.464,0.694,0.594c0.205,0.157,0.462,0.364,0.659,0.521
		c0.259,0.195,0.504,0.37,0.732,0.529c0.217,0.146,0.5,0.331,0.714,0.473l0.269,0.162l0.484,0.291
		c0.013,0.007,0.029,0.016,0.042,0.023c0.022,0.012,0.039,0.02,0.061,0.031c0.107,0.06,0.198,0.104,0.302,0.158
		c0.248,0.133,0.502,0.271,0.725,0.381l0.08,0.038c0.24,0.118,0.455,0.214,0.667,0.308c0.214,0.09,0.438,0.183,0.626,0.262
		l0.865,0.312c0.005,0.002,0.011,0.004,0.016,0.005c0.15,0.049,0.326,0.101,0.504,0.151c0.032,0.01,0.062,0.019,0.094,0.027
		c0.076,0.021,0.145,0.042,0.218,0.062c0.104,0.029,0.202,0.056,0.296,0.081l0.91,0.205c0,0,0.001,0,0.002,0
		c0.299,0.054,0.662,0.104,1.005,0.151c0.504,0.058,1.044,0.099,1.485,0.129c0.694,0.001,1.621-0.034,2.314-0.081l1.233-0.171
		c0.557-0.106,1.291-0.282,1.841-0.415l1.305-0.406c0.42-0.15,0.944-0.361,1.396-0.543c0.129-0.055,0.256-0.106,0.389-0.166
		l1.04-0.489c0.083-0.041,0.165-0.081,0.249-0.123c0.462-0.24,1.026-0.562,1.465-0.804l1.312-0.824
		c0.36-0.243,0.792-0.555,1.182-0.836c0.304-0.227,0.592-0.45,0.869-0.669l0.702-0.56c0.43-0.361,0.982-0.867,1.401-1.242
		l1.022-1.007c0.091-0.091,0.193-0.189,0.273-0.273c0.349-0.382,1.3-1.43,1.162-1.271l3.086-3.546
		c0.223-0.257,0.479-0.568,0.728-0.875c0.086-0.105,0.17-0.209,0.252-0.31c0.088-0.108,0.175-0.215,0.254-0.312l0.394-0.531
		l0.242-0.328l0.369-0.499c0.324-0.465,0.73-1.102,1.041-1.575l0.82-1.397l0.113-0.208c0.023-0.042,0.045-0.089,0.068-0.132
		c0.095-0.178,0.188-0.367,0.282-0.551l0.042-0.084l0.02-0.039L100.715,75.028l0.008-0.015
		C100.72,75.019,100.718,75.023,100.715,75.028z"/>
	<path fill="#2BA1B6" d="M70.914,87.643c-1.807-3.18-5.672-5.861-8.59-5.958c-2.924-0.107-3.831,2.407-2.015,5.587
		c1.806,3.181,5.672,5.862,8.59,5.959C71.823,93.338,72.729,90.822,70.914,87.643z"/>
	<path fill="#33A5B9" d="M102.287,70.853L83.234,47.121c-0.048,0.005-0.096,0.009-0.144,0.014c-0.358,0.045-0.737,0.099-1.088,0.152
		c-0.181,0.031-0.361,0.06-0.543,0.096c-0.009,0.002-0.017,0.003-0.024,0.004l-0.018,0.004l-0.678,0.155
		c-0.234,0.056-0.469,0.113-0.703,0.178c-0.27,0.08-0.557,0.169-0.838,0.26c-0.042,0.014-0.084,0.028-0.125,0.042
		c-1.739,0.637-5.838,2.257-10.061,7.145c-0.01,0.003-0.018,0.008-0.027,0.011c0.036-0.012,0.078-0.018,0.114-0.03
		c0.006-0.002,0.013-0.003,0.02-0.005c-0.013,0.004-0.026,0.008-0.04,0.012c-0.029,0.01-0.06,0.017-0.088,0.027l-3.077,3.535
		c0.042-0.014,0.088-0.023,0.133-0.035c-0.001,0-0.005,0.003-0.006,0.004c-0.017,0.005-0.034,0.01-0.052,0.016
		c-0.023,0.008-0.049,0.014-0.072,0.022c-0.001,0.001-0.002,0.002-0.004,0.004c-0.009,0.01-0.02,0.022-0.029,0.033
		c-0.266,0.3-0.603,0.679-0.861,0.97c-6.48,8.403-6.31,14.847-5.187,17.329c1.67,3.692,5.768,4.205,8.506,6.499
		c2.422,2.029,3.981,4.389,4.695,5.615c0.727,1.248,1.377,2.319,1.979,2.795c0.715,0.564,1.911,1.509,5.084,1.098
		c2.083-0.271,7.541-1.612,13.337-8.18c0,0,0-0.001,0.001-0.001c0,0,0-0.001,0.001-0.001c0,0,0-0.001,0.001-0.001
		c0-0.001,0-0.001,0.001-0.001l0.059-0.074l3.065-3.521l0.01-0.002c0.202-0.308,0.558-0.652,0.796-0.932
		c0.016-0.019,1.344-1.626,2.65-3.993c0.102-0.184,0.201-0.371,0.301-0.564c0.026-0.05,0.052-0.102,0.077-0.151
		c0.106-0.205,0.213-0.406,0.315-0.62l0.062-0.14c0.048-0.103,0.091-0.213,0.139-0.316c0.021-0.047,0.04-0.095,0.061-0.141
		c0.145-0.321,0.29-0.638,0.427-0.975c0.044-0.112,0.088-0.227,0.133-0.347c0.122-0.313,0.225-0.612,0.329-0.913
		c0.003-0.01,0.007-0.02,0.01-0.029c0.045-0.129,0.101-0.266,0.142-0.393c0.065-0.215,0.132-0.443,0.201-0.683
		c0.022-0.077,0.045-0.154,0.067-0.232c0.001-0.006,0.003-0.012,0.005-0.018C102.289,70.846,102.288,70.849,102.287,70.853z"/>
	<path fill="#3BA9BC" d="M86.872,47.147c0.001,0,0.001,0,0.002,0c-0.049-0.006-0.097-0.016-0.146-0.021l-0.01-0.001l-0.094-0.012
		c-0.001,0-0.004,0-0.005,0c-0.03-0.003-0.06-0.003-0.09-0.006c-0.322-0.032-0.647-0.051-0.973-0.064
		c-0.055-0.002-0.109-0.009-0.164-0.011l-0.206-0.002c-0.058-0.001-0.115,0.003-0.173,0.003c-0.22-0.001-0.44,0.003-0.662,0.011
		l-0.343,0.015l-0.232,0.01c-0.039,0.002-0.078,0.008-0.117,0.011c-0.142,0.011-0.284,0.027-0.426,0.042
		c-5.893,0.749-10.382,4.626-13.116,7.764l-0.016,0.014l-3.074,3.532l-0.024,0.032c-5.824,6.585-7.559,13.969-6.228,17.582
		c0.386,1.049,0.386,1.049,7.204,6.53c2.865,2.304,4.531,5.692,7.301,8.082c0.577,0.498,1.778,1.534,4.168,1.502
		c1.207-0.017,7.562-0.497,14.391-8.287l0.001-0.001l0.001-0.001c0.001-0.001,0.002-0.002,0.002-0.003
		c0.003-0.003,0.005-0.005,0.008-0.008c0.001-0.001,0.001-0.001,0.002-0.002l0.008-0.009c0.001-0.001,0.003-0.003,0.004-0.004
		c0.001-0.002,0.002-0.003,0.003-0.004l0.004-0.009l0.003-0.004l3.085-3.544c-0.001,0.005-0.003,0.009-0.005,0.013
		c-0.001,0.005-0.002,0.009-0.003,0.014c0.002-0.007,0.005-0.013,0.007-0.02c0.179-0.331,0.568-0.667,0.812-0.953
		c0.279-0.326,1.64-2.09,2.723-4.14c0.368-0.696,1.147-2.185,1.793-4.346c0.001-0.004,0.002-0.007,0.003-0.01
		c0.069-0.245,0.139-0.49,0.202-0.727c0.018-0.068,0.035-0.136,0.053-0.205c0.054-0.231,0.106-0.466,0.157-0.694
		c0.037-0.179,0.084-0.369,0.115-0.541l0.2-1.3l0.022-0.202c0.012-0.107,0.018-0.2,0.026-0.303l0.072-1.03c0-0.005,0-0.01,0-0.015
		L86.872,47.147z"/>
	<path fill="#42ACBF" d="M97.146,79.466c0.002-0.009,0.005-0.017,0.006-0.025c0.159-0.345,0.573-0.675,0.819-0.964
		c0.741-0.873,2.207-2.845,3.696-6.244c0.265-0.605,1.04-2.554,1.354-5.074c0.027-0.219,0.047-0.444,0.066-0.672
		c0.001-0.015,0.002-0.029,0.004-0.044c0.007-0.117,0.015-0.231,0.021-0.347c0.017-0.295,0.032-0.585,0.043-0.84l-0.031-1.221
		c-0.013-0.238-0.04-0.462-0.062-0.69l-0.038-0.309L90.447,47.993c-0.059-0.02-0.122-0.042-0.188-0.064
		c-0.052-0.018-0.104-0.035-0.156-0.053c-0.049-0.017-0.097-0.033-0.146-0.049c-0.205-0.065-0.435-0.132-0.662-0.196
		c-0.004-0.001-0.007-0.002-0.01-0.003c-0.097-0.027-0.194-0.055-0.281-0.08c-0.019-0.005-0.035-0.01-0.054-0.015l-0.967-0.218
		c-0.364-0.07-0.731-0.12-1.1-0.165c-0.004,0-0.008-0.001-0.012-0.002c-7.31-0.735-13.034,4.443-15.804,7.608
		c-0.006,0-0.01,0.002-0.016,0.002l-0.004,0.01l-3.075,3.534l-0.002,0.011c-0.266,0.298-0.616,0.689-0.88,0.986
		c-5.863,7.543-6.457,13.76-5.183,16.791c0.447,1.064,1.208,1.873,1.431,2.096c0.134,0.133,0.312,0.311,0.45,0.44
		c2.056,1.944,4.491,3.43,6.52,5.405c1.899,1.85,3.309,4.15,5.383,5.838c1.994,1.623,4.119,1.426,4.817,1.36
		c1.619-0.151,7.379-1.191,13.533-8.22c0.001-0.001,0.002-0.002,0.003-0.003c0.001-0.006,0.001-0.012,0.002-0.018l0.019-0.012
		l3.079-3.538v0.001V79.466z"/>
	<path fill="#4AB0C2" d="M71.926,54.725l-3.077,3.535c0.005,0,0.011,0,0.017,0c-0.011,0.001-0.023,0.01-0.033,0.01
		c-0.262,0.297-0.608,0.688-0.869,0.982c-4.954,6.359-6.829,12.685-5.015,16.919c0.172,0.402,0.632,1.248,1.773,2.387l11.012,10.375
		c1.177,0.908,2.574,1.766,5.541,1.395c1.516-0.189,6.916-1.334,12.854-8.104c0.002-0.023,0.017-0.051,0.028-0.077
		c0,0.016,0,0.031-0.001,0.047l3.078-3.536c-0.001,0.025-0.002,0.051-0.004,0.076c0.001-0.01,0.003-0.018,0.004-0.027
		c0-0.005,0.002-0.01,0.002-0.015c0-0.001,0-0.002,0-0.003c0.001-0.014,0.005-0.026,0.006-0.04c0.144-0.354,0.575-0.68,0.821-0.972
		c0.104-0.124,2.58-3.081,4.064-7.288c1.031-2.925,1.058-5.355,0.948-6.811c-0.015-0.204-0.033-0.377-0.052-0.542l-0.042-0.339
		l-0.013-0.105c-0.022-0.146-0.05-0.297-0.08-0.458c-0.043-0.23-0.097-0.494-0.163-0.821c-0.016-0.066-0.03-0.136-0.047-0.201
		l-0.032-0.117l-0.066-0.24l-0.126-0.451c-0.021-0.067-0.039-0.142-0.061-0.207l-0.174-0.504c-0.021-0.059-0.043-0.123-0.063-0.18
		c-0.023-0.064-0.047-0.128-0.07-0.188c-0.009-0.024-0.018-0.043-0.026-0.066l-0.204-0.496l-0.052-0.125
		c-0.01-0.023-0.019-0.043-0.029-0.066c0.01,0.021,0.016,0.041,0.024,0.062L95.014,50.4c-0.066-0.048-0.132-0.095-0.199-0.142
		c-0.21-0.144-0.471-0.312-0.673-0.446l-0.753-0.453c-0.034-0.02-0.078-0.042-0.115-0.063c-0.482-0.262-1.069-0.572-1.773-0.881
		c-0.174-0.073-0.344-0.145-0.506-0.212c-0.062-0.025-0.126-0.049-0.189-0.074l-0.438-0.158c-0.104-0.033-0.208-0.057-0.312-0.088
		C83.717,46,77.619,48.289,71.927,54.715L71.926,54.725z"/>
	<path fill="#51B4C5" d="M102.349,60.029c-0.043-0.131-0.079-0.264-0.126-0.394c-0.063-0.187-0.146-0.379-0.219-0.569
		c-0.068-0.177-0.128-0.352-0.204-0.532c-0.096-0.214-0.206-0.454-0.353-0.772l-0.438-0.821c-0.04-0.072-0.082-0.143-0.123-0.214
		c-0.036-0.061-0.071-0.12-0.109-0.183c-0.034-0.057-0.068-0.113-0.103-0.169c-0.022-0.037-0.043-0.07-0.065-0.106
		c-0.068-0.11-0.136-0.217-0.2-0.317l-0.47-0.692c-0.014-0.02-0.033-0.044-0.048-0.064c-0.212-0.286-0.466-0.616-0.715-0.926
		l-0.37-0.447c-0.178-0.2-0.42-0.463-0.6-0.662l-0.622-0.631c-0.187-0.187-0.45-0.42-0.644-0.6l-0.559-0.479
		c-0.308-0.253-0.648-0.522-1.012-0.793l-0.195-0.141c-0.054-0.039-0.108-0.077-0.162-0.116c-0.109-0.075-0.219-0.137-0.327-0.209
		l-3.366-1.786c-6.285-2.516-12.507-0.41-18.543,6.329l-0.007,0.011l-3.076,3.534l-0.013,0.011c0,0,0,0.001,0,0.001s0,0-0.001,0
		c0,0,0,0.001-0.001,0.001c-0.259,0.295-0.6,0.685-0.857,0.978c-7.745,9.915-5.393,15.877-5.289,16.126
		c1.642,3.932,12.085,12.592,12.188,12.674c2.169,1.711,4.207,1.686,5.74,1.473c1.072-0.149,6.718-1.24,12.694-8.071
		c0.002-0.002,0.004-0.004,0.006-0.006c0.001,0,0.001-0.001,0.001-0.001c0.002-0.002,0.003-0.003,0.004-0.004
		s0.002-0.002,0.003-0.003c0,0,0,0,0-0.001l0.007-0.012l3.079-3.537l0.007-0.004c0.129-0.36,0.575-0.684,0.822-0.977
		c0.562-0.668,3.423-4.258,4.607-9.414C103.098,65.74,103.31,63.099,102.349,60.029z"/>
	<path fill="#59B7C8" d="M101.25,57.44c-0.115-0.219-0.227-0.439-0.351-0.652c-0.035-0.062-0.065-0.123-0.102-0.186
		c-0.004-0.007-0.007-0.013-0.011-0.02c-0.01-0.017-0.148-0.246-0.404-0.617l-5.466-5.608c-0.077-0.055-0.152-0.111-0.23-0.165
		c-0.062-0.041-0.125-0.079-0.188-0.119c-0.032-0.021-0.063-0.041-0.096-0.061c-0.245-0.157-0.489-0.326-0.734-0.468
		c0,0-0.001,0-0.001,0c-0.085-0.05-0.171-0.087-0.256-0.135c-0.386-0.217-0.771-0.428-1.156-0.61
		c-0.005-0.002-0.01-0.004-0.015-0.006c-0.308-0.145-0.614-0.262-0.921-0.385c-2.921-1.109-6.408-1.315-10.318,0.567
		c-3.795,1.826-6.428,4.735-7.419,5.83l-0.003,0.014l-3.074,3.533l-0.02,0.012c-0.002,0.001-0.003,0.002-0.004,0.004c0,0,0,0,0,0
		c-0.002,0.001-0.002,0.002-0.004,0.003c-0.258,0.294-0.592,0.678-0.846,0.968c-4.826,6.166-6.743,12.271-5.129,16.329
		c1.342,3.374,10.897,11.351,10.99,11.424c2.353,1.833,4.202,1.902,5.852,1.703c1.502-0.181,6.857-1.294,12.772-8.032
		c0.002-0.002,0.004-0.004,0.006-0.006c0.001-0.001,0.002-0.003,0.003-0.004s0.001-0.001,0.002-0.002s0.002-0.002,0.002-0.003
		l0.004-0.006l0.006-0.013l3.08-3.54c0.001,0.007,0.002,0.014,0.003,0.02l0.003-0.011c0-0.002,0-0.003,0-0.005
		c0.116-0.367,0.576-0.688,0.822-0.983c1.479-1.768,3.909-5.74,4.549-9.44C103.027,64.276,103.182,61.241,101.25,57.44z"/>
	<path fill="#60BBCB" d="M100.346,55.958c-0.012-0.02-0.212-0.342-0.585-0.847c-0.898-1.18-2.366-2.874-4.31-4.362
		c-0.039-0.03-0.077-0.061-0.116-0.09c-0.136-0.1-0.27-0.2-0.41-0.297c-0.002-0.001-0.005-0.003-0.008-0.005
		c-0.081-0.056-0.166-0.109-0.249-0.164c-0.135-0.09-0.268-0.181-0.406-0.268c-0.001,0-0.001,0-0.001,0
		c-3.371-2.107-7.983-3.288-13.436-0.314c-3.205,1.748-5.483,4.239-6.456,5.302l-0.01,0.012l-3.075,3.533l-0.011,0.012
		c0,0-0.001,0-0.001,0c-0.257,0.295-0.593,0.683-0.848,0.976c-2.816,3.591-7.211,10.492-5.001,16.373
		c0.05,0.131,8.485,12.876,15.748,12.223c1.5-0.136,6.857-1.112,12.87-8.003c0.002-0.002,0.003-0.004,0.005-0.005
		c0-0.001,0.001-0.002,0.001-0.002c0.001-0.001,0.002-0.002,0.003-0.003l0.01-0.001l3.083-3.543c0.001,0.01,0.004,0.021,0.005,0.032
		c-0.002-0.015-0.002-0.027-0.004-0.042c0.104-0.371,0.575-0.692,0.821-0.988c1.491-1.796,3.917-5.794,4.488-9.451
		C103.036,62.301,102.426,59.382,100.346,55.958z"/>
	<path fill="#68BECE" d="M100.273,55.997c-0.837-1.3-8.494-12.505-19.62-5.658c-2.657,1.636-4.442,3.565-5.509,4.717l-0.008,0.01
		l-3.077,3.536l-0.018,0.019c-0.254,0.294-0.586,0.679-0.837,0.97c-6.84,8.707-5.713,14.103-5.204,15.548
		c0.951,2.704,8.971,12.598,14.942,12.141c1.93-0.147,7.055-1.218,12.978-7.929c0.001-0.001,0.002-0.002,0.003-0.003
		c0-0.001,0.001-0.002,0.002-0.003s0.002-0.002,0.003-0.003l0.006-0.03c0.001,0.004,0.002,0.009,0.003,0.013l3.085-3.544
		l0.002,0.004c0.094-0.375,0.574-0.696,0.82-0.995c0.365-0.443,3.595-4.479,4.417-9.49
		C102.934,61.209,101.551,57.983,100.273,55.997z"/>
	<path fill="#70C2D1" d="M100.305,56.284C99,54.209,91.958,44.179,81.438,50.543c-2.608,1.577-4.362,3.453-5.523,4.693
		c-0.002,0-0.004,0-0.006-0.001l-0.002,0.006l-0.002,0.006l-3.076,3.534l-0.01,0.011c0,0,0,0,0,0l0,0
		c-0.253,0.296-0.586,0.684-0.838,0.978c-6.64,8.438-5.749,13.711-5.058,15.586c0.374,1.016,7.218,12.151,14.867,11.029
		c2.196-0.322,6.669-1.758,11.973-7.746c0.001-0.001,0.002-0.002,0.003-0.003c0,0,0,0,0.001-0.001l0.011-0.012l3.082-3.541
		l0.004-0.005c0.084-0.378,0.572-0.7,0.817-1.001c1.01-1.236,3.449-4.605,4.282-9.153C102.591,61.498,101.518,58.214,100.305,56.284
		z"/>
	<path fill="#77C6D3" d="M99.551,55.402c-1.258-1.879-8.056-10.905-18.278-4.007c-2.065,1.394-3.522,2.932-4.586,4.056l-0.011,0.006
		c0.001,0,0.003,0.001,0.005,0.001l-3.079,3.538l-0.008,0.008c-0.002,0.002-0.004,0.004-0.006,0.006c0,0,0,0,0,0.001
		c-0.252,0.295-0.581,0.683-0.83,0.975c-6.767,8.587-5.497,13.76-5.174,14.71c1.425,4.184,8.272,11.67,13.897,10.913
		c2.726-0.367,7.033-1.996,12.083-7.67c0.001-0.001,0.002-0.002,0.003-0.002c0-0.001,0-0.001,0-0.001l0.013-0.016l3.08-3.539
		l0.013,0.021c-0.003-0.009-0.004-0.018-0.007-0.026c0.073-0.382,0.569-0.705,0.813-1.007c2.28-2.822,3.709-6.05,4.248-9.593
		C101.877,62.796,102.16,59.297,99.551,55.402z"/>
	<path fill="#7FC9D6" d="M99.246,55.321c-2.324-3.239-8.744-10.013-18.118-2.981c-1.531,1.149-2.468,2.125-3.653,3.36l-0.013,0.009
		l-3.077,3.536l-0.006,0.012c-0.25,0.296-0.58,0.687-0.828,0.981c-14.063,17.828,4.356,24.786,7.548,24.538
		c2.193-0.17,6.696-1.379,12.228-7.557c0-0.001,0.001-0.002,0.002-0.002c-0.003-0.009-0.006-0.018-0.01-0.026
		c0.006,0.006,0.021,0.003,0.023,0.012l3.081-3.54l0.005-0.006c0.064-0.384,0.566-0.711,0.81-1.015
		c1.535-1.925,3.504-5.312,3.998-8.525C101.865,60.016,100.502,57.07,99.246,55.321z"/>
	<path fill="#86CDD9" d="M98.771,55.104c-1.145-1.633-7.33-9.424-16.825-2.457c-1.511,1.109-2.42,2.044-3.677,3.339
		c0,0-0.001,0-0.002,0c-0.006-0.002-0.012-0.004-0.018-0.006l0.016,0.014l-3.08,3.539l-0.014,0.013
		c-0.249,0.297-0.576,0.686-0.822,0.979c-12.749,16.143,1.538,23.823,7.27,23.292c1.961-0.182,6.053-1.377,11.428-7.336l0.016-0.014
		l3.083-3.543l0.002-0.005c0.055-0.387,0.563-0.716,0.805-1.022C99.112,69.15,103.614,62.018,98.771,55.104z"/>
	<path fill="#8ED0DC" d="M98.452,55.216c-2.115-2.792-7.968-8.523-16.598-1.485c-0.925,0.753-1.578,1.406-2.749,2.59
		c-0.012-0.005-0.022-0.008-0.033-0.013l0.021,0.021l-3.078,3.535c0.006,0.003,0.013,0.006,0.02,0.008
		c-0.006-0.001-0.02,0.005-0.023,0.003c-0.248,0.298-0.574,0.69-0.82,0.986c-12.027,15.231,1.008,22.568,6.172,21.995
		c5.391-0.599,9.865-5.501,11.354-7.14l0.012-0.027c0.002,0.003,0.004,0.007,0.005,0.01l3.086-3.545
		c0.004,0.01,0.008,0.019,0.012,0.028c-0.005-0.01-0.007-0.02-0.012-0.029c0.045-0.389,0.558-0.723,0.797-1.033
		C100.939,65.52,101.643,59.425,98.452,55.216z"/>
	<path fill="#95D4DF" d="M98.24,55.664c-4.088-5.543-9.738-6.102-15.503-1.532c-0.738,0.585-1.143,0.948-2.78,2.564l0.023,0.015
		c-0.009-0.004-0.018-0.007-0.025-0.011l-3.083,3.542l0.028,0.017c-0.012-0.005-0.021-0.009-0.032-0.014
		c-0.001,0-0.001,0.001-0.001,0.002c-0.001,0-0.001,0-0.001,0.001c-0.002,0.002-0.004,0.004-0.005,0.006
		c-0.246,0.299-0.568,0.691-0.812,0.987c-11.217,14.235-0.022,21.507,5.952,20.497c4.809-0.814,8.688-5.033,10.348-6.837
		l0.007,0.005l3.083-3.543l0.016,0.026c-0.006-0.013-0.01-0.024-0.017-0.037c0.036-0.391,0.553-0.729,0.79-1.042
		C101.021,63.984,100.308,58.467,98.24,55.664z"/>
	<path fill="#9DD8E2" d="M97.031,54.928c-2.655-3.275-7.994-5.122-14.302,0.449c-0.575,0.508-1.301,1.23-1.851,1.765l-0.021,0.003
		l-3.076,3.536l0.004,0.016c-0.244,0.3-0.566,0.695-0.81,0.993c-10.167,12.889-0.87,19.714,4.392,18.976
		c4.992-0.701,8.593-4.552,10.527-6.624c-0.001-0.002,0.001-0.009,0-0.011c0.004,0.006,0.007,0.011,0.01,0.017l3.082-3.541
		l-0.002-0.014c0.025-0.394,0.544-0.742,0.777-1.06C99.693,64.07,100.156,58.783,97.031,54.928z"/>
	<path fill="#A4DBE5" d="M90.099,52.777c-3.361,0.512-5.444,2.266-8.24,4.884l-0.011,0l-3.082,3.542l0.003,0.009
		c-0.001,0.001-0.002,0.002-0.003,0.004c0,0-0.001,0.001-0.001,0.001c-0.241,0.301-0.56,0.699-0.8,0.999
		c-9.163,11.683-1.663,17.771,3.838,17.099c4.191-0.511,7.947-4.468,9.56-6.17l0.005-0.023l3.075-3.534h0.017
		c0.23-0.32,0.537-0.748,0.768-1.068C102.321,58.42,95.064,52.021,90.099,52.777z"/>
	<path fill="#ACDFE8" d="M89.028,54.187c-2.214,0.629-4.2,2.383-6.121,4.079l0.047,0.036c-0.01-0.006-0.021-0.011-0.03-0.018
		l-3.08,3.54l-0.027-0.007c-0.001,0.001-0.002,0.003-0.002,0.004c-0.238,0.305-0.551,0.707-0.787,1.01
		c-7.53,9.716-2.771,15.571,2.666,15.05c3.766-0.361,6.803-3.485,9.021-5.769c0.001-0.001,0.001-0.001,0.001-0.001l-0.019-0.037
		c0.01,0.015,0.021,0.029,0.031,0.045l3.084-3.543l-0.006-0.015c0.223-0.328,0.521-0.764,0.744-1.092
		C100.855,58.005,94.566,52.612,89.028,54.187z"/>
	<path fill="#B3E2EB" d="M90.133,55.479c-2.292,0.393-4.336,2.158-5.979,3.576l0.002,0.014l-3.079,3.537l-0.015,0.004
		c-0.236,0.307-0.548,0.712-0.782,1.017c-5.424,6.991-3.209,12.279,0.932,12.432c3.403,0.126,6.216-2.647,8.697-5.096l0.02,0.015
		l3.081-3.539L93,67.414c0.212-0.34,0.495-0.792,0.707-1.132C98.665,58.33,93.658,54.875,90.133,55.479z"/>
	<path fill="#BBE6EE" d="M83.854,64.667c0.19,0.155,0.383,0.306,0.57,0.465c0.374,0.317,0.738,0.646,1.101,0.979
		c0.136,0.125,0.275,0.243,0.409,0.37c0.49,0.464,0.969,0.942,1.431,1.433c0.09,0.095,0.172,0.195,0.261,0.292
		c0.367,0.398,0.728,0.802,1.073,1.215c0.035,0.042,0.073,0.08,0.107,0.122l3.08-3.539c-0.035-0.043-0.067-0.087-0.103-0.129
		c-0.343-0.409-0.699-0.808-1.062-1.203c-0.092-0.101-0.179-0.205-0.272-0.304c-0.462-0.49-0.939-0.967-1.43-1.432
		c-0.131-0.125-0.27-0.242-0.403-0.365c-0.364-0.335-0.731-0.667-1.107-0.985c-0.187-0.158-0.378-0.308-0.566-0.462
		c-0.333-0.271-0.669-0.54-1.01-0.797c-0.081-0.062-0.164-0.12-0.245-0.18l-3.079,3.537c0.08,0.06,0.156,0.126,0.236,0.187
		C83.186,64.128,83.521,64.396,83.854,64.667z"/>
</g>
</svg>
