<?xml version="1.0" encoding="utf-8"?>
<!-- Generator: Adobe Illustrator 15.0.2, SVG Export Plug-In . SVG Version: 6.00 Build 0)  -->
<!DOCTYPE svg PUBLIC "-//W3C//DTD SVG 1.1//EN" "http://www.w3.org/Graphics/SVG/1.1/DTD/svg11.dtd">
<svg version="1.1" id="レイヤー_1" xmlns="http://www.w3.org/2000/svg" xmlns:xlink="http://www.w3.org/1999/xlink" x="0px"
	 y="0px" width="160px" height="160px" viewBox="0 0 160 160" enable-background="new 0 0 160 160" xml:space="preserve">
<g>
	<path fill="#2AA1B6" d="M84.924,53.504c-0.197,0.135-0.395,0.273-0.572,0.4c-0.223,0.175-0.455,0.377-0.809,0.688l-21.276,20.23
		c-0.61,0.604-0.715,0.741-1.299,1.506l-0.425,0.658c-0.238,0.411-0.329,0.583-0.492,0.957c-0.028,0.063-0.059,0.136-0.092,0.214
		c-0.048,0.112-0.1,0.236-0.165,0.39l-0.016,0.048l-0.223,0.666c-0.105,0.408-0.224,0.958-0.299,1.372l-0.078,0.712
		c-0.017,0.324-0.021,0.754-0.02,1.082c0,0.005,0,0.012,0,0.017l0.021,0.303l0.023,0.322l0.003,0.043
		c0.03,0.257,0.085,0.598,0.126,0.852l0.136,0.604c0.082,0.292,0.205,0.677,0.301,0.964l0.209,0.521
		c0.067,0.155,0.167,0.358,0.239,0.512l0.155,0.289l0.082,0.154c0.01,0.018,0.024,0.04,0.035,0.06
		c0.068,0.117,0.15,0.25,0.214,0.356l0.254,0.382c0.077,0.108,0.183,0.249,0.261,0.356l0.27,0.336
		c0.057,0.113,0.195,0.223,0.278,0.317l0.289,0.304c0.09,0.09,0.213,0.205,0.304,0.293l0.317,0.281
		c0.101,0.086,0.239,0.194,0.342,0.277l0.354,0.263c0.118,0.084,0.28,0.188,0.4,0.27l0.404,0.245
		c0.145,0.083,0.344,0.186,0.491,0.264l0.472,0.223c0.002,0.001,0.005,0.002,0.007,0.003c0.188,0.081,0.441,0.176,0.63,0.25
		l0.558,0.182c0.259,0.072,0.608,0.152,0.869,0.213l0.654,0.107l0.39,0.044l0.7,0.039c0.382-0.002,0.892-0.026,1.274-0.053
		l0.729-0.105c0.301-0.061,0.676-0.155,0.995-0.239c0.045-0.012,0.099-0.024,0.141-0.036l0.069-0.024l0.315-0.11l0.337-0.117
		c0.313-0.13,0.722-0.326,1.028-0.474l0.679-0.396c0.284-0.188,0.648-0.459,0.92-0.662c0.182-0.16,0.424-0.373,0.606-0.532
		l21.278-20.23c0.191-0.19,0.447-0.449,0.729-0.775c0.012-0.014,0.021-0.025,0.035-0.04c0.133-0.165,0.291-0.371,0.533-0.688
		l0.102-0.157c0.131-0.195,0.264-0.4,0.396-0.631l0.076-0.135c0.043-0.078,0.082-0.155,0.123-0.232l0.146-0.306L99.521,66
		l0.051-0.107l0.006-0.011c0.004-0.008,0.008-0.017,0.012-0.025L84.924,53.504z"/>
	<path fill="#31A4B8" d="M100.066,64.51c-0.004,0.012-0.008,0.023-0.012,0.035L86.258,52.76c0-0.001,0.002-0.001,0.002-0.002
		c0.01-0.005,0.016-0.009,0.025-0.014c-0.127,0.059-0.256,0.119-0.367,0.17c-0.133,0.07-0.238,0.126-0.334,0.179
		c-0.006,0.003-0.01,0.006-0.016,0.009c-0.197,0.118-0.361,0.218-0.504,0.308c-0.047,0.031-0.092,0.061-0.141,0.093
		c-0.045,0.035-0.08,0.063-0.117,0.091c-0.252,0.197-0.303,0.247-0.533,0.484c-0.008,0.004-0.014,0.012-0.023,0.017
		c-0.006,0.003-0.01,0.008-0.016,0.011c0.004-0.001,0.008-0.002,0.012-0.004L62.988,74.314c0.003-0.001,0.006-0.002,0.009-0.004
		c0.003-0.002,0.008-0.002,0.011-0.004l0,0.017c-0.011,0.006-0.024,0.01-0.036,0.016c-0.001,0.001-0.002,0.002-0.002,0.003
		c-0.106,0.115-0.236,0.256-0.338,0.365c-3.964,5.515,3.884,12.538,4.976,12.788c0.001,0,0.002,0.001,0.003,0.001
		s0.002,0,0.003,0.001h0.001c0.001,0,0.003,0.001,0.004,0.001s0.002,0.001,0.003,0.001h0.001l0,0.001c0,0,0.001,0,0.001,0
		c0.001,0,0.002,0.001,0.002,0.001c0.001,0,0.003,0.001,0.003,0.001c0.001,0,0.003,0,0.003,0.001c0,0,0.001,0,0.001,0
		c0.76,0.114,1.294,0.69,1.974,0.968c1.305,0.533,2.376,0.622,3.322,0.701c0.792,0.065,2.051-0.043,3.548-0.935
		c0.118-0.092,0.271-0.211,0.394-0.306h0c0-0.001,0.001-0.001,0.001-0.001c0.002-0.001,0.004-0.003,0.005-0.004
		c0,0,0.001,0,0.001-0.001c0.001-0.001,0.003-0.002,0.004-0.003c0,0,0,0,0,0c0.001-0.001,0.003-0.003,0.004-0.004c0,0,0,0,0,0
		c0-0.001,0.001-0.001,0.001-0.001c0.001-0.001,0.003-0.002,0.004-0.003c0-0.001,0-0.001,0.001-0.002c0,0.001,0,0.001,0,0.002
		c0,0,0.001-0.001,0.001-0.001l21.252-20.207l0.029-0.042c-0.002,0.006-0.004,0.012-0.006,0.019c0,0,0-0.001,0-0.001
		c0.107-0.084,0.256-0.188,0.355-0.28c0.516-0.476,0.814-1.046,1.021-1.461c0.061-0.143,0.135-0.317,0.232-0.545
		c0.01-0.03,0.02-0.057,0.029-0.086c0.078-0.229,0.168-0.499,0.238-0.738c0.004-0.012,0.01-0.026,0.012-0.038
		c0.008-0.026,0.02-0.057,0.025-0.081C100.078,64.474,100.072,64.49,100.066,64.51z"/>
	<path fill="#37A8BB" d="M100.277,63.532L87.193,52.387c0.002-0.001,0.004-0.002,0.006-0.003c-0.166,0.058-0.322,0.115-0.471,0.169
		c-0.031,0.011-0.068,0.024-0.098,0.035c0,0,0,0,0,0c-0.008,0.003-0.014,0.006-0.021,0.009l-0.242,0.111l-0.109,0.051
		c-0.58,0.31-0.877,0.479-1.465,1.11c-0.002,0-0.002,0.001-0.004,0.002c-0.004,0.001-0.008,0.004-0.012,0.005L84.764,53.9
		L63.519,74.101l0.034-0.006c-0.013,0.004-0.026,0.006-0.039,0.01c-0.003,0.004-0.007,0.009-0.011,0.013l-0.001,0.001
		c-0.001,0.002-0.003,0.004-0.004,0.006c-0.001,0.001-0.002,0.003-0.003,0.004c-0.101,0.115-0.225,0.259-0.321,0.369
		c-3.78,5.71,4.426,12.483,5.578,12.687c0.002,0,0.006,0.001,0.009,0.002c0.002,0,0.005,0.001,0.007,0.002c0.001,0,0.002,0,0.003,0
		l0.001,0.001c0,0,0.001,0,0.001,0h0c0,0,0.001,0.001,0.001,0.001c0,0,0,0,0.001,0h0c0.001,0,0.004,0.001,0.005,0.001
		c0.001,0,0.002,0.001,0.003,0.001c0.173,0.014,0.365,0.173,0.519,0.253c1.167,0.604,2.588,0.941,4.225,1.001
		c0.075,0.002,1.847,0.054,3.279-0.965c0.059-0.044,0.135-0.1,0.198-0.146c0.003-0.003,0.007-0.006,0.011-0.009
		c0,0,0.001,0,0.001-0.001l0.019-0.045c-0.001,0.012-0.002,0.023-0.003,0.034c0,0.001,0,0.001,0,0.002c0,0.002,0,0.003,0,0.005
		l21.263-20.217c0,0.002-0.002,0.004-0.002,0.007l0.018-0.027c0.111-0.084,0.27-0.189,0.375-0.282
		c0.674-0.685,1.021-1.165,1.369-2.255c0.004-0.012,0.008-0.023,0.012-0.035l0.123-0.482l0.037-0.199
		c0.025-0.128,0.047-0.256,0.068-0.384C100.289,63.475,100.283,63.503,100.277,63.532z"/>
	<path fill="#3EABBE" d="M100.412,62.355c-0.002,0.004-0.002,0.007-0.002,0.011L88.521,52.027c-0.025,0.005-0.049,0.006-0.074,0.011
		l-0.012,0.002l-0.127,0.031c-0.273,0.06-0.543,0.132-0.812,0.215c-0.102,0.033-0.197,0.064-0.303,0.101
		c-0.965,0.42-1.332,0.678-1.949,1.372l-0.025,0.025l-21.25,20.205l-0.011,0.013c-0.002,0.003-0.006,0.007-0.008,0.011l-0.001,0.001
		c0,0,0,0,0,0.001c-0.051,0.062-0.111,0.134-0.158,0.19c-1.91,2.446-0.611,5.734-0.167,6.684c2.002,4.284,5.816,5.896,6.066,5.986
		c0.002,0.001,0.005,0.002,0.006,0.002s0.002,0.001,0.003,0.001c0,0,0.003,0.001,0.004,0.002h0.001l0.002,0.001l0.003,0.001h0.001
		l0.004,0.002c0.622,0.024,1.1,0.437,1.667,0.612c0.938,0.29,1.982,0.33,2.098,0.334c1.646,0.053,2.568-0.415,3.179-0.725
		c0.123-0.082,0.283-0.189,0.41-0.274l0.021-0.032c0,0.006,0,0.012,0,0.017l21.273-20.227c-0.002,0.007-0.002,0.013-0.004,0.02
		l0.008-0.021c0.115-0.086,0.277-0.193,0.389-0.287c0.434-0.425,1.219-1.209,1.525-2.768c0.008-0.04,0.016-0.083,0.023-0.122
		c0.031-0.199,0.057-0.403,0.076-0.608c0.014-0.129,0.021-0.248,0.031-0.369c0-0.004,0-0.008,0.002-0.012c0-0.01,0-0.02,0.002-0.03
		c0-0.017,0-0.035,0.002-0.052C100.412,62.345,100.412,62.35,100.412,62.355z"/>
	<path fill="#44AEC0" d="M100.426,61.74l-0.002-0.106c0,0,0-0.001,0-0.002c0,0,0-0.001,0-0.002l-0.002-0.047l-0.014-0.114
		l-11.074-9.559c-0.059,0.007-0.111,0.014-0.172,0.021c-0.213,0.027-0.426,0.054-0.637,0.094c-0.002,0-0.004,0.001-0.004,0.001
		c-1.354,0.333-2.055,0.744-2.867,1.675l-0.01,0.017l-0.006,0.003l-21.256,20.21l-0.016,0.017h0c0,0.001-0.001,0.002-0.002,0.003
		c-0.091,0.12-0.205,0.271-0.292,0.387c-3.375,6.124,5.291,12.147,6.436,12.227c0.001,0,0.002,0,0.003,0
		c0.003,0,0.008,0.002,0.011,0.002c0,0,0,0,0.001,0h0c0.001,0,0.001,0,0.001,0c0.001,0,0.003,0.001,0.004,0.001h0
		c0.002,0,0.007,0.001,0.009,0.001c0.194-0.004,0.427,0.152,0.609,0.222c1.056,0.402,3.175,0.918,5.51-0.153
		c0.125-0.08,0.287-0.184,0.416-0.266l0.022-0.018l21.262-20.217l0.014,0.007c0-0.005,0.002-0.011,0.002-0.016c0,0,0,0,0,0
		c0.119-0.087,0.285-0.196,0.398-0.29c0.561-0.532,1.484-1.424,1.641-3.473c0-0.004,0-0.007,0.002-0.011
		c0-0.006,0-0.011,0.002-0.016c0-0.025,0-0.052,0.002-0.078c0.006-0.154,0.014-0.307,0.012-0.47L100.426,61.74z"/>
	<path fill="#4AB1C3" d="M100.377,60.804c-0.014-0.147-0.041-0.273-0.061-0.412L90.23,51.856c-0.215,0.003-0.43,0.005-0.641,0.022
		c-0.08,0.008-0.17,0.021-0.256,0.032c-1.527,0.25-2.367,0.704-3.273,1.771l-0.014,0.013L64.784,73.913l-0.014,0.019
		c-0.088,0.123-0.199,0.278-0.285,0.396c-3.167,6.003,5.207,11.921,6.771,11.919c0.003,0,0.007,0.001,0.01,0
		c0,0,0.001,0.001,0.001,0.001c0.001,0,0.003,0,0.004,0h0.001c0.001,0,0.003,0,0.004,0c0,0,0.001,0,0.002,0
		c0.002,0,0.005,0.001,0.007,0.001c0.001,0,0.003,0,0.004,0c0.159-0.009,0.354,0.113,0.505,0.162
		c1.663,0.532,3.287,0.458,4.827-0.221c0.13-0.08,0.303-0.186,0.436-0.266c0-0.001,0.001-0.001,0.001-0.001
		c0.001-0.001,0.002-0.001,0.002-0.001c0.001-0.001,0.002-0.001,0.002-0.002v-0.001c0-0.001,0.003-0.01,0.004-0.014
		c0,0.004,0.001,0.008,0.001,0.012v0.001l21.277-20.229c0,0,0-0.001,0-0.001c0.092-0.065,0.215-0.15,0.307-0.215
		c0.674-0.485,1.768-1.651,1.756-4.003c0-0.027,0.002-0.052,0.002-0.079C100.402,61.2,100.398,61.015,100.377,60.804z"/>
	<path fill="#51B4C6" d="M100.35,60.753c-0.01-0.119-0.02-0.238-0.033-0.361c-0.02-0.131-0.035-0.267-0.059-0.391
		c-0.002-0.006-0.002-0.012-0.002-0.018c-0.004-0.016-0.008-0.036-0.01-0.051c-0.014-0.072-0.027-0.133-0.043-0.197
		c-0.008-0.039-0.018-0.073-0.027-0.112c0-0.002,0-0.004-0.002-0.006c-0.02-0.082-0.039-0.161-0.059-0.239l-8.953-7.493
		c-0.051-0.004-0.102-0.009-0.154-0.012c-0.189-0.011-0.371-0.019-0.543-0.025c-0.078,0-0.156,0.007-0.234,0.008
		c-1.756,0.132-2.824,0.65-3.775,1.835l-0.016,0.02c-0.002,0-0.004,0.001-0.006,0.001L65.18,73.923l-0.015,0.02
		c0,0,0,0.001-0.001,0.001c-0.069,0.104-0.156,0.234-0.222,0.335c-3.031,5.937,5.446,11.689,7.025,11.631c0.002,0,0.005,0,0.008,0
		c0.002,0,0.004,0.001,0.006,0c0.001,0,0.002,0,0.002,0c0.003,0,0.007,0.001,0.01,0.001c0.001,0,0.002,0,0.003,0h0.001
		c0.002,0,0.005,0,0.007,0c0.097-0.009,0.22,0.06,0.313,0.085c1.476,0.402,2.904,0.319,4.245-0.244
		c0.133-0.073,0.308-0.17,0.443-0.245c0.001,0,0.002-0.001,0.003-0.002h0l0.002-0.001l0.006-0.01l21.264-20.218
		c0-0.002,0.006-0.009,0.006-0.012l0.008,0.006c0.125-0.083,0.291-0.195,0.416-0.279C99.99,63.866,100.49,62.574,100.35,60.753z"/>
	<path fill="#57B8C8" d="M100.25,60.078c-0.033-0.224-0.076-0.457-0.135-0.7c-0.018-0.064-0.033-0.136-0.051-0.198
		c-0.002-0.011-0.006-0.024-0.008-0.035c-0.012-0.04-0.021-0.077-0.033-0.117c-0.006-0.018-0.012-0.031-0.016-0.049
		c-0.092-0.297-0.186-0.553-0.275-0.785l-6.93-6.06l0,0c-0.025-0.006-0.049-0.015-0.076-0.021l-0.131-0.03
		c-0.012-0.002-0.025-0.004-0.035-0.006c-0.004,0-0.008-0.001-0.01-0.002c-0.258-0.056-0.521-0.106-0.801-0.144
		c-0.027-0.003-0.059-0.006-0.09-0.009c-0.166-0.021-0.332-0.025-0.498-0.038c-2.34-0.04-3.424,0.706-4.316,1.842l-0.002,0.006
		L65.572,73.958c0.022,0.003,0.045,0.006,0.068,0.009c-0.026-0.004-0.048,0-0.074-0.004c-0.079,0.13-0.184,0.301-0.263,0.428
		c-2.73,6.158,5.817,11.291,7.351,11.165c0.003,0,0.007,0,0.009,0c0.002-0.001,0.006,0,0.008-0.001c0.003,0,0.007,0.001,0.01,0
		c0,0,0.002,0,0.002,0c0.001,0,0.003,0,0.004,0c0,0,0.001,0,0.001,0c0.044-0.006,0.102,0.023,0.146,0.033
		c1.848,0.407,3.017-0.024,3.645-0.256c0.136-0.072,0.313-0.297,0.454-0.244c0.001,0,0.002,0,0.002,0l-0.005-0.059
		c0.004,0.017,0.008,0.034,0.012,0.051c0,0.001,0.001,0.003,0.001,0.005l0,0.001l21.274-20.227l0.004-0.002
		c0.127-0.084,0.295-0.195,0.422-0.279C99.166,64.133,100.648,62.854,100.25,60.078z"/>
	<path fill="#5EBBCB" d="M99.785,58.362c-0.02-0.057-0.031-0.111-0.053-0.168c-0.043-0.114-0.09-0.234-0.129-0.333
		c-0.004-0.012-0.01-0.021-0.016-0.033c-0.006-0.011-0.012-0.021-0.016-0.033c-0.043-0.095-0.088-0.181-0.133-0.272l-5.768-5.134
		c-0.029-0.01-0.055-0.021-0.084-0.031l-0.15-0.049c-0.031-0.01-0.068-0.018-0.102-0.028c-0.17-0.052-0.348-0.102-0.529-0.146
		c-0.002,0-0.002,0-0.002,0h-0.002v0c-2.592-0.524-4.311-0.016-5.562,1.652c-0.004-0.001,0.01,0.02,0.01,0.025l-0.018-0.017
		l-21.27,20.222c0,0,0.001,0,0.001,0l-0.005,0.009c0,0,0,0,0,0l0,0.001h0c0,0.001-0.001,0.002-0.001,0.003s-0.001,0.002-0.001,0.003
		h0c0,0.001,0,0.001,0,0.001c-0.016,0.026-0.035,0.057-0.049,0.081c-3.263,5.823,5.867,11.27,7.414,11.062c0.003,0,0.007,0,0.011,0
		c0.005-0.001,0.012-0.001,0.017-0.002c0.004-0.001,0.009,0,0.013-0.001c0.001,0,0.002,0,0.002,0
		c1.05-0.227,2.163,0.118,3.187-0.348c0.087-0.042,0.201-0.175,0.291-0.148h0.001h0.001h0.01l21.268-20.221l0.018,0.028
		c-0.002-0.013-0.004-0.025-0.008-0.038c0.129-0.081,0.301-0.189,0.43-0.27C100.227,62.816,100.631,60.856,99.785,58.362z"/>
	<path fill="#64BECE" d="M99.715,58.214c-0.154-0.628-0.52-1.231-0.863-1.764l-0.031-0.048c-0.031-0.047-0.062-0.088-0.092-0.134
		c0,0-2.686-2.688-2.68-2.685c0.023,0.015,0.047,0.025,0.07,0.041c-0.141-0.098-0.303-0.203-0.488-0.316
		c-0.041-0.024-0.074-0.046-0.115-0.071c-0.254-0.15-0.557-0.305-0.895-0.462c-0.111-0.051-0.213-0.103-0.33-0.153
		c-0.023-0.009-0.043-0.018-0.066-0.027c-0.115-0.047-0.242-0.089-0.363-0.134c-0.02-0.007-0.037-0.013-0.055-0.02
		c-0.045-0.017-0.088-0.034-0.135-0.05c-0.057-0.019-0.115-0.036-0.174-0.054c-1.875-0.57-4.256-0.668-5.867,1.532
		c0,0-21.276,20.229-21.253,20.235c0,0-0.032,0.011-0.033,0.014c-0.071,0.134-0.161,0.306-0.229,0.436
		c-2.257,6.017,6.229,10.55,7.919,10.204c0.725-0.199,1.492-0.059,2.215-0.273c0.143-0.062,0.333-0.267,0.488-0.215
		c0,0,21.27-20.224,21.278-20.229c0.131-0.08,0.307-0.187,0.438-0.268c0.295-0.182,0.58-0.528,0.799-0.795
		c0.229-0.279,0.414-0.589,0.551-0.922c0.295-0.71,0.365-1.48,0.268-2.239c-0.068-0.529-0.18-1.086-0.346-1.593
		c0.01,0.07,0.027,0.139,0.033,0.209C99.746,58.358,99.732,58.286,99.715,58.214z"/>
	<path fill="#6AC1D0" d="M99.783,58.582c-0.004-0.03-0.012-0.059-0.016-0.089c0.002,0.019,0,0.04,0.002,0.059
		c0,0.015-0.002,0.031,0,0.045c-0.002-0.025-0.002-0.051-0.006-0.077c-0.004-0.013-0.008-0.026-0.012-0.039
		c-0.025-0.089-0.053-0.183-0.076-0.261c-0.129-0.348-0.303-0.804-0.582-1.329c-0.105-0.199-0.223-0.405-0.365-0.624
		c-0.029-0.042-0.059-0.083-0.088-0.125c-0.08-0.121-0.166-0.242-0.26-0.368c-0.035-0.045-0.068-0.084-0.104-0.128
		c-0.08-0.103-0.166-0.207-0.256-0.312c-0.113-0.12-0.225-0.241-0.332-0.363c-0.082-0.084-0.156-0.168-0.242-0.254l-0.141-0.107
		c0.377,0.37-3.139-1.984-3.139-1.984c-2.561-0.989-4.891-0.547-6.145,1.34c-0.002-0.001-0.006-0.001-0.008-0.002l0.029,0.017
		c0.004,0.001,0.008,0.003,0.014,0.004l0.002,0.001c-0.004-0.001-0.01-0.003-0.014-0.004c-0.01-0.003-0.02-0.006-0.031-0.009
		L66.748,74.197c0.014,0.004,0.027,0.009,0.041,0.013c0.002,0.001,0.005,0.002,0.008,0.002c-0.003,0.001-0.013,0.005-0.015,0.004
		c-0.002,0-0.005-0.001-0.007-0.002c-0.01-0.003-0.02-0.006-0.03-0.009v0.001h0c-0.066,0.14-0.153,0.322-0.218,0.46
		c-2.038,6.116,6.506,10.061,8.147,9.628c0.005-0.001,0.01-0.002,0.015-0.003c0.008-0.002,0.019-0.003,0.026-0.006
		c0.003-0.001,0.007-0.001,0.01-0.002c0.571-0.195,1.191-0.16,1.757-0.377c0.034-0.015,0.077-0.055,0.113-0.05
		c0-0.002,0.005-0.014,0.006-0.018c0.001,0.005,0.004,0.01,0.005,0.015l21.271-20.225l0.006-0.006
		c0.135-0.078,0.312-0.182,0.445-0.26C99.271,62.648,100.453,61.375,99.783,58.582z"/>
	<path fill="#71C4D3" d="M99.775,59.094c0.004-0.027-0.002-0.051,0-0.078c-0.002,0.011-0.004,0.021-0.004,0.032l-0.002,0.003
		c-0.002-0.011-0.002-0.022-0.004-0.032c0-0.001,0-0.003,0-0.004c-0.217-1.034-0.643-1.967-1.182-2.806l-0.043-0.063
		c-0.365-0.558-0.771-1.081-1.234-1.534c-0.229-0.22-0.461-0.419-0.695-0.606c-0.062-0.051-0.121-0.113-0.186-0.162
		c-0.039-0.03-0.07-0.053-0.117-0.087c-0.082-0.06-0.168-0.11-0.252-0.167c-0.004-0.002-0.01-0.005-0.014-0.008
		c-0.361-0.234-0.725-0.448-1.082-0.626c-0.014-0.006-0.025-0.013-0.037-0.018c-0.256-0.125-0.506-0.213-0.756-0.31
		c-2.182-0.768-4.447-0.442-5.742,1.463l-0.002,0l0.002,0L67.149,74.32c0,0,0,0,0,0c0.001,0.001,0.002,0.001,0.003,0.002
		l-0.009,0.011c0,0.001-0.001,0.002-0.001,0.003h0c-0.062,0.143-0.141,0.327-0.202,0.468c-1.792,5.621,6.276,9.882,8.461,8.939
		l0.039-0.015c0.004-0.002,0.009-0.003,0.013-0.005c0.275-0.134,0.696-0.413,0.979-0.299c-0.003-0.007,0.004-0.017,0.003-0.024
		c0.003,0.009,0.008,0.019,0.011,0.027l21.268-20.222l0.01-0.01c0.137-0.075,0.318-0.174,0.455-0.249
		C99.27,62.157,99.957,61.199,99.775,59.094z"/>
	<path fill="#77C8D5" d="M99.627,59.751c0-0.005-0.002-0.011-0.002-0.017c0.23-5.005-7.062-9.537-10.199-6.304
		c-0.25,0.258-0.371,0.452-0.59,0.805c-0.006-0.002-0.012-0.003-0.018-0.005c0-0.001-0.002-0.001-0.004-0.001l-0.016,0.001
		c0.002,0.001,0.006,0.002,0.008,0.003c0.008,0.002,0.016,0.005,0.021,0.008l-21.27,20.224h0c0.002,0.001,0.002,0.017,0.004,0.021
		c-0.003-0.002-0.007-0.003-0.01-0.004c-0.054,0.149-0.124,0.341-0.177,0.487c-1.084,4.501,4.315,9.373,8.89,8.021h0h0.001
		l21.276-20.23c0.012-0.005,0.025-0.011,0.039-0.017c-0.012,0.011-0.021,0.021-0.031,0.032c0.012-0.011,0.023-0.022,0.035-0.034
		c1.527-1.076,1.846-1.3,2.041-2.95c0.02-0.061,0.027-0.119,0.043-0.18C99.658,59.658,99.641,59.705,99.627,59.751z"/>
	<path fill="#7ECBD8" d="M93.879,52.739c-3.125-0.752-4.168,0.945-4.613,1.67c-0.01-0.004-0.02-0.007-0.029-0.011
		c0.008,0.003,0.016,0.008,0.023,0.011L67.984,74.638c0.001,0.001,0.002,0.001,0.004,0.002h0l-0.002,0.006c0,0.001,0,0.001,0,0.001
		c0,0.002-0.001,0.004-0.001,0.005c-0.048,0.146-0.11,0.336-0.158,0.479c-0.689,4.215,3.985,8.424,8.208,7.402
		c0,0,0.001,0,0.002-0.001c0.001,0,0.001,0,0.002,0c0.001-0.001,0.003-0.001,0.004-0.001c0,0,0.001,0,0.001,0
		c-0.003-0.006-0.006-0.012-0.008-0.018c0.005,0.006,0.015,0.008,0.019,0.016h0c0,0.001,0.001,0.003,0.002,0.004l21.27-20.225
		l0.004-0.009c0.145-0.068,0.336-0.159,0.48-0.227C101.738,59.593,97.912,53.71,93.879,52.739z"/>
	<path fill="#84CEDB" d="M94.449,53.059c-3.301-1.038-4.379,0.914-4.732,1.556c-0.033-0.017-0.035-0.009-0.006,0.004L68.438,74.844
		c0.001,0,0.001,0.001,0.002,0.001l-0.002,0.009c0,0.002-0.001,0.005-0.002,0.007c-0.039,0.164-0.089,0.376-0.128,0.537
		c-0.429,3.041,2.894,7.404,7.489,6.665l0.022-0.003l21.275-20.228c0.002,0.004,0.004,0.008,0.006,0.012l-0.004-0.015
		c0.115-0.051,0.27-0.12,0.387-0.171C101.006,59.92,98.428,54.31,94.449,53.059z"/>
	<path fill="#8AD1DD" d="M94.301,53.195c-2.814-0.765-3.756,0.996-4.109,1.659c-0.004-0.002-0.008-0.004-0.014-0.006
		c-0.029-0.016-0.004,0.003,0.016,0.014L68.92,75.088c0.007,0.004,0.013,0.008,0.02,0.012c0.015,0.008,0.027,0.026-0.028-0.004
		c-0.007,0.029-0.015,0.063-0.021,0.09c-0.458,3.869,3.35,6.867,6.64,6.376c-0.004-0.008-0.009-0.016-0.014-0.023
		c-0.016-0.028-0.001-0.023,0.025,0.022h0c0,0.001,0.001,0.002,0.001,0.003l21.272-20.227c0.018,0.029,0.014,0.011,0.004-0.007
		c0.15-0.066,0.35-0.153,0.5-0.219C100.795,59.158,97.734,54.128,94.301,53.195z"/>
	<path fill="#91D4E0" d="M94.865,53.613c-2.977-1.046-3.816,0.835-4.133,1.544c-0.01-0.005-0.02-0.009-0.027-0.015
		c0.006,0.004,0.014,0.007,0.02,0.011l-21.277,20.23c0.001,0.001,0.002,0.001,0.003,0.002s0.002,0.001,0.004,0.002
		c0.012,0.007,0.024,0.016,0.036,0.022c0.002,0.002,0.049,0.044-0.037-0.007c-0.014,0.134-0.032,0.307-0.046,0.438
		c0.104,2.594,2.451,5.284,5.782,5.17c-0.032-0.05-0.011-0.051,0.021,0h0c0.001,0.002,0.003,0.005,0.004,0.008
		c0.002,0.003,0.005,0.007,0.007,0.011l21.272-20.226c0.025,0.041,0.02,0.017-0.006-0.022c0.158-0.057,0.369-0.133,0.527-0.19
		C100.158,59.089,97.814,54.65,94.865,53.613z"/>
	<path fill="#97D8E3" d="M94.939,53.941c-1.828-0.669-3.037-0.132-3.6,1.596c-0.023-0.016,0.016,0.015-0.014-0.004L70.052,75.76
		c0.003,0.002,0.005,0.004,0.008,0.006c0.001,0.001,0.003,0.001,0.004,0.002c0.02,0.014,0.02,0.018,0,0.004c0,0.001,0,0.002,0,0.002
		c0,0.001,0,0.002,0,0.004c0.007,0.184,0.017,0.423,0.024,0.604c0.308,1.35,1.33,3.663,4.703,4.019
		c0.002,0.001,0.004,0.001,0.007,0.002c0.001,0,0.002,0,0.003,0c-0.06-0.086,0.002,0.001,0.002,0.001s0,0,0.001,0
		c0.001,0.002,0.003,0.005,0.004,0.007c0.002,0.004,0.005,0.007,0.008,0.011l21.275-20.228c-0.064-0.092-0.062-0.093,0.002-0.001
		c-0.004-0.006-0.008-0.013-0.012-0.019c0.152-0.037,0.355-0.087,0.508-0.125C99.801,58.6,97.438,54.857,94.939,53.941z"/>
	<path fill="#9EDBE5" d="M95.766,54.731c-0.033-0.02-3.186-1.918-3.672,1.333c-0.053-0.04-0.031-0.019-0.014-0.005L70.806,76.287
		c0.002,0.001,0.003,0.003,0.005,0.004c0.002,0.002,0.004,0.003,0.005,0.004v0.001c0.015,0.011,0.016,0.016,0.001,0.005
		c0,0.001,0,0.003,0,0.004c0.033,0.151,0.075,0.35,0.108,0.499c0.762,1.661,1.568,2.354,3.313,2.846c0.001,0,0.002,0,0.003,0.001
		c-0.01-0.013-0.009-0.016,0.004,0.001c0.001,0,0.002,0.001,0.003,0.001c0.004,0.005,0.007,0.011,0.011,0.016l21.276-20.229
		c0.012,0.015,0.006,0.003-0.01-0.018c0.127-0.009,0.297-0.022,0.426-0.032C98.756,58.72,97.531,55.817,95.766,54.731z"/>
	<path fill="#A4DEE8" d="M94.424,58.144c-0.309-0.328-0.631-0.641-0.961-0.942c-0.037-0.033-0.074-0.065-0.109-0.098L72.081,77.33
		c0.004,0.004,0.008,0.008,0.012,0.012c0.006,0.006,0.012,0.01,0.018,0.016c0.002,0.003,0.004,0.006,0.006,0.009
		c0.024,0.021,0.045,0.046,0.069,0.067c0.326,0.298,0.645,0.606,0.952,0.93c0.011,0.013,0.024,0.023,0.036,0.035L94.447,58.17
		C94.439,58.162,94.434,58.152,94.424,58.144z"/>
</g>
<radialGradient id="SVGID_1_" cx="-38.3604" cy="601.416" r="20.999" gradientTransform="matrix(1.4286 0 0 0.1905 134.8018 5.4305)" gradientUnits="userSpaceOnUse">
	<stop  offset="0" style="stop-color:#000000;stop-opacity:0.25"/>
	<stop  offset="1" style="stop-color:#000000;stop-opacity:0"/>
</radialGradient>
<ellipse fill="url(#SVGID_1_)" cx="80" cy="120" rx="30" ry="4"/>
</svg>
