<?xml version="1.0" encoding="utf-8"?>
<!-- Generator: Adobe Illustrator 15.0.2, SVG Export Plug-In . SVG Version: 6.00 Build 0)  -->
<!DOCTYPE svg PUBLIC "-//W3C//DTD SVG 1.1//EN" "http://www.w3.org/Graphics/SVG/1.1/DTD/svg11.dtd">
<svg version="1.1" id="レイヤー_1" xmlns="http://www.w3.org/2000/svg" xmlns:xlink="http://www.w3.org/1999/xlink" x="0px"
	 y="0px" width="160px" height="160px" viewBox="0 0 160 160" enable-background="new 0 0 160 160" xml:space="preserve">
<radialGradient id="SVGID_1_" cx="-38.3604" cy="601.416" r="20.999" gradientTransform="matrix(1.4286 0 0 0.1905 134.8018 5.4305)" gradientUnits="userSpaceOnUse">
	<stop  offset="0" style="stop-color:#000000;stop-opacity:0.25"/>
	<stop  offset="1" style="stop-color:#000000;stop-opacity:0"/>
</radialGradient>
<ellipse fill="url(#SVGID_1_)" cx="80" cy="120" rx="30" ry="4"/>
<g>
	<g>
		<path fill="#8FD3DF" d="M89.602,51.115c0.938,2.006,0.096,4.374-1.879,5.295c-1.969,0.918-4.325,0.041-5.262-1.965
			c-0.934-1.998-0.094-4.366,1.875-5.284C86.312,48.24,88.668,49.117,89.602,51.115z"/>
		<g>
			<g>
				<path fill="#2AA1B6" d="M98.461,78.015c-0.021,0-0.048,0.001-0.068,0.001c-0.004,0-0.006,0.001-0.01,0.001l-12.529-0.995
					l-12.331-6.112l-6.691-3.715c-0.01,0.041-0.021,0.083-0.03,0.124c-0.012,0.057-0.025,0.114-0.035,0.17
					c-0.015,0.087-0.026,0.17-0.036,0.253c-0.003,0.026-0.009,0.055-0.011,0.081c-0.032,0.32-0.027,0.607-0.002,0.861
					c0.005,0.056,0.012,0.107,0.019,0.159c0.013,0.104,0.029,0.211,0.05,0.32c0.01,0.054,0.02,0.105,0.031,0.155
					c0.012,0.058,0.024,0.116,0.036,0.166l0.106,0.352c0.074,0.202,0.14,0.358,0.205,0.502c0.002,0.005,0.004,0.01,0.007,0.015
					c0.145,0.318,0.286,0.549,0.51,0.906l0.278,0.384c0.194,0.238,0.464,0.545,0.67,0.773l0.464,0.46
					c0.199,0.187,0.473,0.425,0.677,0.604l0.626,0.512c0.223,0.175,0.526,0.4,0.751,0.57l0.454,0.324l0.308,0.221
					c0.252,0.175,0.594,0.4,0.848,0.572l0.88,0.567c0.283,0.178,0.664,0.409,0.948,0.584l0.987,0.584
					c0.311,0.182,0.729,0.415,1.042,0.593l1.082,0.592c0.013,0.007,0.029,0.016,0.042,0.022c0.331,0.182,0.761,0.402,1.085,0.573
					l1.167,0.594c0.352,0.195,0.842,0.414,1.204,0.592l1.237,0.588c0.368,0.182,0.872,0.398,1.247,0.569l1.225,0.539
					c0.362,0.154,0.846,0.357,1.207,0.511l1.178,0.477c0.346,0.137,0.808,0.314,1.154,0.449l1.11,0.411l0.004,0.001
					c0.327,0.117,0.766,0.268,1.095,0.383l1.038,0.342c0.308,0.1,0.72,0.223,1.028,0.317l0.949,0.268
					c0.291,0.079,0.681,0.174,0.973,0.247l0.846,0.188c0.265,0.053,0.606,0.112,0.884,0.161c0.023,0.005,0.053,0.01,0.075,0.014
					l0.332,0.045l0.257,0.034l0.14,0.019c0.328,0.031,0.768,0.059,1.097,0.073l0.581-0.009c0.798-0.057,1.033-0.115,1.656-0.288
					l0.4-0.146c0.033-0.014,0.058-0.029,0.09-0.044c0.023-0.011,0.043-0.021,0.065-0.032c0.121-0.056,0.241-0.111,0.345-0.168
					c0.042-0.023,0.079-0.046,0.118-0.069c0.016-0.01,0.029-0.019,0.045-0.028c0.023-0.016,0.046-0.029,0.069-0.045
					c0.002-0.001,0.005-0.003,0.007-0.004c0.004-0.003,0.009-0.006,0.014-0.009c0.02-0.013,0.04-0.024,0.059-0.037
					c0.046-0.03,0.101-0.062,0.144-0.092c0.02-0.014,0.036-0.027,0.056-0.042c0.047-0.034,0.086-0.067,0.129-0.102
					c0.004-0.003,0.008-0.006,0.012-0.009c0.034-0.028,0.073-0.057,0.105-0.084c0.011-0.009,0.024-0.018,0.035-0.026
					c0.083-0.071,0.155-0.138,0.226-0.201c0.014-0.014,0.031-0.028,0.045-0.041l0.248-0.269L98.461,78.015z"/>
				<path fill="#31A4B8" d="M98.34,78.011c-0.034-0.001-0.068-0.002-0.098-0.003l-0.188-0.019c-0.083-0.01-0.146-0.021-0.223-0.032
					c-0.104-0.015-0.214-0.029-0.304-0.045c-0.005-0.001-0.012-0.001-0.017-0.002c-0.038-0.007-0.063-0.012-0.099-0.019
					c-0.121-0.021-0.238-0.044-0.325-0.062c-0.092-0.019-0.211-0.045-0.302-0.064c0.032,0.007,0.062,0.02,0.095,0.028
					c0.046,0.014,0.094,0.025,0.139,0.042c-0.026,0.012-15.801-3.773-22.774-7.866c0.085,0.05-0.112,0.159-0.166,0.241
					c-0.064,0.1-0.126,0.199-0.199,0.291c-0.087,0.109-0.184,0.207-0.281,0.307l-0.078,0.101c-1.591,1.648-2.39,2.476,1.797,5.296
					c3.169,2.134,10.836,6.098,15.047,6.046c0.647-0.008,1.73-0.021,3.254-1.767c0.091-0.104,0.19-0.277,0.316-0.349l0.059-0.034
					c0.087-0.075,0.2-0.173,0.286-0.247c0.021-0.017,0.048-0.04,0.069-0.057c1.068-0.901,2.077-1.753,4.031-1.781
					c0.004,0,0.006-0.001,0.01-0.001c0.021,0,0.048-0.001,0.068-0.001C98.424,78.016,98.382,78.013,98.34,78.011z"/>
				<path fill="#37A8BB" d="M96.786,77.766c0.091,0.02,0.21,0.046,0.302,0.064c-0.201-0.042-0.467-0.104-0.666-0.149l-0.678-0.174
					c-0.24-0.065-0.56-0.157-0.8-0.226l-0.827-0.255c-0.181-0.058-0.394-0.129-0.601-0.197c0.027,0.009,0.056,0.021,0.083,0.029
					c-0.041-0.014-0.082-0.028-0.122-0.042c0.013,0.004,0.025,0.008,0.039,0.013c-0.726-0.249-1.455-0.504-2.205-0.789
					c-0.04-0.015-0.081-0.029-0.12-0.045c-0.859-0.328-1.735-0.687-2.617-1.059l-3.034-1.365c-0.161-0.072-0.321-0.144-0.481-0.216
					c-2.06-0.984-3.99-2.006-5.782-3.062l-4.585-2.058c0.111,0.05-0.122,0.922-0.153,1.021c-0.092,0.297-0.26,0.558-0.368,0.827
					c-0.58,0.875-1.172,1.728-1.31,2.798c-0.101,0.777,0.438,1.364,0.982,1.844c0.556,0.489,1.17,0.906,1.774,1.332
					c2.765,1.947,11.3,6.438,15.05,5.481c0.996-0.255,1.541-1.262,2.535-1.519l0.076-0.061c0.085-0.073,0.197-0.171,0.282-0.244
					c1.116-0.911,1.207-0.985,1.585-1.19c0.795-0.433,1.557-0.622,1.783-0.659c0.029-0.005,0.065-0.02,0.092-0.031
					c-0.045-0.017-0.093-0.028-0.139-0.042C96.849,77.785,96.818,77.772,96.786,77.766z"/>
				<path fill="#3EABBE" d="M94.336,77.326c-0.125-0.09-0.28-0.2-1.574-0.689c-1.316-0.498-2.587-1.013-3.826-1.537l-3.877-1.744
					c-2.06-0.984-3.99-2.006-5.782-3.062c-0.736-0.435-1.457-0.872-2.146-1.316l-2.446-0.455l-0.018,0.188
					c-0.054,0.385-0.072,0.45-0.212,0.964c-0.032,0.098-0.075,0.226-0.109,0.326l-0.004,0.013C73.608,72,73.608,72,73.587,72.141
					c-0.457,3.076,12.589,11.251,18.101,7.725c0.104-0.065,0.241-0.152,0.344-0.217l0.004-0.002c0.666-0.501,2.045-1.541,2.35-1.849
					C94.57,77.611,94.457,77.414,94.336,77.326z"/>
				<path fill="#44AEC0" d="M93.576,77.372c-0.136-0.3-0.15-0.312-3.658-1.799l-6.486-2.99c-2.549-1.289-4.608-2.487-6.158-3.51
					c-0.002-0.002-0.005-0.003-0.007-0.005c-0.051-0.034-0.102-0.067-0.152-0.102c-0.026-0.017-0.049-0.033-0.075-0.051
					c-0.647-0.434-1.207-0.837-1.666-1.197c-0.016-0.013-0.029-0.024-0.044-0.036c-0.113-0.091-0.224-0.18-0.327-0.267
					c-0.156-0.131-0.3-0.255-0.427-0.372c-0.019-0.018-0.042-0.037-0.061-0.054l-0.076-0.083l-0.037-0.04l-0.115-0.125
					c0.016,0.025,0.026,0.041,0.038,0.061c0.011,0.017,0.023,0.036,0.031,0.05c0.001,0.003,0.003,0.005,0.004,0.008
					c0.016,0.027,0.03,0.053,0.043,0.079c0.006,0.012,0.013,0.026,0.019,0.04c0.01,0.021,0.023,0.052,0.037,0.084
					c0.001,0.005,0.003,0.007,0.005,0.012c0.006,0.013,0.009,0.021,0.016,0.036l0.052,0.143c0.048,0.154,0.073,0.247,0.093,0.344
					c0.004,0.02,0.007,0.038,0.011,0.058s0.007,0.036,0.011,0.058c0.002,0.013,0.004,0.025,0.006,0.038
					c0.007,0.044,0.014,0.09,0.023,0.149c0.001,0.011,0,0.021,0.001,0.031c0.005,0.039,0.002,0.078,0.006,0.117
					c0.005,0.062,0.007,0.124,0.009,0.188c0,0.004,0,0.009,0.001,0.014c0.017,0.642-0.126,1.286-0.198,1.588
					c-0.029,0.1-0.066,0.229-0.096,0.331l-0.004,0.013c-0.128,0.436-0.288,0.86-0.397,1.301c-0.217,0.869-0.792,3.178,6.452,6.652
					c5.034,2.414,8.524,2.926,10.67,1.561c0.104-0.063,0.24-0.149,0.344-0.213l0.004-0.002
					C93.312,78.092,93.752,77.761,93.576,77.372z"/>
				<path fill="#4AB1C3" d="M92.405,76.865c-0.19-0.142-0.478-0.276-0.686-0.389c-0.591-0.321-1.196-0.611-1.802-0.903
					c-0.328-0.158-0.652-0.321-0.982-0.474c0,0,0,0-0.001-0.001c-0.062-0.028-0.126-0.057-0.189-0.085
					c-0.058-0.026-0.114-0.052-0.171-0.077c-1.01-0.46-2.021-0.913-3.034-1.365c-0.161-0.072-0.321-0.144-0.481-0.216
					c-0.547-0.247-1.086-0.511-1.627-0.772c-0.484-0.233-0.972-0.46-1.447-0.712c-4.431-2.354-6.48-3.969-7.003-4.408
					c-0.126-0.106-0.305-0.236-0.449-0.314c0.135,0.512,0.152,0.578,0.193,0.893c0.094,0.729-0.063,1.502-0.156,1.965
					c-0.024,0.102-0.057,0.235-0.082,0.34l-0.003,0.012c-0.478,2.098-0.855,3.754,3.814,6.415c3.136,1.786,8.896,4.519,12.247,2.735
					c0.112-0.059,0.262-0.137,0.374-0.195l0.009-0.006C93.432,77.627,92.934,77.258,92.405,76.865z"/>
				<path fill="#51B4C6" d="M91.307,76.48c-0.9-0.562-1.836-1.051-2.787-1.51c-0.302-0.146-0.605-0.291-0.91-0.432
					c-0.508-0.233-1.018-0.462-1.527-0.689c-0.285-0.126-0.568-0.254-0.853-0.381c-1.083-0.483-2.162-0.978-3.21-1.535
					c-3.834-2.039-5.817-3.477-6.564-4.018c-0.175-0.127-0.385-0.421-0.6-0.399c-0.033,0.003-0.067,0.044-0.08,0.075
					c-0.139,0.334,0.055,0.646,0.064,0.972c0.017,0.575-0.078,1.13-0.188,1.774c-0.012,0.061-0.028,0.139-0.042,0.2l-0.001,0.007
					c-0.294,1.662-0.627,3.548,3.819,6.086c5.029,2.871,9.24,3.852,11.552,2.688c0.115-0.057,0.268-0.133,0.383-0.189l0.008-0.005
					c0.828-0.523,1.053-0.665,1.393-1.04C92.527,77.244,91.851,76.82,91.307,76.48z"/>
				<path fill="#57B8C8" d="M90.131,76.041c-2.594-1.547-5.425-2.62-8.084-4.037c-1.559-0.831-2.812-1.562-3.756-2.136l-0.084-0.052
					c-0.9-0.551-1.511-0.955-1.814-1.156c-0.958-0.635-1.214-0.806-1.34-0.742c-0.079,0.04-0.08,0.227-0.083,0.842
					c-0.003,0.544-0.076,1.062-0.153,1.609c-0.017,0.106-0.039,0.247-0.055,0.355l-0.001,0.009
					c-0.161,1.419-0.381,3.362,3.798,5.753c4.568,2.611,8.629,3.596,10.867,2.633c0.122-0.052,0.285-0.121,0.406-0.174l0.006-0.004
					c0.449-0.264,1.273-0.75,1.527-1.297C91.651,77.025,91.232,76.697,90.131,76.041z"/>
				<path fill="#5EBBCB" d="M89.176,75.706c-1.851-1.051-3.777-1.952-5.681-2.901l-3.775-2.057
					c-1.261-0.768-2.498-1.573-3.803-2.266c-0.528-0.279-0.611-0.203-0.662-0.158c-0.082,0.074-0.115,0.473-0.125,0.641
					c-0.034,0.532-0.068,0.844-0.15,1.598c-0.012,0.109-0.027,0.255-0.04,0.364l0,0.006c-0.349,5.698,10.944,9.052,14.034,7.933
					c0.092-0.035,0.215-0.082,0.309-0.117l0.008-0.004c0.525-0.281,1.604-0.861,1.508-1.59
					C90.744,76.73,90.334,76.364,89.176,75.706z"/>
				<path fill="#64BECE" d="M89.994,76.641c-0.303-0.426-1.132-0.91-1.141-0.916l-5.358-2.92l-3.775-2.057l-3.754-2.046
					c-0.354-0.18-0.568-0.019-0.639,0.479c-0.01,0.072-0.141,1.222-0.152,1.586c-0.006,0.109-0.015,0.252-0.021,0.364l-0.001,0.014
					c0.084,5.444,10.531,8.367,13.122,7.54c0.136-0.043,0.315-0.101,0.45-0.145l0.009-0.004
					C89.271,78.272,90.666,77.582,89.994,76.641z"/>
				<path fill="#6AC1D0" d="M89.219,76.334c-0.909-1.029-12.505-7.082-12.615-7.135c-0.513-0.248-0.957-0.462-1.101,0.518
					c-0.043,0.292-0.105,1.023-0.103,1.268c-0.001,0.112-0.003,0.26-0.004,0.373v0.012c0.385,5.002,9.858,7.736,12.29,7.083
					c0.141-0.039,0.33-0.091,0.472-0.13l0.011-0.005C88.777,78.045,90.171,77.412,89.219,76.334z"/>
				<path fill="#71C4D3" d="M75.668,71.603c0.782,4.493,8.564,7.144,11.907,6.491l0.018-0.007c0.61-0.249,1.718-0.711,1.198-1.641
					c-0.682-1.224-11.216-6.578-11.321-6.631c-1.347-0.671-1.564-0.581-1.716,0.134c-0.123,0.578-0.103,1.156-0.087,1.621
					L75.668,71.603z"/>
				<path fill="#77C8D5" d="M75.998,71.868c1.024,4.29,8.318,6.358,10.412,6.048c0.16-0.025,0.374-0.059,0.534-0.083l0.012-0.004
					c0.514-0.17,1.557-0.523,1.311-1.294c-0.172-0.537-0.366-1.146-10.38-6.341c-0.872-0.452-1.613-0.765-1.851-0.003
					c-0.141,0.473-0.105,1.092-0.082,1.271c0.013,0.118,0.03,0.273,0.043,0.394L75.998,71.868z"/>
				<path fill="#7ECBD8" d="M76.359,72.145c0.876,3.018,6.086,5.567,9.578,5.461c0.107-0.014,0.252-0.031,0.36-0.046l0.016-0.005
					c0.567-0.17,1.596-0.485,1.232-1.316c-0.163-0.373-0.502-1.149-8.402-5.23c-2.211-1.142-2.541-1.041-2.764-0.537
					c-0.106,0.238-0.166,0.803-0.085,1.262c0.019,0.12,0.044,0.28,0.063,0.402L76.359,72.145z"/>
				<path fill="#84CEDB" d="M85.59,77.236c0.469-0.082,1.396-0.255,1.356-0.924c-0.046-0.786-1.979-1.996-4.868-3.569
					c-3.891-2.12-4.925-2.647-5.318-1.981c-0.226,0.383-0.123,1.112-0.075,1.273c0.036,0.128,0.083,0.293,0.12,0.423l0.003,0.011
					c1.624,3.582,6.866,4.777,8.128,4.778c0.188-0.002,0.44-0.005,0.63-0.007L85.59,77.236z"/>
				<path fill="#8AD1DD" d="M77.321,72.821c0.575,1.13,2.778,3.431,7.001,4.053c0.133,0.001,0.311,0.004,0.444,0.006l0.013-0.002
					c0.803-0.117,1.559-0.231,1.389-0.905c-0.237-0.95-3.099-2.51-5.624-3.885c-2.781-1.516-3.124-1.168-3.308-0.981
					c-0.307,0.311-0.145,1.043-0.064,1.274c0.043,0.13,0.102,0.301,0.146,0.433L77.321,72.821z"/>
				<path fill="#91D4E0" d="M82.02,73.098c-1.785-1.057-3.787-1.965-4.233-1.615c-0.322,0.254-0.259,0.887-0.017,1.328
					c0.077,0.14,0.177,0.321,0.254,0.462l0.006,0.011c1.655,2.205,4.31,2.909,5.746,3.133h0.013
					c0.759,0.019,1.413,0.032,1.562-0.457C85.542,75.328,84.273,74.432,82.02,73.098z"/>
				<path fill="#97D8E3" d="M79.068,73.92c1.315,1.168,1.898,1.363,3.454,1.882l0.018,0.003c0.102,0.022,1.744,0.346,1.85-0.293
					c0.141-0.842-4.812-3.838-5.822-3.522c-0.098,0.03-0.228,0.108-0.279,0.196c-0.136,0.234-0.004,0.676,0.389,1.314
					c0.113,0.122,0.262,0.28,0.377,0.404L79.068,73.92z"/>
				<path fill="#9EDBE5" d="M79.8,72.737c-0.168-0.019-0.443-0.083-0.562,0.038c-0.282,0.285,0.462,1.188,0.761,1.381
					c0.404,0.262,0.935,0.643,1.388,0.803c0.859,0.305,1.633,0.271,1.637,0.27c0.101-0.04,0.234-0.182,0.218-0.289
					C83.182,74.559,80.944,72.864,79.8,72.737z"/>
			</g>
			<g>
				<path fill="#2AA1B6" d="M102.721,84.314c-0.019,0.018-0.074,0.06-0.055,0.044c0.055-0.044-16.557-35.625-16.652-35.601
					c-0.012,0.003,0.021-0.009,0.034-0.012c0.011-0.002,0.019-0.007,0.028-0.009c-0.044,0.003-0.076,0.007-0.115,0.01
					c-0.031,0.002-0.061,0.005-0.089,0.008c-0.446,0.04-0.657,0.087-1.188,0.261c-0.09,0.039-0.197,0.085-0.3,0.129
					c-0.04,0.018-0.083,0.036-0.119,0.051c-1.917,0.941-2.726,3.276-1.804,5.25c0.521,1.117,1.488,1.867,2.579,2.169
					c0.005,0.001,0.011,0.003,0.016,0.004c0.055,0.059,0.114,0.125,0.175,0.193c0.033,0.037,0.067,0.076,0.102,0.115
					c0.014,0.016,0.03,0.034,0.043,0.048l0.208,0.254c0.124,0.152,0.253,0.319,0.38,0.488c0.045,0.059,0.091,0.12,0.13,0.171
					l0.407,0.568c0.098,0.138,0.209,0.305,0.317,0.465c0.057,0.084,0.113,0.167,0.17,0.253l0.258,0.399
					c0.11,0.171,0.22,0.341,0.329,0.518c0.107,0.173,0.216,0.348,0.316,0.511c0.002,0.005,0.006,0.01,0.009,0.015
					c0.013,0.021,0.029,0.048,0.042,0.068l0.51,0.858c0.161,0.275,0.369,0.648,0.527,0.926l0.172,0.314
					c0.133,0.238,0.261,0.473,0.387,0.705c0.158,0.301,0.36,0.679,0.514,0.969l0.541,1.061c0.185,0.318,0.381,0.77,0.543,1.1
					l0.539,1.133c0.121,0.356,0.365,0.799,0.522,1.141l0.496,1.122c0.136,0.331,0.327,0.77,0.466,1.099l0.436,1.07
					c0.126,0.31,0.284,0.727,0.405,1.038l0.37,0.997c0.104,0.287,0.236,0.671,0.338,0.959l0.299,0.9
					c0.062,0.192,0.133,0.424,0.199,0.64c0.012,0.041,0.025,0.083,0.037,0.122c0.01,0.031,0.021,0.068,0.03,0.098l0.222,0.779
					c0.037,0.135,0.077,0.294,0.117,0.451c0.007,0.028,0.015,0.058,0.021,0.087c0.018,0.067,0.035,0.139,0.051,0.198l0.141,0.621
					c0.035,0.173,0.076,0.404,0.109,0.578l0.057,0.408c0.001,0.01,0.002,0.021,0.003,0.032c-0.004,0.009-0.009,0.018-0.013,0.027
					c-0.452,1.021-0.49,2.227,0.025,3.329c0.934,1.998,3.289,2.875,5.258,1.957c0.023-0.011,0.048-0.021,0.072-0.033
					c0.112-0.06,0.199-0.108,0.284-0.157c0.035-0.021,0.069-0.041,0.108-0.065c0.028-0.017,0.054-0.034,0.08-0.051
					c0.066-0.043,0.136-0.091,0.208-0.145c0.037-0.027,0.074-0.056,0.111-0.086c0.04-0.031,0.081-0.066,0.122-0.101
					c0.044-0.037,0.093-0.079,0.143-0.123c0.009-0.008,0.016-0.014,0.024-0.021c0.002-0.001,0.003-0.003,0.005-0.004
					c0.02-0.017,0.032-0.028,0.053-0.046l0.223-0.231l0.015-0.015l0.017-0.018C102.726,84.312,102.724,84.312,102.721,84.314z"/>
				<path fill="#31A4B8" d="M103.656,82.702l-15.72-33.648c-0.286-0.108-0.573-0.193-0.859-0.243c0.003,0,0.007,0,0.009,0
					c-0.007-0.001-0.012-0.001-0.02-0.002c-0.127-0.019-0.246-0.032-0.363-0.042c-0.091-0.008-0.182-0.019-0.273-0.021
					c-0.084-0.003-0.166,0-0.249,0.001c-0.044,0.001-0.089-0.001-0.133,0c-0.013,0.003-0.021,0.009-0.034,0.012
					c-1.297,0.287-1.383,1.807-0.238,4.534c0.149,0.353,0.365,0.817,0.527,1.164l0.981,2.1l0.001,0.002l0.002,0.004l10.196,21.814
					l0.001,0.002l0.004,0.01l1.504,3.217c0.107,0.217,1.069,2.136,2.032,2.722c0.376,0.229,0.998,0.598,1.642,0.032
					c0.019-0.017,0.036-0.026,0.055-0.044c0.027-0.03,0.054-0.069,0.082-0.102c0.005-0.006,0.01-0.014,0.016-0.02
					c0.096-0.116,0.188-0.243,0.281-0.373c0.022-0.031,0.045-0.058,0.068-0.091l0.186-0.314c-0.002,0.002-0.004,0.004-0.005,0.006
					c0.098-0.18,0.189-0.375,0.273-0.587C103.638,82.794,103.642,82.742,103.656,82.702z"/>
				<path fill="#37A8BB" d="M89.168,49.659c-0.187-0.123-0.342-0.21-0.637-0.372l-0.398-0.181c-0.064-0.021-0.131-0.039-0.196-0.053
					c-1.077-0.234-2.216,0.5-1.344,3.56c0.767,2.686,11.857,26.078,12.853,27.828c2.208,3.889,3.714,3.186,4.211,2.261
					c0.003-0.006,0.007-0.011,0.01-0.017l0.075-0.196c0.149-0.535,0.165-0.651,0.242-1.208l0.033-0.474
					C104.002,81.025,89.086,49.606,89.168,49.659z"/>
				<path fill="#3EABBE" d="M104,79.787l-0.059-0.65c-0.033-0.271-0.09-0.629-0.131-0.898l-0.013-0.069
					c0.104,0.668-13.42-27.538-13.182-27.303c-0.193-0.189-0.401-0.388-0.577-0.549c-0.208-0.169-0.479-0.382-0.707-0.548
					c-0.021-0.015-0.045-0.035-0.065-0.049c-0.022-0.014-0.067-0.041-0.099-0.061c-0.082-0.053-0.192-0.111-0.328-0.176
					c-0.061-0.028-0.109-0.058-0.177-0.084c-1.274-0.491-2.587,0.492-1.354,4.16c1.257,3.738,10.088,22.162,10.464,22.945
					c4.27,8.901,5.736,6.363,6.085,5.374c0.019-0.056,0.035-0.123,0.051-0.189c0.013-0.055,0.024-0.109,0.036-0.155
					c0.031-0.217,0.057-0.508,0.071-0.726C104.021,80.502,104.012,80.093,104,79.787z"/>
				<path fill="#44AEC0" d="M103.798,78.169c-0.004-0.021-0.008-0.047-0.011-0.067l-0.117-0.604l-0.011-0.058
					c-0.006-0.028-0.015-0.063-0.021-0.094c-0.058-0.262-0.131-0.576-0.188-0.823l-0.159-0.615l-0.074-0.289
					c-0.081-0.297-0.196-0.689-0.28-0.984l-0.311-1.001c-0.102-0.318-0.246-0.739-0.351-1.056l-0.382-1.083
					c-0.122-0.337-0.291-0.786-0.417-1.123l-0.345-0.885l-0.104-0.266c-0.146-0.354-0.336-0.827-0.48-1.182l-0.512-1.204
					c-0.08-0.395-0.379-0.859-0.542-1.228l-0.571-1.245c-0.152-0.382-0.412-0.866-0.588-1.237l-0.593-1.202
					c-0.179-0.35-0.418-0.816-0.597-1.167l-0.595-1.123c-0.177-0.327-0.417-0.76-0.597-1.085l-0.458-0.802
					c0,0-3.405-5.188-3.405-5.188c-0.037-0.048-0.152-0.197-0.198-0.254c-0.019-0.023-0.04-0.052-0.058-0.074
					c-0.086-0.104-0.187-0.225-0.293-0.352c-0.058-0.067-0.117-0.136-0.178-0.208c-0.112-0.129-0.23-0.262-0.355-0.398l-0.021-0.022
					c-0.013-0.014-0.027-0.028-0.041-0.042c-0.003-0.004-0.007-0.007-0.011-0.011c-0.088-0.094-0.177-0.187-0.27-0.28
					c-0.018-0.017-0.034-0.034-0.052-0.051c-0.052-0.051-0.108-0.092-0.161-0.141c-0.195-0.182-0.391-0.353-0.584-0.511
					c-0.245-0.185-0.494-0.341-0.74-0.445c-0.033-0.014-3.191-1.206-1.123,4.78c0.296,0.859,2.119,4.922,4.24,9.521l4.295,9.162
					c1.342,2.807,2.442,5.038,2.913,5.845c2.388,4.098,3.858,3.432,4.303,2.506c0.132-0.275,0.195-0.62,0.222-0.99
					C104.038,79.778,103.901,78.837,103.798,78.169z"/>
				<path fill="#4AB1C3" d="M90.011,50.473c-1.661-1.129-2.589-0.061-2.112,2.432c0.174,0.902,1.988,5.721,4.35,11.165
					c1.421,3.083,2.974,6.4,4.295,9.162c2.928,5.687,5.773,9.867,7.027,7.993c0.463-0.691,0.367-2.282-0.113-4.387
					c0,0-7.457-18.369-7.559-18.369c-0.19-0.346-0.375-0.676-0.541-0.966c-0.038-0.066-0.074-0.125-0.112-0.191
					c-0.156-0.264-0.329-0.554-0.471-0.792l-0.575-0.93c-0.173-0.272-0.409-0.632-0.585-0.904l-0.555-0.815
					c-0.173-0.246-0.409-0.57-0.585-0.814l-0.342-0.446c-0.015-0.019-0.027-0.034-0.041-0.053
					C91.344,51.623,90.639,50.9,90.011,50.473z"/>
				<path fill="#51B4C6" d="M88.225,52.289c0.104,2.681,11.953,31.59,15.086,28.539c0.568-0.555,0.559-2.008,0.146-3.99
					c-0.336-1.477-0.863-3.205-1.527-5.068l-3.19-7.712c-0.236-0.508-0.477-1.013-0.721-1.515c-0.77-1.558-1.502-2.953-2.12-4.074
					c-1.711-3.055-3.414-5.585-4.777-6.873C88.721,49.328,88.177,51.058,88.225,52.289z"/>
				<path fill="#57B8C8" d="M98.916,64.438c-0.058-0.127-0.117-0.253-0.177-0.38c-3.889-8.222-8.678-15.081-9.882-12.549
					c-0.469,0.985-1.11,2.335,7.662,20.249c1.744,3.562,4.664,9.523,6.457,8.583c1.073-0.562,0.696-3.601-1.047-8.571
					c-0.802-2.247-1.797-4.679-2.896-7.079C98.995,64.605,98.956,64.521,98.916,64.438z"/>
				<path fill="#5EBBCB" d="M89.206,52.322c-0.172,0.719-0.694,2.906,7.495,19.335c1.562,3.132,4.467,8.96,6.138,8.011
					c2.329-1.322-3.289-15.195-7.995-22.81C90.133,49.236,89.287,51.984,89.206,52.322z"/>
				<path fill="#64BECE" d="M89.63,53.001c-0.44,2.739,10.245,27.699,13.042,25.952c2.325-1.488-4.434-17.321-8.938-23.659
					C90.189,50.307,89.677,52.71,89.63,53.001z"/>
				<path fill="#6AC1D0" d="M90.339,52.983c-1.794,1.947,9.301,25.61,11.87,25.32c0.301-0.034,0.658-0.325,0.651-1.515
					C102.822,70.539,92.407,50.737,90.339,52.983z"/>
				<path fill="#71C4D3" d="M90.811,53.627c-1.789,1.667,8.764,24.224,11.181,23.896c0.281-0.039,0.505-0.395,0.57-0.906
					C103.199,71.582,92.985,51.599,90.811,53.627z"/>
				<path fill="#77C8D5" d="M101.738,76.676c0.078-0.011,0.476-0.115,0.516-1.066c0.219-5.285-9.008-23.135-10.973-21.221
					C89.678,55.952,99.547,76.99,101.738,76.676z"/>
				<path fill="#7ECBD8" d="M101.453,75.777c0.004,0,0.387-0.11,0.424-0.689c0.306-4.873-8.182-21.619-10.092-19.909
					C90.293,56.517,99.508,76.152,101.453,75.777z"/>
				<path fill="#84CEDB" d="M101.166,74.775c0.113-0.03,0.268-0.073,0.332-0.652c0.42-3.827-7.552-19.528-9.172-18.064
					c-1.373,1.238,7.018,19.108,8.802,18.746C101.143,74.801,101.152,74.779,101.166,74.775z"/>
				<path fill="#8AD1DD" d="M92.918,57.056c-1.276,1,5.273,15.556,7.455,16.568c0.111,0.052,0.29,0.085,0.404,0.044
					c0.104-0.039,0.261-0.096,0.288-0.759C101.213,69.26,94.361,55.926,92.918,57.056z"/>
				<path fill="#91D4E0" d="M93.592,58.129c-1.186,0.735,4.239,12.967,6.309,14.227c0.111,0.068,0.306,0.137,0.427,0.087
					c0.085-0.035,0.146-0.164,0.175-0.251C101.203,70.041,94.938,57.293,93.592,58.129z"/>
				<path fill="#97D8E3" d="M94.363,59.528c-1.242,0.623,3.958,10.767,4.957,11.345c0.106,0.062,0.279,0.161,0.392,0.113
					c0.11-0.047,0.157-0.239,0.183-0.357C100.301,68.741,95.441,58.989,94.363,59.528z"/>
				<path fill="#9EDBE5" d="M95.41,61.52c-0.628,0.271,1.863,6.219,2.996,7.149c0.119,0.097,0.314,0.303,0.451,0.235
					c0.559-0.277-1.094-3.965-1.111-4.002S95.983,61.272,95.41,61.52z"/>
			</g>
		</g>
		<radialGradient id="SVGID_2_" cx="70.4375" cy="66.625" r="5.3081" gradientUnits="userSpaceOnUse">
			<stop  offset="0" style="stop-color:#ADDEE6"/>
			<stop  offset="1" style="stop-color:#2AA1B6"/>
		</radialGradient>
		<path fill="url(#SVGID_2_)" d="M72.407,64.478c1.999,0.931,2.877,3.285,1.956,5.261c-0.918,1.969-3.287,2.812-5.286,1.881
			c-2.007-0.936-2.885-3.289-1.967-5.258C68.031,64.386,70.399,63.543,72.407,64.478z"/>
	</g>
	<g>
		<path fill="#8FD3DF" d="M74.254,66.42c0.937,2.006,0.096,4.374-1.879,5.295c-1.968,0.918-4.325,0.041-5.262-1.965
			c-0.934-1.998-0.093-4.366,1.875-5.284C70.964,63.545,73.321,64.422,74.254,66.42z"/>
		<g>
			<g>
				<path fill="#2AA1B6" d="M83.113,93.319c-0.021,0-0.048,0.001-0.068,0.001c-0.004,0-0.006,0.001-0.01,0.001l-12.529-0.995
					l-12.331-6.112l-6.691-3.715c-0.01,0.041-0.021,0.083-0.03,0.124c-0.012,0.057-0.025,0.114-0.035,0.17
					c-0.015,0.087-0.026,0.17-0.036,0.253c-0.003,0.026-0.009,0.055-0.011,0.081c-0.032,0.32-0.027,0.607-0.002,0.861
					c0.005,0.056,0.012,0.107,0.019,0.159c0.013,0.104,0.029,0.211,0.05,0.32c0.01,0.054,0.02,0.105,0.031,0.155
					c0.012,0.058,0.024,0.116,0.036,0.166l0.106,0.352c0.074,0.202,0.14,0.358,0.205,0.502c0.002,0.005,0.004,0.01,0.007,0.015
					c0.145,0.318,0.286,0.549,0.51,0.906l0.278,0.384c0.194,0.238,0.464,0.545,0.67,0.773l0.464,0.46
					c0.199,0.187,0.473,0.425,0.677,0.604l0.626,0.512c0.223,0.175,0.526,0.4,0.751,0.57l0.454,0.324l0.308,0.221
					c0.252,0.175,0.594,0.4,0.848,0.572l0.88,0.567c0.283,0.178,0.664,0.409,0.948,0.584l0.987,0.584
					c0.311,0.182,0.729,0.415,1.042,0.593l1.082,0.592c0.013,0.007,0.029,0.016,0.042,0.022c0.331,0.182,0.761,0.402,1.085,0.573
					l1.167,0.594c0.352,0.195,0.842,0.414,1.203,0.592l1.238,0.588c0.369,0.182,0.873,0.398,1.247,0.569l1.226,0.539
					c0.362,0.154,0.845,0.357,1.207,0.511l1.177,0.477c0.346,0.137,0.808,0.314,1.155,0.449l1.11,0.411l0.004,0.001
					c0.328,0.117,0.766,0.268,1.094,0.383l1.039,0.342c0.308,0.1,0.72,0.223,1.028,0.317l0.949,0.268
					c0.291,0.079,0.681,0.174,0.973,0.247l0.846,0.188c0.265,0.053,0.606,0.112,0.884,0.161c0.023,0.005,0.053,0.01,0.075,0.014
					l0.332,0.045l0.257,0.034l0.14,0.019c0.328,0.031,0.768,0.059,1.097,0.073l0.581-0.009c0.798-0.057,1.033-0.115,1.656-0.288
					l0.4-0.146c0.033-0.014,0.058-0.029,0.09-0.044c0.023-0.011,0.043-0.021,0.065-0.032c0.121-0.056,0.241-0.111,0.345-0.168
					c0.042-0.023,0.079-0.046,0.118-0.069c0.016-0.01,0.029-0.019,0.045-0.028c0.023-0.016,0.046-0.029,0.069-0.045
					c0.002-0.001,0.005-0.003,0.007-0.004c0.004-0.003,0.009-0.006,0.014-0.009c0.02-0.013,0.04-0.024,0.059-0.037
					c0.046-0.03,0.101-0.062,0.144-0.092c0.02-0.014,0.036-0.027,0.056-0.042c0.047-0.034,0.086-0.067,0.129-0.102
					c0.004-0.003,0.008-0.006,0.012-0.009c0.034-0.028,0.073-0.057,0.105-0.084c0.011-0.009,0.024-0.018,0.035-0.026
					c0.083-0.071,0.155-0.138,0.226-0.201c0.014-0.014,0.031-0.028,0.045-0.041l0.248-0.269L83.113,93.319z"/>
				<path fill="#31A4B8" d="M82.992,93.315c-0.034-0.001-0.068-0.002-0.098-0.003l-0.188-0.019c-0.083-0.01-0.146-0.021-0.223-0.032
					c-0.104-0.015-0.214-0.029-0.304-0.045c-0.005-0.001-0.012-0.001-0.017-0.002c-0.038-0.007-0.063-0.012-0.099-0.019
					c-0.121-0.021-0.238-0.044-0.325-0.062c-0.092-0.019-0.211-0.045-0.302-0.064c0.032,0.007,0.062,0.02,0.095,0.028
					c0.046,0.014,0.094,0.025,0.139,0.042c-0.026,0.012-15.801-3.773-22.774-7.866c0.085,0.05-0.112,0.159-0.166,0.241
					c-0.064,0.1-0.126,0.199-0.199,0.291c-0.087,0.109-0.184,0.207-0.281,0.307l-0.078,0.101c-1.591,1.648-2.39,2.476,1.797,5.296
					c3.169,2.134,10.836,6.098,15.047,6.046c0.648-0.008,1.731-0.021,3.254-1.767c0.091-0.104,0.191-0.277,0.316-0.349l0.06-0.034
					c0.086-0.075,0.2-0.173,0.286-0.247c0.021-0.017,0.048-0.04,0.069-0.057c1.069-0.901,2.078-1.753,4.032-1.781
					c0.004,0,0.006-0.001,0.01-0.001c0.021,0,0.048-0.001,0.068-0.001C83.076,93.32,83.034,93.317,82.992,93.315z"/>
				<path fill="#37A8BB" d="M81.438,93.07c0.091,0.02,0.21,0.046,0.302,0.064c-0.201-0.042-0.467-0.104-0.666-0.149l-0.678-0.174
					c-0.24-0.065-0.56-0.157-0.8-0.226l-0.827-0.255c-0.181-0.058-0.394-0.129-0.601-0.197c0.027,0.009,0.056,0.021,0.083,0.029
					c-0.041-0.014-0.082-0.028-0.123-0.042c0.013,0.004,0.025,0.008,0.039,0.013c-0.726-0.249-1.455-0.504-2.205-0.789
					c-0.04-0.015-0.081-0.029-0.121-0.045c-0.859-0.328-1.735-0.687-2.617-1.059l-3.034-1.365c-0.161-0.072-0.321-0.144-0.481-0.216
					c-2.06-0.984-3.99-2.006-5.782-3.062l-4.585-2.058c0.111,0.05-0.122,0.922-0.153,1.021c-0.092,0.297-0.26,0.558-0.368,0.827
					c-0.58,0.875-1.172,1.728-1.31,2.798c-0.101,0.777,0.438,1.364,0.982,1.844c0.556,0.489,1.17,0.906,1.774,1.332
					c2.765,1.947,11.3,6.438,15.05,5.481c0.996-0.255,1.541-1.262,2.535-1.519l0.077-0.061c0.085-0.073,0.197-0.171,0.282-0.244
					c1.116-0.911,1.207-0.985,1.585-1.19c0.795-0.433,1.557-0.622,1.783-0.659c0.029-0.005,0.065-0.02,0.092-0.031
					c-0.045-0.017-0.093-0.028-0.139-0.042C81.501,93.09,81.471,93.077,81.438,93.07z"/>
				<path fill="#3EABBE" d="M78.988,92.631c-0.125-0.09-0.28-0.2-1.573-0.689c-1.316-0.498-2.587-1.013-3.827-1.537l-3.877-1.744
					c-2.06-0.984-3.99-2.006-5.782-3.062c-0.736-0.435-1.457-0.872-2.146-1.316l-2.446-0.455l-0.018,0.188
					c-0.054,0.385-0.072,0.45-0.212,0.964c-0.032,0.098-0.075,0.226-0.109,0.326l-0.004,0.013c-0.733,1.986-0.733,1.986-0.754,2.127
					c-0.457,3.076,12.588,11.251,18.101,7.725c0.103-0.065,0.241-0.152,0.344-0.217l0.003-0.002c0.666-0.501,2.045-1.541,2.35-1.849
					C79.223,92.916,79.109,92.719,78.988,92.631z"/>
				<path fill="#44AEC0" d="M78.229,92.677c-0.136-0.3-0.15-0.312-3.658-1.799l-6.486-2.99c-2.549-1.289-4.608-2.487-6.158-3.51
					c-0.002-0.002-0.005-0.003-0.007-0.005c-0.051-0.034-0.102-0.067-0.152-0.102c-0.026-0.017-0.049-0.033-0.075-0.051
					c-0.647-0.434-1.207-0.837-1.666-1.197c-0.016-0.013-0.029-0.024-0.044-0.036c-0.113-0.091-0.224-0.18-0.327-0.267
					c-0.156-0.131-0.3-0.255-0.427-0.372c-0.019-0.018-0.042-0.037-0.061-0.054l-0.076-0.083l-0.037-0.04l-0.115-0.125
					c0.016,0.025,0.026,0.041,0.038,0.061c0.011,0.017,0.023,0.036,0.031,0.05c0.001,0.003,0.003,0.005,0.004,0.008
					c0.016,0.027,0.03,0.053,0.043,0.079c0.006,0.012,0.013,0.026,0.019,0.04c0.01,0.021,0.023,0.052,0.037,0.084
					c0.001,0.005,0.003,0.007,0.005,0.012c0.006,0.013,0.009,0.021,0.016,0.036l0.052,0.143c0.048,0.154,0.073,0.247,0.093,0.344
					c0.004,0.02,0.007,0.038,0.011,0.058s0.007,0.036,0.011,0.058c0.002,0.013,0.004,0.025,0.006,0.038
					c0.007,0.044,0.014,0.09,0.023,0.149c0.001,0.011,0,0.021,0.001,0.031c0.005,0.039,0.002,0.078,0.006,0.117
					c0.005,0.062,0.007,0.124,0.009,0.188c0,0.004,0,0.009,0.001,0.014c0.017,0.642-0.126,1.286-0.198,1.588
					c-0.029,0.1-0.066,0.229-0.096,0.331l-0.004,0.013c-0.128,0.436-0.288,0.86-0.397,1.301c-0.217,0.869-0.792,3.178,6.452,6.652
					c5.034,2.414,8.524,2.926,10.67,1.561c0.103-0.063,0.241-0.149,0.344-0.213l0.003-0.002
					C77.965,93.396,78.404,93.065,78.229,92.677z"/>
				<path fill="#4AB1C3" d="M77.058,92.17c-0.19-0.142-0.478-0.276-0.686-0.389c-0.591-0.321-1.197-0.611-1.802-0.903
					c-0.328-0.158-0.652-0.321-0.982-0.474c0,0,0,0-0.001-0.001c-0.062-0.028-0.126-0.057-0.189-0.085
					c-0.057-0.026-0.114-0.052-0.171-0.077c-1.01-0.46-2.022-0.913-3.034-1.365c-0.161-0.072-0.321-0.144-0.481-0.216
					c-0.547-0.247-1.086-0.511-1.627-0.772c-0.484-0.233-0.972-0.46-1.447-0.712c-4.431-2.354-6.481-3.969-7.003-4.408
					c-0.126-0.106-0.305-0.236-0.449-0.314c0.135,0.512,0.152,0.578,0.193,0.893c0.094,0.729-0.063,1.502-0.156,1.965
					c-0.024,0.102-0.057,0.235-0.082,0.34l-0.003,0.012c-0.478,2.098-0.855,3.754,3.814,6.415c3.136,1.786,8.896,4.519,12.247,2.735
					c0.112-0.059,0.262-0.137,0.374-0.195l0.009-0.006C78.084,92.932,77.585,92.562,77.058,92.17z"/>
				<path fill="#51B4C6" d="M75.959,91.785c-0.9-0.562-1.836-1.051-2.787-1.51c-0.302-0.146-0.605-0.291-0.911-0.432
					c-0.507-0.233-1.017-0.462-1.527-0.689c-0.285-0.126-0.568-0.254-0.853-0.381c-1.083-0.483-2.162-0.978-3.209-1.535
					c-3.834-2.039-5.818-3.477-6.564-4.018c-0.175-0.127-0.385-0.421-0.6-0.399c-0.033,0.003-0.067,0.044-0.08,0.075
					c-0.139,0.334,0.055,0.646,0.064,0.972c0.017,0.575-0.078,1.13-0.188,1.774c-0.012,0.061-0.028,0.139-0.042,0.2l-0.001,0.007
					c-0.294,1.662-0.627,3.548,3.819,6.086c5.029,2.871,9.24,3.852,11.552,2.688c0.115-0.057,0.268-0.133,0.382-0.189l0.008-0.005
					c0.828-0.523,1.053-0.665,1.393-1.04C77.18,92.549,76.503,92.125,75.959,91.785z"/>
				<path fill="#57B8C8" d="M74.783,91.346c-2.594-1.547-5.425-2.62-8.084-4.037c-1.559-0.831-2.812-1.562-3.756-2.136l-0.084-0.052
					c-0.9-0.551-1.511-0.955-1.814-1.156c-0.958-0.635-1.214-0.806-1.34-0.742c-0.079,0.04-0.08,0.227-0.083,0.842
					c-0.003,0.544-0.076,1.062-0.153,1.609c-0.017,0.106-0.039,0.247-0.055,0.355l-0.001,0.009
					c-0.161,1.419-0.381,3.362,3.798,5.753c4.567,2.611,8.629,3.596,10.866,2.633c0.123-0.052,0.285-0.121,0.407-0.174l0.006-0.004
					c0.448-0.264,1.273-0.75,1.527-1.297C76.304,92.33,75.884,92.002,74.783,91.346z"/>
				<path fill="#5EBBCB" d="M73.828,91.011c-1.851-1.051-3.778-1.952-5.681-2.901l-3.775-2.057
					c-1.261-0.768-2.498-1.573-3.803-2.266c-0.528-0.279-0.611-0.203-0.662-0.158c-0.082,0.074-0.115,0.473-0.125,0.641
					c-0.034,0.532-0.068,0.844-0.15,1.598c-0.012,0.109-0.027,0.255-0.04,0.364l0,0.006c-0.349,5.698,10.944,9.052,14.034,7.933
					c0.092-0.035,0.216-0.082,0.309-0.117l0.008-0.004c0.526-0.281,1.604-0.861,1.508-1.59
					C75.396,92.035,74.987,91.669,73.828,91.011z"/>
				<path fill="#64BECE" d="M74.647,91.945c-0.304-0.426-1.132-0.91-1.141-0.916l-5.359-2.92l-3.775-2.057l-3.754-2.046
					c-0.354-0.18-0.568-0.019-0.639,0.479c-0.01,0.072-0.141,1.222-0.152,1.586c-0.006,0.109-0.015,0.252-0.021,0.364l-0.001,0.014
					c0.084,5.444,10.531,8.367,13.122,7.54c0.135-0.043,0.316-0.101,0.451-0.145l0.008-0.004
					C73.923,93.577,75.318,92.887,74.647,91.945z"/>
				<path fill="#6AC1D0" d="M73.871,91.639c-0.909-1.029-12.505-7.082-12.615-7.135c-0.513-0.248-0.957-0.462-1.101,0.518
					c-0.043,0.292-0.105,1.023-0.103,1.268c-0.001,0.112-0.003,0.26-0.004,0.373v0.012c0.385,5.002,9.857,7.736,12.289,7.083
					c0.142-0.039,0.331-0.091,0.472-0.13l0.011-0.005C73.429,93.35,74.823,92.717,73.871,91.639z"/>
				<path fill="#71C4D3" d="M60.321,86.907c0.782,4.493,8.564,7.144,11.907,6.491l0.018-0.007c0.61-0.249,1.718-0.711,1.199-1.641
					c-0.683-1.224-11.216-6.578-11.322-6.631c-1.347-0.671-1.564-0.581-1.716,0.134c-0.123,0.578-0.103,1.156-0.087,1.621
					L60.321,86.907z"/>
				<path fill="#77C8D5" d="M60.65,87.173c1.024,4.29,8.318,6.358,10.412,6.048c0.16-0.025,0.375-0.059,0.535-0.083l0.011-0.004
					c0.513-0.17,1.557-0.523,1.311-1.294c-0.172-0.537-0.367-1.146-10.381-6.341c-0.872-0.452-1.613-0.765-1.851-0.003
					c-0.141,0.473-0.105,1.092-0.082,1.271c0.013,0.118,0.03,0.273,0.043,0.394L60.65,87.173z"/>
				<path fill="#7ECBD8" d="M61.012,87.449c0.876,3.018,6.085,5.567,9.578,5.461c0.108-0.014,0.252-0.031,0.361-0.046l0.016-0.005
					c0.567-0.17,1.596-0.485,1.232-1.316c-0.163-0.373-0.502-1.149-8.402-5.23c-2.211-1.142-2.541-1.041-2.764-0.537
					c-0.106,0.238-0.166,0.803-0.085,1.262c0.019,0.12,0.044,0.28,0.063,0.402L61.012,87.449z"/>
				<path fill="#84CEDB" d="M70.243,92.541c0.469-0.082,1.396-0.255,1.356-0.924c-0.046-0.786-1.98-1.996-4.868-3.569
					c-3.891-2.12-4.925-2.647-5.318-1.981c-0.226,0.383-0.123,1.112-0.075,1.273c0.036,0.128,0.083,0.293,0.12,0.423l0.003,0.011
					c1.624,3.582,6.866,4.777,8.128,4.778c0.189-0.002,0.441-0.005,0.63-0.007L70.243,92.541z"/>
				<path fill="#8AD1DD" d="M61.974,88.126c0.575,1.13,2.778,3.431,7.001,4.053c0.133,0.001,0.311,0.004,0.444,0.006l0.013-0.002
					c0.803-0.117,1.559-0.231,1.389-0.905c-0.238-0.95-3.099-2.51-5.624-3.885c-2.781-1.516-3.124-1.168-3.308-0.981
					c-0.307,0.311-0.145,1.043-0.064,1.274c0.043,0.13,0.102,0.301,0.146,0.433L61.974,88.126z"/>
				<path fill="#91D4E0" d="M66.672,88.402c-1.785-1.057-3.787-1.965-4.233-1.615c-0.322,0.254-0.259,0.887-0.017,1.328
					c0.077,0.14,0.177,0.321,0.254,0.462l0.006,0.011c1.655,2.205,4.311,2.909,5.746,3.133h0.013
					c0.759,0.019,1.413,0.032,1.562-0.457C70.194,90.633,68.926,89.736,66.672,88.402z"/>
				<path fill="#97D8E3" d="M63.72,89.225c1.315,1.168,1.898,1.363,3.454,1.882l0.017,0.003c0.102,0.022,1.745,0.346,1.851-0.293
					c0.14-0.842-4.812-3.838-5.823-3.522c-0.098,0.03-0.228,0.108-0.279,0.196c-0.136,0.234-0.004,0.676,0.389,1.314
					c0.113,0.122,0.262,0.28,0.377,0.404L63.72,89.225z"/>
				<path fill="#9EDBE5" d="M64.452,88.042c-0.168-0.019-0.443-0.083-0.562,0.038c-0.282,0.285,0.462,1.188,0.761,1.381
					c0.404,0.262,0.935,0.643,1.389,0.803c0.859,0.305,1.632,0.271,1.636,0.27c0.101-0.04,0.235-0.182,0.218-0.289
					C67.833,89.863,65.597,88.169,64.452,88.042z"/>
			</g>
			<g>
				<path fill="#2AA1B6" d="M87.373,99.619c-0.019,0.018-0.074,0.06-0.055,0.044c0.055-0.044-16.557-35.624-16.652-35.601
					c-0.012,0.003,0.021-0.009,0.034-0.012c0.011-0.002,0.018-0.008,0.029-0.01c-0.044,0.004-0.076,0.008-0.116,0.01
					c-0.031,0.003-0.06,0.006-0.088,0.008c-0.446,0.04-0.657,0.088-1.188,0.262c-0.09,0.038-0.198,0.085-0.3,0.129
					c-0.041,0.018-0.083,0.035-0.119,0.051c-1.917,0.941-2.726,3.276-1.804,5.25c0.522,1.117,1.489,1.867,2.58,2.169
					c0.005,0.001,0.011,0.003,0.016,0.004c0.055,0.06,0.114,0.126,0.175,0.193c0.034,0.037,0.067,0.075,0.102,0.114
					c0.014,0.016,0.03,0.034,0.043,0.049l0.208,0.254c0.125,0.152,0.252,0.319,0.38,0.488c0.044,0.059,0.09,0.119,0.129,0.171
					l0.408,0.567c0.097,0.139,0.209,0.305,0.317,0.466c0.057,0.085,0.113,0.167,0.17,0.253l0.258,0.398
					c0.11,0.172,0.219,0.342,0.329,0.519c0.108,0.173,0.216,0.348,0.316,0.511c0.003,0.005,0.006,0.01,0.009,0.015
					c0.013,0.021,0.029,0.048,0.042,0.068l0.509,0.858c0.162,0.275,0.369,0.648,0.527,0.926l0.173,0.314
					c0.132,0.238,0.26,0.473,0.386,0.705c0.159,0.301,0.36,0.679,0.514,0.969l0.541,1.061c0.184,0.318,0.38,0.77,0.542,1.1
					l0.539,1.133c0.121,0.356,0.366,0.799,0.523,1.141l0.496,1.122c0.135,0.331,0.327,0.77,0.466,1.099l0.436,1.07
					c0.125,0.31,0.284,0.727,0.405,1.038l0.371,0.997c0.104,0.287,0.236,0.671,0.337,0.959l0.299,0.9
					c0.062,0.192,0.133,0.424,0.199,0.64c0.012,0.041,0.025,0.083,0.037,0.122c0.01,0.031,0.021,0.068,0.03,0.098l0.222,0.779
					c0.037,0.135,0.077,0.294,0.117,0.451c0.007,0.028,0.015,0.058,0.021,0.087c0.018,0.067,0.035,0.139,0.051,0.198l0.141,0.621
					c0.035,0.173,0.076,0.404,0.109,0.578l0.057,0.408c0.001,0.01,0.002,0.021,0.003,0.032c-0.004,0.009-0.009,0.018-0.013,0.027
					c-0.452,1.021-0.49,2.227,0.025,3.329c0.934,1.998,3.289,2.875,5.258,1.957c0.023-0.011,0.048-0.021,0.072-0.033
					c0.112-0.06,0.199-0.108,0.284-0.157c0.035-0.021,0.069-0.041,0.108-0.065c0.028-0.017,0.054-0.034,0.08-0.051
					c0.066-0.043,0.136-0.091,0.208-0.145c0.037-0.027,0.074-0.056,0.111-0.086c0.04-0.031,0.081-0.066,0.122-0.101
					c0.044-0.037,0.093-0.079,0.143-0.123c0.009-0.008,0.016-0.014,0.024-0.021c0.002-0.001,0.003-0.003,0.005-0.004
					c0.02-0.017,0.032-0.028,0.053-0.046l0.223-0.231l0.015-0.015l0.017-0.018C87.378,99.616,87.376,99.617,87.373,99.619z"/>
				<path fill="#31A4B8" d="M88.309,98.007l-15.72-33.648c-0.287-0.108-0.573-0.192-0.859-0.243c0.003,0,0.006,0,0.009,0
					c-0.007-0.002-0.012-0.002-0.019-0.002c-0.127-0.02-0.247-0.032-0.364-0.043c-0.091-0.008-0.182-0.019-0.273-0.021
					c-0.085-0.003-0.167,0-0.25,0.002c-0.044,0-0.089-0.002-0.133,0c-0.013,0.003-0.021,0.009-0.034,0.012
					c-1.298,0.287-1.383,1.807-0.238,4.533c0.149,0.354,0.365,0.817,0.527,1.164l0.981,2.1l0.001,0.002l0.002,0.005l10.196,21.814
					l0.001,0.002l0.004,0.01l1.504,3.217c0.107,0.217,1.069,2.136,2.032,2.722c0.376,0.229,0.998,0.598,1.642,0.032
					c0.019-0.017,0.036-0.026,0.055-0.044c0.027-0.03,0.054-0.069,0.082-0.102c0.005-0.006,0.01-0.014,0.016-0.02
					c0.096-0.116,0.188-0.243,0.281-0.373c0.022-0.031,0.045-0.058,0.068-0.091l0.186-0.314c-0.002,0.002-0.004,0.004-0.005,0.006
					c0.098-0.18,0.189-0.375,0.273-0.587C88.29,98.099,88.294,98.047,88.309,98.007z"/>
				<path fill="#37A8BB" d="M73.821,64.963c-0.187-0.122-0.342-0.209-0.637-0.371l-0.398-0.181
					c-0.065-0.021-0.131-0.038-0.197-0.053c-1.077-0.234-2.216,0.5-1.344,3.56c0.766,2.686,11.857,26.078,12.853,27.828
					c2.208,3.889,3.714,3.186,4.211,2.261c0.003-0.006,0.007-0.011,0.01-0.017l0.075-0.196c0.149-0.535,0.165-0.651,0.242-1.208
					l0.033-0.474C88.654,96.33,73.738,64.91,73.821,64.963z"/>
				<path fill="#3EABBE" d="M88.652,95.092l-0.059-0.65c-0.033-0.271-0.09-0.629-0.131-0.898l-0.013-0.069
					c0.104,0.668-13.42-27.538-13.182-27.303c-0.193-0.189-0.401-0.388-0.577-0.55c-0.208-0.169-0.479-0.381-0.707-0.548
					c-0.021-0.015-0.045-0.035-0.065-0.05c-0.022-0.014-0.067-0.041-0.098-0.061c-0.083-0.053-0.193-0.11-0.329-0.176
					c-0.06-0.028-0.109-0.059-0.176-0.084c-1.275-0.491-2.587,0.492-1.354,4.16c1.256,3.738,10.088,22.162,10.464,22.945
					c4.27,8.901,5.736,6.363,6.085,5.374c0.019-0.056,0.035-0.123,0.051-0.189c0.013-0.055,0.024-0.109,0.036-0.155
					c0.031-0.217,0.057-0.508,0.071-0.726C88.674,95.807,88.664,95.397,88.652,95.092z"/>
				<path fill="#44AEC0" d="M88.45,93.474c-0.004-0.021-0.008-0.047-0.011-0.067l-0.117-0.604l-0.011-0.058
					c-0.006-0.028-0.015-0.063-0.021-0.094c-0.058-0.262-0.131-0.576-0.188-0.823l-0.159-0.615l-0.074-0.289
					c-0.081-0.297-0.196-0.689-0.28-0.984l-0.311-1.001c-0.102-0.318-0.246-0.739-0.351-1.056L86.547,86.8
					c-0.122-0.337-0.291-0.786-0.417-1.123l-0.345-0.885l-0.104-0.266c-0.146-0.354-0.336-0.827-0.48-1.182l-0.512-1.204
					c-0.08-0.395-0.379-0.859-0.542-1.228l-0.571-1.245c-0.152-0.382-0.412-0.866-0.588-1.237l-0.593-1.202
					c-0.179-0.35-0.418-0.816-0.597-1.166l-0.595-1.123c-0.177-0.327-0.417-0.76-0.597-1.086l-0.458-0.803l-3.406-5.188
					c-0.037-0.049-0.152-0.197-0.198-0.254c-0.018-0.023-0.04-0.053-0.057-0.074c-0.087-0.104-0.187-0.225-0.294-0.352
					c-0.057-0.066-0.116-0.137-0.178-0.207c-0.112-0.13-0.229-0.263-0.355-0.398l-0.021-0.023c-0.013-0.014-0.027-0.027-0.041-0.042
					c-0.003-0.004-0.007-0.007-0.011-0.011c-0.088-0.094-0.177-0.188-0.27-0.28c-0.017-0.017-0.034-0.034-0.052-0.051
					c-0.052-0.051-0.109-0.092-0.162-0.142c-0.195-0.182-0.39-0.352-0.583-0.51c-0.245-0.186-0.495-0.342-0.741-0.445
					c-0.032-0.014-3.191-1.207-1.123,4.779c0.296,0.859,2.12,4.922,4.24,9.521l4.295,9.162c1.342,2.807,2.442,5.038,2.913,5.845
					c2.388,4.098,3.858,3.432,4.303,2.506c0.132-0.275,0.195-0.62,0.222-0.99C88.69,95.083,88.554,94.142,88.45,93.474z"/>
				<path fill="#4AB1C3" d="M74.663,65.777c-1.662-1.129-2.589-0.061-2.112,2.432c0.173,0.902,1.987,5.722,4.349,11.165
					c1.421,3.083,2.974,6.4,4.295,9.162c2.928,5.687,5.773,9.867,7.027,7.993c0.463-0.691,0.367-2.282-0.113-4.387
					c0,0-7.457-18.369-7.559-18.369c-0.19-0.346-0.375-0.676-0.541-0.967c-0.038-0.066-0.074-0.125-0.112-0.191
					c-0.156-0.264-0.329-0.553-0.471-0.791l-0.575-0.93c-0.173-0.272-0.409-0.633-0.585-0.904l-0.555-0.814
					c-0.172-0.246-0.41-0.57-0.585-0.814l-0.342-0.445c-0.014-0.02-0.027-0.035-0.041-0.053
					C75.996,66.928,75.292,66.205,74.663,65.777z"/>
				<path fill="#51B4C6" d="M72.877,67.594c0.104,2.682,11.953,31.59,15.086,28.539c0.568-0.555,0.559-2.008,0.146-3.99
					c-0.336-1.477-0.863-3.205-1.527-5.068l-3.19-7.712c-0.236-0.508-0.477-1.013-0.721-1.515c-0.77-1.558-1.502-2.953-2.12-4.074
					c-1.71-3.055-3.414-5.586-4.777-6.873C73.374,64.633,72.829,66.362,72.877,67.594z"/>
				<path fill="#57B8C8" d="M83.568,79.742c-0.058-0.127-0.117-0.253-0.177-0.38c-3.889-8.222-8.678-15.081-9.882-12.549
					c-0.469,0.985-1.11,2.335,7.662,20.249c1.744,3.562,4.664,9.523,6.457,8.583c1.073-0.562,0.696-3.601-1.047-8.571
					c-0.802-2.247-1.797-4.679-2.896-7.079C83.647,79.91,83.608,79.826,83.568,79.742z"/>
				<path fill="#5EBBCB" d="M73.858,67.627c-0.172,0.719-0.694,2.906,7.495,19.335c1.562,3.132,4.467,8.96,6.138,8.011
					c2.329-1.322-3.289-15.195-7.995-22.811C74.785,64.541,73.939,67.289,73.858,67.627z"/>
				<path fill="#64BECE" d="M74.282,68.306c-0.441,2.739,10.245,27.699,13.042,25.952c2.325-1.488-4.434-17.321-8.938-23.658
					C74.842,65.611,74.329,68.015,74.282,68.306z"/>
				<path fill="#6AC1D0" d="M74.991,68.288c-1.793,1.946,9.301,25.61,11.87,25.32c0.301-0.034,0.658-0.325,0.651-1.515
					C87.475,85.844,77.06,66.042,74.991,68.288z"/>
				<path fill="#71C4D3" d="M75.463,68.932c-1.789,1.667,8.764,24.224,11.181,23.896c0.281-0.039,0.505-0.395,0.57-0.906
					C87.852,86.887,77.638,66.904,75.463,68.932z"/>
				<path fill="#77C8D5" d="M86.391,91.98c0.078-0.011,0.476-0.115,0.516-1.066c0.219-5.285-9.008-23.135-10.972-21.221
					C74.33,71.257,84.199,92.295,86.391,91.98z"/>
				<path fill="#7ECBD8" d="M86.105,91.082c0.004,0,0.387-0.11,0.424-0.689c0.306-4.873-8.182-21.619-10.091-19.909
					C74.945,71.821,84.16,91.457,86.105,91.082z"/>
				<path fill="#84CEDB" d="M85.818,90.08c0.113-0.03,0.268-0.073,0.332-0.652c0.42-3.827-7.552-19.528-9.172-18.064
					c-1.373,1.238,7.018,19.108,8.802,18.746C85.795,90.105,85.805,90.084,85.818,90.08z"/>
				<path fill="#8AD1DD" d="M77.57,72.36c-1.276,1.001,5.273,15.556,7.455,16.568c0.111,0.052,0.29,0.085,0.404,0.044
					c0.104-0.039,0.261-0.096,0.288-0.759C85.865,84.564,79.014,71.23,77.57,72.36z"/>
				<path fill="#91D4E0" d="M78.244,73.434c-1.185,0.735,4.239,12.967,6.309,14.227c0.111,0.068,0.306,0.137,0.427,0.087
					c0.085-0.035,0.146-0.164,0.175-0.251C85.855,85.346,79.591,72.598,78.244,73.434z"/>
				<path fill="#97D8E3" d="M79.016,74.833c-1.243,0.623,3.958,10.767,4.957,11.345c0.106,0.062,0.279,0.161,0.392,0.113
					c0.11-0.047,0.157-0.239,0.183-0.357C84.953,84.046,80.094,74.293,79.016,74.833z"/>
				<path fill="#9EDBE5" d="M80.062,76.824c-0.628,0.271,1.863,6.219,2.996,7.149c0.119,0.097,0.314,0.303,0.451,0.235
					c0.559-0.277-1.094-3.965-1.111-4.002S80.636,76.577,80.062,76.824z"/>
			</g>
		</g>
		<radialGradient id="SVGID_3_" cx="55.0898" cy="81.9297" r="5.3081" gradientUnits="userSpaceOnUse">
			<stop  offset="0" style="stop-color:#ADDEE6"/>
			<stop  offset="1" style="stop-color:#2AA1B6"/>
		</radialGradient>
		<path fill="url(#SVGID_3_)" d="M57.059,79.782c1.999,0.931,2.877,3.285,1.956,5.261c-0.918,1.969-3.287,2.812-5.286,1.881
			c-2.007-0.936-2.885-3.289-1.967-5.258C52.683,79.69,55.052,78.848,57.059,79.782z"/>
	</g>
</g>
</svg>
