<?xml version="1.0" encoding="utf-8"?>
<!-- Generator: Adobe Illustrator 15.0.2, SVG Export Plug-In . SVG Version: 6.00 Build 0)  -->
<!DOCTYPE svg PUBLIC "-//W3C//DTD SVG 1.1//EN" "http://www.w3.org/Graphics/SVG/1.1/DTD/svg11.dtd">
<svg version="1.1" id="レイヤー_1" xmlns="http://www.w3.org/2000/svg" xmlns:xlink="http://www.w3.org/1999/xlink" x="0px"
	 y="0px" width="160px" height="160px" viewBox="0 0 160 160" enable-background="new 0 0 160 160" xml:space="preserve">
<radialGradient id="SVGID_1_" cx="-38.3604" cy="601.416" r="20.999" gradientTransform="matrix(1.4286 0 0 0.1905 134.8018 5.4305)" gradientUnits="userSpaceOnUse">
	<stop  offset="0" style="stop-color:#000000;stop-opacity:0.25"/>
	<stop  offset="1" style="stop-color:#000000;stop-opacity:0"/>
</radialGradient>
<ellipse fill="url(#SVGID_1_)" cx="80" cy="120" rx="30" ry="4"/>
<g>
	<g>
		<path fill="#2AA1B6" d="M65.372,84.431C65.392,84.424,65.31,84.447,65.372,84.431L65.372,84.431z"/>
		<path fill="#2AA1B6" d="M65.579,84.372C65.589,84.369,65.572,84.373,65.579,84.372L65.579,84.372z"/>
		<path fill="#2AA1B6" d="M83.16,55.409c0,0-0.271,0.084-0.388,0.121l-0.382,0.144c-0.114,0.043-0.262,0.117-0.373,0.167
			l-0.366,0.19c-0.11,0.062-0.255,0.152-0.363,0.217l-0.35,0.24c-0.108,0.08-0.248,0.194-0.354,0.277l-0.33,0.294
			c-0.135,0.131-0.301,0.311-0.435,0.455c-0.019,0.022-0.038,0.044-0.057,0.065L79.503,57.9c-0.006,0.007-0.011,0.015-0.017,0.022
			c-0.096,0.13-0.21,0.304-0.299,0.434l-0.236,0.402c-0.079,0.149-0.172,0.349-0.246,0.508c-0.011,0.024-0.021,0.049-0.031,0.073
			l-0.114,0.295c-0.18,0.499-0.267,0.925-0.328,1.223c-0.022,0.149-0.042,0.333-0.06,0.504c-0.009,0.083-0.017,0.164-0.024,0.236
			c0,0.003,0,0.006,0,0.009l-0.009,0.386c0,0.09,0.002,0.184,0.006,0.282c0.012,0.214,0.031,0.454,0.049,0.646l0.082,0.5
			c0.049,0.214,0.122,0.484,0.188,0.715c0.072,0.223,0.149,0.43,0.222,0.625l0.359,0.866c0.013,0.029,0.025,0.058,0.038,0.086
			c0,0.001,0.001,0.002,0.001,0.003c0.059,0.132,0.119,0.259,0.18,0.381c0.006,0.012,0.011,0.024,0.017,0.036
			c0.035,0.069,0.071,0.136,0.107,0.202l0.031,0.055c0.033,0.059,0.066,0.117,0.1,0.173l0.041,0.07
			c0.018,0.03,0.037,0.06,0.055,0.088c0.017,0.026,0.035,0.053,0.054,0.08c0.128,0.198,0.26,0.378,0.391,0.544
			c0.014,0.019,0.028,0.037,0.041,0.055l0.048,0.055c0.079,0.095,0.157,0.185,0.235,0.27l0.053,0.061
			c0.029,0.03,0.061,0.061,0.093,0.093c0.138,0.141,0.272,0.266,0.401,0.379c0.017,0.016,0.034,0.031,0.05,0.046
			c0.039,0.033,0.078,0.066,0.116,0.097l0.048,0.037c0.093,0.076,0.182,0.145,0.264,0.208l0.008,0.006
			c0.029,0.022,0.057,0.043,0.085,0.064l0.028,0.021l0.066,0.049c0.285,0.212,0.627,0.506,0.939,0.878
			c0.145,0.172,0.283,0.362,0.406,0.568c-0.001-0.004-0.002-0.008-0.002-0.012c-0.007-0.027-0.015-0.053-0.021-0.08
			c0.002,0.005,0.006,0.011,0.009,0.017l0.019,0.069l0.002,0.007l0.002,0.013l0.022,0.104l0.024,0.156l0.016,0.135
			c0.006,0.051,0.012,0.12,0.016,0.172l0.004,0.155c0,0.056-0.004,0.129-0.006,0.185l-0.012,0.163
			c-0.006,0.063-0.018,0.148-0.025,0.211l-0.005,0.029c-0.095,0.671-0.353,1.404-0.774,2.195c-0.008,0.016-0.018,0.032-0.026,0.048
			c-0.042,0.076-0.09,0.161-0.128,0.229l-0.025,0.042c-0.024,0.042-0.049,0.083-0.074,0.125l-0.066,0.112
			c-0.033,0.055-0.076,0.12-0.116,0.183c0,0,0,0-0.001,0.001c-0.024,0.039-0.049,0.076-0.07,0.109l-0.195,0.285
			c-0.061,0.083-0.141,0.192-0.203,0.278c-1.017,1.359-2.232,2.43-2.977,3.023l-0.36,0.286c-0.11,0.086-0.26,0.198-0.371,0.281
			l-0.379,0.278c-0.113,0.088-0.273,0.191-0.389,0.273l-0.396,0.269c-0.04,0.026-0.084,0.056-0.13,0.085
			c-1.379,0.915-2.385,1.417-2.398,1.421c-0.226,0.118-0.442,0.229-0.654,0.335c-0.061,0.032-0.122,0.063-0.183,0.095
			c0.098-0.048-1.687,1.243-1.687,1.243s-1.726,0.32-1.737,0.258l-0.495,0.188c-0.107,0.046-0.405,0.152-0.498,0.184
			c0,0.01-1.183,0.696-1.183,0.696s-1.386,0.155-1.369,0.139c-0.155,0.05-0.363,0.108-0.52,0.152
			c-0.064,0.019-0.135,0.038-0.207,0.059c-0.095,0.026-0.19,0.054-0.286,0.081c0,0-1.084,0.291-1.088,0.292
			c-0.086,0.022-0.195,0.061-0.279,0.087l-0.273,0.103c-0.078,0.039-0.185,0.083-0.265,0.119l-0.21,0.108
			c-0.688,0.377-1.555,1.059-2.154,2.254l-0.052,0.104c-0.019,0.039-0.037,0.079-0.055,0.118c-0.053,0.127-0.112,0.281-0.158,0.401
			l-0.113,0.363c-0.039,0.153-0.079,0.353-0.112,0.516c-0.007,0.044-0.014,0.086-0.02,0.128l-0.031,0.244
			c-0.008,0.082-0.015,0.158-0.019,0.23c-0.009,0.176-0.013,0.375-0.015,0.533l0.026,0.435c0.011,0.105,0.03,0.245,0.044,0.349
			l0.047,0.269c0.011,0.056,0.026,0.122,0.041,0.187c0.107,0.445,0.242,0.793,0.312,0.974l0.358,0.866
			c0.013,0.029,0.026,0.059,0.039,0.089c0.022,0.048,0.044,0.099,0.065,0.145c0.012,0.025,0.024,0.051,0.036,0.076l0.105,0.211
			c0.008,0.015,0.017,0.031,0.026,0.048c0.006,0.012,0.013,0.023,0.02,0.036c0.03,0.054,0.061,0.108,0.089,0.158
			c0.012,0.021,0.023,0.04,0.035,0.06l0.128,0.205c0.015,0.023,0.031,0.047,0.047,0.069c0.044,0.063,0.093,0.134,0.132,0.189
			l0.159,0.207c0.056,0.069,0.133,0.16,0.191,0.228l0.171,0.187c0.005,0.005,0.01,0.011,0.015,0.015
			c0.058,0.059,0.13,0.13,0.187,0.185l0.18,0.164c0.062,0.052,0.145,0.121,0.207,0.172l0.186,0.142
			c0.062,0.045,0.145,0.102,0.208,0.145l0.189,0.121c0.051,0.031,0.116,0.068,0.173,0.101c0.02,0.011,0.04,0.022,0.06,0.032
			l0.108,0.057c0.46,0.236,0.954,0.41,1.47,0.51c0.024,0.004,0.049,0.009,0.073,0.014c0.028,0.004,0.056,0.01,0.083,0.014
			c0.01,0.002,0.021,0.004,0.032,0.006c0.044,0.007,0.1,0.014,0.15,0.02c0.009,0.001,0.017,0.002,0.025,0.003
			c0.005,0.001,0.01,0.001,0.014,0.002l0.166,0.017c0.011,0,0.022,0.002,0.033,0.002c0.043,0.003,0.093,0.006,0.137,0.008
			c0.021,0.002,0.042,0.002,0.063,0.004l0.094,0.002c0.029,0,0.059,0,0.09,0c0.004,0,0.009,0,0.014,0c0.011,0,0.021,0,0.032,0
			c0.032,0,0.063-0.001,0.09-0.001l0.173-0.009c0.008,0,0.017-0.001,0.025-0.002c0.028-0.002,0.057-0.005,0.085-0.008
			c0.005,0,0.011,0,0.016-0.001c0.017-0.001,0.032-0.003,0.047-0.004c0.021-0.003,0.041-0.006,0.062-0.009
			c0.148-0.021,0.295-0.052,0.444-0.069c0.44-0.09,0.854-0.179,1.244-0.265c0.002,0,0.004-0.002,0.006-0.002
			c0.148-0.069,0.357-0.09,0.529-0.12c0.022-0.004,0.043-0.009,0.064-0.013c0.028-0.007,0.057-0.014,0.084-0.02l0.543-0.129
			c0.212-0.051,0.417-0.102,0.616-0.152c0.004,0,0.009-0.002,0.014-0.003l0.35-0.091l0.101-0.026l0.17-0.044
			c0.002-0.001,0.005-0.002,0.007-0.003c0.167-0.081,0.412-0.114,0.594-0.16c0.001-0.001,0.003-0.001,0.004-0.001
			c0.058-0.016,0.115-0.032,0.171-0.049c0,0,0,0,0.001,0l0.023-0.006c0.154-0.043,0.304-0.087,0.451-0.129
			c0.149-0.072,0.357-0.113,0.529-0.157c0.24-0.071,0.472-0.144,0.7-0.213c0.103-0.14,0.368-0.142,0.555-0.181
			c1.27-0.42,2.461-0.856,3.596-1.32c0.343-0.141,0.713-0.298,1.108-0.469c0.297-0.131,0.591-0.264,0.881-0.398
			c0.142-0.137,0.41-0.197,0.591-0.281c0.023-0.012,0.046-0.021,0.068-0.033l0.42-0.207c0.475-0.238,0.94-0.482,1.401-0.736
			c0.1-0.058,0.213-0.119,0.322-0.179c0.751-0.421,1.486-0.866,2.215-1.337c0.115-0.074,0.229-0.148,0.344-0.225l0.188-0.128
			l0.229-0.155l0.156-0.107c0.096-0.065,0.207-0.145,0.316-0.223c0.062-0.045,0.124-0.09,0.183-0.131
			c0.022-0.017,0.047-0.034,0.068-0.049l0.058-0.043l0.5-0.371c0.164-0.13,0.387-0.301,0.552-0.429l0.54-0.439
			c0.164-0.134,0.375-0.318,0.537-0.456l0.439-0.391c0.467-0.423,0.938-0.877,1.405-1.363c0.774-0.803,1.54-1.692,2.264-2.67
			l0.243-0.334c0.039-0.055,0.076-0.112,0.116-0.168c0.104-0.152,0.216-0.319,0.308-0.453l0.389-0.614
			c0.097-0.157,0.215-0.36,0.316-0.537c0.051-0.088,0.101-0.177,0.15-0.267l0.129-0.237c0.121-0.226,0.238-0.455,0.352-0.687
			L83.16,55.409z"/>
	</g>
	<path fill="#31A4B8" d="M84.5,55.175c0.004,0,0.008-0.001,0.012-0.002l-0.143,0.011l-0.408,0.052
		c-0.123,0.019-0.285,0.052-0.406,0.076l-0.395,0.098l-0.334,0.105c-0.057,0.021-0.132,0.048-0.188,0.07
		c-4.572,1.828-3.705,7.201-2.205,8.133c7.357,4.578,3.368,12.542-7.368,17.795c-0.025,0.013-0.05,0.026-0.076,0.039
		c-0.278,0.137-0.65,0.316-0.934,0.445c-0.38,0.172-1.39,0.629-2.414,1.017l-0.495,0.188c-0.113,0.112-0.35,0.128-0.499,0.183
		c-0.368,0.132-0.711,0.249-1.008,0.349c0,0-0.001,0-0.002,0l-0.011,0.004c-0.559,0.188-0.95,0.307-1.012,0.326l-0.517,0.157
		c-0.115,0.114-0.363,0.106-0.52,0.152l-0.522,0.148c-0.106,0.105-0.326,0.103-0.483,0.134c-0.009,0.003-0.072,0.02-0.072,0.02
		l-0.504,0.13c-4.673,1.528-2.635,7.796,1.118,9.624c0.002,0,0.196,0.094,0.433,0.186c0.022-0.003,0.045-0.006,0.068-0.01
		c-0.022,0.004-0.044,0.008-0.066,0.011l0.359,0.864c-0.02,0.003-0.04,0.006-0.06,0.009c0,0-0.001,0-0.001,0.001
		c0.021-0.004,0.041-0.005,0.062-0.008c0.073,0.03,0.172,0.069,0.245,0.099c0.17,0.06,19.914-1.753,27.608-14.904
		c0.218-0.373,0.427-0.756,0.624-1.147c0.191-0.388,0.373-0.785,0.545-1.19c0.027-0.065,0.055-0.13,0.081-0.195
		c0.034-0.083,0.071-0.166,0.104-0.25l0.062-0.167l0.19-0.514c0.078-0.226,0.173-0.528,0.246-0.755
		c0.077-0.271,0.165-0.601,0.245-0.914C95.86,75.542,84.512,55.173,84.5,55.175z"/>
	<path fill="#37A8BB" d="M85.662,55.184c-0.037-0.003-0.073-0.006-0.109-0.009c-0.113-0.008-0.238-0.013-0.338-0.019l-0.419,0.001
		c-0.088,0.003-0.196,0.011-0.296,0.019c-5.83,0.729-5.441,6.513-4.184,7.783c0.824,0.833,2.008,1.187,2.783,2.087
		c0.658,0.766,1.139,1.917,1.256,2.609c0.385,2.281-0.311,4.629-2.067,6.979c-2.332,3.12-7.405,7.425-18.333,10.217L63.95,84.86
		c-0.043,0.044-0.133,0.054-0.19,0.075c-0.417,0.167-1.243,0.677-1.691,1.533c-0.162,0.31-0.655,1.253-0.378,2.709
		c0.623,3.255,3.504,4.938,4.045,5.033c0.598,0.104,4.115-0.589,4.362-0.638l0.015-0.003l0.359,0.865
		c-0.004,0.001-0.009,0.002-0.013,0.004l0.01-0.002c0.195-0.038,0.454-0.089,0.648-0.127c13.367-2.805,22.35-9.631,24.743-18.769
		c-0.08,0.313-0.168,0.644-0.245,0.914l0.197-0.7c0.043-0.166,0.092-0.372,0.135-0.562c-0.018,0.075-0.037,0.152-0.058,0.231
		c0.021-0.082,0.042-0.165,0.062-0.247c0.166-0.749,0.252-1.351,0.304-1.722c0.001-0.01,0.003-0.02,0.005-0.029l0.002-0.023
		l0.062-0.625l0.008-0.078l0.008-0.111l0.004-0.065V72.51l0.025-0.492l0.003-0.073c0.001-0.005,0.001-0.011,0.001-0.017
		C96.371,71.949,85.662,55.184,85.662,55.184z"/>
	<path fill="#3EABBE" d="M96.379,70.981c-0.008-0.262-0.021-0.571-0.031-0.813l-0.062-0.724l-0.018-0.15l-0.01-0.071
		c-0.003-0.025-0.006-0.049-0.01-0.074c-0.012-0.081-0.023-0.163-0.035-0.241l-9.064-13.413c-0.027-0.009-0.055-0.018-0.083-0.027
		c-0.021-0.006-0.04-0.013-0.06-0.019l-0.014-0.004l-0.355-0.097c-0.035-0.009-0.07-0.018-0.105-0.025
		c-0.117-0.026-0.255-0.051-0.373-0.074c-0.037-0.006-0.072-0.012-0.109-0.018l-0.354-0.045c-0.01,0-0.02-0.002-0.028-0.002
		c-0.001,0-0.003,0-0.005,0c-5.58-0.313-6.861,5.319-5.237,7.246c0.815,0.967,2.103,1.341,2.91,2.318
		c0.454,0.551,1.06,1.598,1.267,2.736c0.543,2.974-1.012,5.648-1.984,6.978c-2.368,3.23-7.531,7.67-18.687,10.479l-0.002,0.011
		c-0.037,0.051-0.132,0.062-0.189,0.089c-0.668,0.312-1.501,1.106-1.754,2.111c-0.186,0.74-0.249,1.945,0.515,3.479
		c1.708,3.44,3.276,3.193,5.651,2.819c2.649-0.417,5.211-0.999,7.613-1.731l0.025-0.01l0.357,0.867
		c0.051-0.014,0.117-0.034,0.167-0.049c12.123-3.76,19.609-11.431,20.057-20.539c0.002-0.02,0.002-0.04,0.004-0.061
		c0.002-0.095,0.004-0.191,0.006-0.287l0.002-0.434C96.381,71.132,96.379,71.056,96.379,70.981z"/>
	<path fill="#44AEC0" d="M96.369,70.84c-0.014-0.64-0.066-1.284-0.156-1.931c-0.07-0.471-0.146-0.886-0.23-1.272
		c-0.049-0.205-0.104-0.427-0.147-0.607l-0.181-0.626c-0.045-0.145-0.167-0.5-0.207-0.618L88.295,56
		c-0.109-0.059-0.222-0.118-0.315-0.168l-0.368-0.163l-0.034-0.015c-0.016-0.006-0.031-0.013-0.047-0.02
		c-0.011-0.004-0.023-0.009-0.035-0.013c-0.022-0.008-0.044-0.017-0.067-0.025c-0.002,0-0.004-0.001-0.006-0.002
		c-0.103-0.037-0.213-0.075-0.312-0.109c-4.676-1.444-8.347,2.746-6.717,6.224c0.191,0.407,0.191,0.407,0.567,0.658
		c1.646,1.104,3.35,2.245,3.865,4.978c0.42,2.229-0.263,4.628-2.027,7.129c-1.876,2.657-6.822,7.562-18.875,10.572l-0.002,0.015
		c-0.367,0.589-1.124,0.77-1.461,1.391c-0.303,0.556-0.423,1.211-0.357,1.945c0.053,0.586,0.391,2.634,2.514,4.359
		c0.631,0.513,1.174,0.954,8.014-0.618c2.661-0.611,5.182-1.407,7.496-2.364l0.014-0.005l0.358,0.866
		c0.192-0.081,0.449-0.188,0.64-0.269C90.91,86.132,96.543,78.808,96.369,70.84z"/>
	<path fill="#4AB1C3" d="M96.008,67.884c-0.112-0.565-0.258-1.13-0.432-1.694c-0.008-0.023-0.014-0.047-0.021-0.07
		c-0.013-0.042-0.026-0.084-0.04-0.126c-0.007-0.023-0.015-0.047-0.022-0.07c0.003,0.009,0.006,0.018,0.008,0.026
		c-0.005-0.017-0.01-0.034-0.016-0.051c-0.012-0.035-0.021-0.069-0.033-0.104c-0.001-0.002-0.002-0.004-0.002-0.007
		c-0.013-0.036-0.025-0.072-0.038-0.108c-0.001-0.003-0.002-0.006-0.003-0.008c-0.008-0.021-0.015-0.043-0.021-0.064
		c-0.016-0.044-0.031-0.088-0.047-0.132c-0.002-0.004-0.003-0.009-0.005-0.014c-0.005-0.013-0.01-0.026-0.015-0.039
		c-0.006-0.016-0.012-0.032-0.018-0.047c0-0.001,0-0.002-0.001-0.003c-0.004-0.01-0.008-0.021-0.012-0.031
		c-0.003-0.009-0.007-0.019-0.011-0.029c-0.012-0.031-0.023-0.062-0.035-0.093l-0.045-0.11l-0.01-0.021l-0.295-0.712l-0.01-0.022
		c-0.004-0.012-0.01-0.024-0.014-0.036c-0.059-0.14-0.125-0.304-0.186-0.453c-0.014-0.035-0.027-0.068-0.041-0.101
		c-0.041-0.094-0.085-0.192-0.127-0.285l-0.154-0.333l-0.223-0.454c-0.018-0.034-0.034-0.068-0.051-0.102
		c-0.107-0.201-0.242-0.445-0.352-0.643c-0.011-0.02-0.021-0.039-0.032-0.058l-0.314-0.523c-0.064-0.104-0.13-0.206-0.194-0.306
		c-0.09-0.136-0.185-0.277-0.268-0.402c-0.035-0.051-0.07-0.101-0.105-0.15l-0.283-0.394c-1.285-1.737-2.574-2.862-3.209-3.416
		l-0.225-0.184c-0.061-0.052-0.123-0.099-0.188-0.142l-0.646-0.384c-4.296-2.229-8.879,1.232-7.89,4.875
		c0.228,0.84,0.4,0.958,0.742,1.19c1.539,1.044,3.284,2.229,3.877,4.994c0.63,2.936-0.844,5.687-1.777,7.066
		c-2.326,3.431-7.562,8.132-19.304,11.046l0,0.018c-0.335,0.6-1.083,0.811-1.372,1.456c-0.096,0.214-0.39,0.867-0.186,2.01
		c0.362,2.024,1.93,3.664,2.926,4.181c0.241,0.125,5.276-0.464,9.956-1.773c3.161-0.882,5.936-1.977,8.483-3.344
		c0.009-0.006,0.019-0.009,0.028-0.011l0.356,0.857c-0.004,0.007-0.006,0.011-0.002,0.008c0.078-0.042,0.184-0.098,0.261-0.141
		C93.199,83.482,97.544,75.644,96.008,67.884z"/>
	<path fill="#51B4C6" d="M95.908,67.522c-0.005-0.021-0.01-0.042-0.014-0.064c0.004,0.02,0.008,0.041,0.012,0.061l-0.357-0.862
		c0,0.004,0.001,0.007,0.002,0.011c-0.002-0.005-0.002-0.01-0.004-0.015c0-0.001,0-0.003,0-0.005
		c-0.002-0.01-0.005-0.02-0.006-0.029c-0.002-0.003-0.002-0.007-0.003-0.011c-0.31-1.264-0.798-2.838-1.757-4.559
		c-0.003-0.004-0.006-0.009-0.008-0.013c-0.938-1.68-2.326-3.5-4.432-5.306l-0.438-0.308c-0.002,0-0.991-0.56-0.991-0.56
		c-4.894-1.834-8.462,2.063-7.212,5.189c0.174,0.435,0.174,0.435,0.592,0.723c1.4,0.962,3.316,2.278,3.91,5.171
		c0.654,3.184-1.049,6.092-1.812,7.194c-2.417,3.493-7.756,8.264-19.463,11.155v0.018c-0.304,0.599-1.014,0.849-1.272,1.483
		c-0.181,0.441-0.204,1.053-0.071,1.815c0.359,2.063,2.188,3.651,2.578,3.783c0.399,0.135,6.739-0.567,12.457-2.457
		c3.555-1.176,6.678-2.694,9.281-4.514l0.376,0.856c0.17-0.124,0.398-0.285,0.568-0.408C94.355,81.036,97.295,74.349,95.908,67.522z
		"/>
	<path fill="#57B8C8" d="M96.167,70.33L96.166,70.4l-0.357-0.863l-0.003-0.131c-0.009-0.208-0.019-0.464-0.028-0.661
		c0-0.005,0-0.012,0-0.017c-0.252-3.169-1.564-7.741-6.302-11.829l-0.015-0.012c0,0,0,0,0,0l0,0l0,0
		c-0.158-0.137-0.321-0.273-0.487-0.408c-0.024-0.02-0.046-0.039-0.069-0.058l-0.027-0.018l-0.145-0.123
		c-0.073-0.035-0.148-0.066-0.225-0.092l-0.139-0.089c-0.002,0-0.004-0.001-0.006-0.002c-0.005-0.001-0.01-0.004-0.014-0.005
		l-0.061-0.038l-0.184-0.118l-0.055-0.035c-0.045-0.015-0.092-0.028-0.138-0.04c-0.038-0.01-0.077-0.019-0.116-0.027l-0.149-0.022
		c-6.435-1.808-7.674,3.982-6.59,5.354c0.835,1.058,2.171,1.552,2.98,2.639c0.731,0.982,1.202,2.069,1.394,3.231
		c0.396,2.397-0.328,4.927-2.156,7.519c-1.955,2.771-7.065,7.869-19.335,10.88l0.001,0.017l0,0l0,0
		c-0.249,0.542-0.875,0.768-1.104,1.326c-0.091,0.223-0.223,0.725-0.08,1.57c0.376,2.223,2.179,3.589,2.288,3.615
		c0.393,0.092,7.306-0.467,14.131-2.955c4.345-1.585,7.958-3.733,10.743-6.387l0.056-0.055l0.357,0.861l-0.027,0.035
		c0.088-0.085,0.205-0.2,0.293-0.284C94.413,79.277,96.234,75.073,96.167,70.33z"/>
	<path fill="#5EBBCB" d="M95.002,74.336c0.006-0.022,0.016-0.052,0.023-0.074c1.863-6.276-0.16-12.609-5.416-17.163c0,0,0,0,0-0.001
		c-0.286-0.247-0.581-0.49-0.886-0.727c-0.024-0.019-0.048-0.038-0.073-0.057l-0.023-0.017l-0.134-0.114
		c-0.081-0.027-0.163-0.049-0.247-0.067l-0.449-0.283c-0.049-0.009-0.1-0.016-0.149-0.022c-0.038-0.004-0.075-0.008-0.113-0.01
		L87.365,55.8c-6.462-1.182-7.043,4.091-6.104,5.167c0.884,1.013,2.171,1.579,2.974,2.681c0.736,1.008,1.203,2.121,1.393,3.31
		c0.389,2.441-0.35,5.011-2.197,7.638c-1.977,2.814-7.135,7.984-19.472,10.997l0.002,0.018l0,0
		c-0.189,0.459-0.736,0.615-0.915,1.083c-0.169,0.441-0.195,0.888-0.087,1.539c0.322,1.961,1.844,3.285,1.977,3.303
		c0.39,0.05,8.632-0.489,16.208-3.685c6.021-2.541,10.316-6.192,12.77-10.855c0.004-0.009-0.012,0.026-0.025,0.052l0.359,0.864
		c0.011-0.022,0.021-0.043,0.033-0.065c0.065-0.132,0.129-0.264,0.192-0.397c0.012-0.025,0.024-0.05,0.036-0.076
		c0.078-0.167,0.154-0.336,0.227-0.505c0.002-0.003,0.004-0.006,0.005-0.01c0.067-0.156,0.132-0.312,0.195-0.469
		c0.019-0.046,0.036-0.092,0.055-0.138c0.045-0.114,0.089-0.228,0.131-0.342c0.013-0.036,0.026-0.071,0.039-0.107l-0.358-0.863
		C94.801,74.938,94.938,74.527,95.002,74.336z"/>
	<path fill="#64BECE" d="M88.459,56.294c-0.025-0.018-0.049-0.036-0.072-0.054l-0.025-0.018l-0.127-0.108
		c-0.086-0.017-0.172-0.029-0.262-0.037l-0.438-0.275c-0.056-0.003-0.112-0.004-0.169-0.003c-0.035,0.001-0.07,0.001-0.105,0.003
		l-0.184,0.021c-6.306-0.565-6.517,3.834-5.651,4.869c0.888,1.061,2.202,1.663,3.013,2.805c0.729,1.026,1.194,2.167,1.383,3.389
		c0.381,2.462-0.371,5.072-2.238,7.754c-1.6,2.302-6.715,7.99-19.6,11.123c0,0,0,0,0,0l0.002,0.015
		c-0.166,0.449-0.69,0.625-0.829,1.094c-0.161,0.54,0.057,1.5,0.06,1.509c0.005,0.028,0.75,2.671,2.025,2.747
		c0.072,0.003,9.377-0.576,17.206-4.237C98.545,79.36,98.889,64.025,88.459,56.294z"/>
	<path fill="#6AC1D0" d="M88.172,56.247l-0.212-0.169c-0.089-0.007-0.181-0.009-0.272-0.006l-0.428-0.268
		c-0.061,0.005-0.122,0.012-0.184,0.021c-0.036,0.005-0.072,0.011-0.109,0.018l-0.189,0.045c-6.1,0.033-5.934,3.683-5.146,4.572
		c0.927,1.047,2.211,1.723,3.02,2.895c0.723,1.048,1.182,2.214,1.368,3.469c0.37,2.496-0.397,5.143-2.28,7.868
		c-1.264,1.831-6.423,8.051-19.726,11.268l0.002,0.015c-0.111,0.313-0.204,0.573-0.281,0.794l-0.006,0.019
		c-0.379,1.087-0.365,1.157-0.281,1.566c0.168,0.814,0.918,2.325,1.542,2.335c0.084,0.001,9.71-0.486,17.924-4.403
		C98.511,78.846,98.535,63.796,88.172,56.247z"/>
	<path fill="#71C4D3" d="M64.054,86.197c-0.042,0.114-0.08,0.225-0.116,0.333l-0.161,0.554c-0.734,2.904,1.1,3.132,1.12,3.132
		c0.091-0.002,9.706-0.434,17.905-4.277c15.438-7.235,15.676-22.356,5.062-29.706c-0.021-0.015-0.042-0.031-0.063-0.045
		c-0.002,0-0.003,0-0.005,0s-0.002,0-0.003,0c0.001,0,0.001,0,0.003,0l0,0l-0.019-0.015l-0.003-0.002l-0.115-0.097
		c-0.092,0.004-0.185,0.012-0.279,0.027l-0.414-0.258c-0.062,0.012-0.127,0.028-0.189,0.045c-0.047,0.013-0.094,0.026-0.141,0.042
		L86.444,56c-5.893,0.656-5.298,3.497-4.585,4.223c3.949,4.022,3.949,4.022,4.332,6.345c0.578,3.521-1.216,6.607-2.014,7.771
		c-4.978,7.258-14.746,10.54-20.125,11.849L64.054,86.197z"/>
	<path fill="#77C8D5" d="M92.111,60.501c-0.807-1.104-2.255-2.733-4.594-4.243c-0.02-0.013-0.039-0.026-0.06-0.04l0,0
		c-0.004,0-0.007,0.001-0.011,0.001l0,0l-0.001,0l-0.018-0.015l-0.001-0.001l-0.111-0.092c-0.094,0.017-0.188,0.037-0.283,0.063
		l-0.037-0.023l-0.022-0.014l-0.006-0.003l-0.007-0.004l-0.031-0.02l-0.036-0.023l-0.017-0.01l0,0c-0.002,0-0.002,0-0.004,0.001
		l-0.009-0.006l-0.018-0.011l-0.01-0.006l-0.045-0.028l-0.024-0.015l-0.021-0.014l-0.006-0.003l0,0l-0.002-0.002l-0.011-0.006
		l-0.021-0.013l-0.07-0.044c-0.064,0.021-0.129,0.045-0.192,0.071c-0.071,0.029-0.142,0.061-0.214,0.097
		c-0.055,0.027-0.109,0.057-0.164,0.088c-0.379,0.217-0.752,0.522-1.101,0.916c-0.022,0.026-0.046,0.054-0.068,0.081
		c-0.001,0-0.001,0.001-0.002,0.002c-0.004,0.005-0.008,0.009-0.011,0.014c-0.708-0.395-1.729-0.272-2.467,0.289
		c-0.07,0.054-0.139,0.11-0.204,0.172c-0.793,0.755-0.81,1.815-0.048,2.367c2.438,1.759,4.025,4.179,4.291,7.002
		c0.287,2.808-0.855,5.904-3.01,8.582c-2.145,2.703-5.201,4.979-8.552,6.771c-3.365,1.785-7.047,3.111-10.792,4.075
		c-0.06,0.017-0.115,0.042-0.166,0.074c-0.095,0.061-0.167,0.146-0.204,0.237c-0.002,0.006-0.004,0.012-0.006,0.019
		c-0.015,0.044-0.022,0.091-0.018,0.137c0.006,0.062,0.031,0.116,0.067,0.161c0.024,0.031,0.052,0.058,0.086,0.078
		c0.08,0.049,0.184,0.068,0.298,0.053c-0.025,0.012-0.048,0.026-0.069,0.044c-0.022,0.019-0.453,2.213,0.797,2.422
		c0.145,0.024,17.207-0.522,25.519-9.432C95.983,74.272,96.637,66.706,92.111,60.501z"/>
	<path fill="#7ECBD8" d="M93.873,64.501c-2.088-5.498-6.852-7.973-7.133-7.367c0,0.002,0.223,0.609,0.938,1.663
		c4.166,6.141,2.119,11.74,0.529,14.531c-3.719,6.524-8.333,8.74-18.443,13.599c-0.239,0.115-0.703,0.195-0.756,0.454
		c-0.023,0.116,0.112,0.272,0.217,0.326c1.966,1.032,19.814-2.816,24.529-12.912c0.678-1.45,1.084-3.029,1.133-4.742
		C94.936,68.338,94.628,66.489,93.873,64.501z"/>
	<path fill="#84CEDB" d="M88.717,58.733c-0.002,0.002-0.209,0.213,0.1,0.905c1.465,3.277,2.761,7.767-0.234,13.444
		c-3.133,5.942-9.315,9.593-12.285,11.346c-1.396,0.824-1.396,0.824-1.718,1.113c-0.169,0.151-0.384,0.363-0.549,0.52
		c2.859,0.826,18.467-3.255,20.256-14.883C95.57,62.819,89.146,58.416,88.717,58.733z"/>
	<path fill="#8AD1DD" d="M90.309,60.575c-0.107,0.007-0.255,0.1-0.299,0.198c-0.002,0.002,0.018,0.65,0.273,1.722
		c0.795,3.328,0.352,7.021-1.219,10.128c-2.137,4.232-3.527,5.391-10.207,10.96c-0.193,0.163-0.542,0.31-0.642,0.541
		c-0.06,0.139-0.09,0.404,0.023,0.508c0.409,0.369,7.709-1.166,12.359-6.527C98.031,69.535,91.697,60.48,90.309,60.575z"/>
	<path fill="#91D4E0" d="M91.213,62.431c-0.245,0.086-0.245,0.086-0.203,1.778c0.061,2.382-0.021,5-1.689,8.507
		c-1.463,3.073-3.613,5.495-6.605,8.407c-0.227,0.219-0.557,0.483-0.75,0.731c-0.164,0.266-0.648,0.61-0.523,0.896
		c0.312,0.724,8.029-1.776,11.195-8.432C95.781,67.708,91.932,62.177,91.213,62.431z"/>
	<path fill="#97D8E3" d="M91.785,64.588c-0.002,0.001-0.281,0.91-0.329,1.462c-0.081,0.932-0.296,3.409-1.694,6.442
		c-0.961,2.085-2.149,3.927-3.854,5.973c-0.787,0.946-1.473,2.055-1.473,2.059c0,0.021,0.04,0.035,0.041,0.057
		c0.014,0.119,0.125,0.284,0.238,0.322c0.525,0.178,7.344-2.84,8.604-10.006C93.957,67.263,92.463,64.116,91.785,64.588z"/>
	<path fill="#9EDBE5" d="M87.543,77.449c-0.09,0.249-0.098,0.609-0.142,0.87c0.288-0.107,0.688-0.219,0.954-0.37
		c0.659-0.373,2.8-2.138,3.956-5.249c1.116-3.002,0.441-5.452,0.044-5.512c-0.176-0.026-0.355,0.242-0.432,0.402
		c-0.206,0.435-0.27,0.912-0.405,1.368c-0.142,0.478-0.536,1.74-1.126,3.127c-0.816,1.921-1.727,3.476-2.164,4.224
		C88.004,76.692,87.698,77.025,87.543,77.449z"/>
</g>
</svg>
